{"glyphs":{"0":{"ha":1150,"x_min":0,"x_max":0,"o":"m 506 139 l 506 278 l 367 278 l 367 833 l 228 833 l 228 694 l 89 694 l 89 278 l 228 278 l 228 139 l 367 139 l 367 0 l 783 0 l 783 139 z m 1061 694 l 922 694 l 922 833 l 783 833 l 783 972 l 367 972 l 367 833 l 644 833 l 644 694 l 783 694 l 783 139 l 922 139 l 922 278 l 1061 278 z "},"1":{"ha":1150,"x_min":0,"x_max":0,"o":"m 992 139 l 714 139 l 714 972 l 436 972 l 436 833 l 296 833 l 296 694 l 436 694 l 436 139 l 158 139 l 158 0 l 992 0 z "},"2":{"ha":1150,"x_min":0,"x_max":0,"o":"m 1061 139 l 506 139 l 506 278 l 783 278 l 783 417 l 922 417 l 922 556 l 1061 556 l 1061 833 l 922 833 l 922 972 l 228 972 l 228 833 l 89 833 l 89 694 l 367 694 l 367 833 l 783 833 l 783 694 l 644 694 l 644 556 l 367 556 l 367 417 l 228 417 l 228 278 l 89 278 l 89 0 l 1061 0 z "},"3":{"ha":1150,"x_min":0,"x_max":0,"o":"m 1061 417 l 922 417 l 922 556 l 783 556 l 783 694 l 922 694 l 922 833 l 1061 833 l 1061 972 l 228 972 l 228 833 l 644 833 l 644 694 l 506 694 l 506 556 l 365 556 l 365 417 l 783 417 l 783 139 l 365 139 l 365 278 l 89 278 l 89 139 l 228 139 l 228 0 l 921 0 l 921 139 l 1061 139 z "},"4":{"ha":1150,"x_min":0,"x_max":0,"o":"m 1061 417 l 922 417 l 922 972 l 506 972 l 506 833 l 367 833 l 367 694 l 226 694 l 226 556 l 89 556 l 89 278 l 644 278 l 644 0 l 922 0 l 922 278 l 1061 278 z m 367 417 l 367 556 l 506 556 l 506 694 l 644 694 l 644 417 z "},"5":{"ha":1150,"x_min":0,"x_max":0,"o":"m 1061 556 l 922 556 l 922 694 l 367 694 l 367 833 l 922 833 l 922 972 l 89 972 l 89 556 l 783 556 l 783 139 l 367 139 l 367 278 l 89 278 l 89 139 l 228 139 l 228 0 l 922 0 l 922 139 l 1061 139 z "},"6":{"ha":1150,"x_min":0,"x_max":0,"o":"m 1061 417 l 922 417 l 922 556 l 367 556 l 367 694 l 506 694 l 506 833 l 922 833 l 922 972 l 367 972 l 367 833 l 228 833 l 228 694 l 89 694 l 89 139 l 228 139 l 228 0 l 922 0 l 922 139 l 1061 139 z m 367 139 l 367 417 l 783 417 l 783 139 z "},"7":{"ha":1150,"x_min":0,"x_max":0,"o":"m 1061 972 l 89 972 l 89 694 l 367 694 l 367 833 l 783 833 l 783 694 l 644 694 l 644 556 l 506 556 l 506 417 l 367 417 l 367 0 l 644 0 l 644 417 l 783 417 l 783 556 l 921 556 l 921 694 l 1061 694 z "},"8":{"ha":1150,"x_min":0,"x_max":0,"o":"m 228 417 l 89 417 l 89 139 l 228 139 l 228 0 l 922 0 l 922 139 l 1061 139 l 1061 417 l 783 417 l 783 556 l 506 556 l 506 694 l 367 694 l 367 833 l 783 833 l 783 556 l 922 556 l 922 833 l 783 833 l 783 972 l 228 972 l 228 833 l 89 833 l 89 556 l 228 556 z m 228 417 l 506 417 l 506 278 l 783 278 l 783 139 l 228 139 z "},"9":{"ha":1150,"x_min":0,"x_max":0,"o":"m 1061 833 l 922 833 l 922 972 l 228 972 l 228 833 l 89 833 l 89 556 l 228 556 l 228 417 l 783 417 l 783 278 l 644 278 l 644 139 l 228 139 l 228 0 l 783 0 l 783 139 l 922 139 l 922 278 l 1061 278 z m 367 556 l 367 833 l 783 833 l 783 556 z "},"\u0017":{"ha":1150,"x_min":0,"x_max":0,"o":""}," ":{"ha":1150,"x_min":0,"x_max":0,"o":""},"!":{"ha":1150,"x_min":0,"x_max":0,"o":"m 922 972 l 506 972 l 506 694 l 367 694 l 367 278 l 506 278 l 506 417 l 644 417 l 644 556 l 783 556 l 783 694 l 922 694 z m 367 139 l 228 139 l 228 0 l 367 0 z "},"\"":{"ha":1150,"x_min":0,"x_max":0,"o":"m 922 972 l 644 972 l 644 694 l 783 694 l 783 556 l 922 556 z m 783 556 l 644 556 l 644 417 l 783 417 z m 506 972 l 228 972 l 228 694 l 367 694 l 367 556 l 506 556 z m 367 556 l 228 556 l 228 417 l 367 417 z "},"#":{"ha":1150,"x_min":0,"x_max":0,"o":"m 922 417 l 783 417 l 783 556 l 922 556 l 922 694 l 783 694 l 783 833 l 644 833 l 644 694 l 506 694 l 506 833 l 367 833 l 367 694 l 228 694 l 228 556 l 367 556 l 367 417 l 228 417 l 228 278 l 367 278 l 367 139 l 506 139 l 506 278 l 644 278 l 644 139 l 783 139 l 783 278 l 922 278 z m 506 417 l 506 556 l 644 556 l 644 417 z "},"$":{"ha":1150,"x_min":0,"x_max":0,"o":"m 1061 417 l 922 417 l 922 556 l 506 556 l 506 694 l 922 694 l 922 833 l 644 833 l 644 972 l 506 972 l 506 833 l 228 833 l 228 694 l 89 694 l 89 556 l 228 556 l 228 417 l 644 417 l 644 278 l 228 278 l 228 139 l 506 139 l 506 0 l 644 0 l 644 139 l 922 139 l 922 278 l 1061 278 z "},"%":{"ha":1150,"x_min":0,"x_max":0,"o":"m 992 972 l 853 972 l 853 833 l 992 833 z m 853 833 l 714 833 l 714 694 l 853 694 z m 714 694 l 575 694 l 575 556 l 714 556 z m 436 972 l 158 972 l 158 694 l 436 694 z m 992 417 l 714 417 l 714 139 l 992 139 z m 575 556 l 436 556 l 436 417 l 575 417 z m 436 417 l 297 417 l 297 278 l 436 278 z m 297 278 l 158 278 l 158 139 l 297 139 z "},"&":{"ha":1150,"x_min":0,"x_max":0,"o":"m 506 556 l 367 556 l 367 833 l 228 833 l 228 556 l 367 556 l 367 417 l 506 417 l 506 278 l 644 278 l 644 139 l 783 139 l 783 0 l 1061 0 l 1061 139 l 783 139 l 783 278 l 644 278 l 644 417 l 506 417 z m 367 139 l 367 417 l 89 417 l 89 139 l 228 139 l 228 0 l 644 0 l 644 139 z m 644 833 l 506 833 l 506 972 l 367 972 l 367 833 l 506 833 l 506 556 l 644 556 z m 922 417 l 783 417 l 783 278 l 922 278 z "},"'":{"ha":1150,"x_min":0,"x_max":0,"o":"m 714 972 l 436 972 l 436 694 l 575 694 l 575 556 l 714 556 z m 575 556 l 436 556 l 436 417 l 575 417 z "},"(":{"ha":1150,"x_min":0,"x_max":0,"o":"m 922 0 l 783 0 l 783 972 l 922 972 l 922 1111 l 644 1111 l 644 972 l 506 972 l 506 0 l 644 0 l 644 -139 l 922 -139 z "},")":{"ha":1150,"x_min":0,"x_max":0,"o":"m 228 -139 l 506 -139 l 506 0 l 644 0 l 644 972 l 506 972 l 506 1111 l 228 1111 l 228 972 l 367 972 l 367 0 l 228 0 z "},"*":{"ha":1150,"x_min":0,"x_max":0,"o":"m 922 833 l 783 833 l 783 694 l 922 694 z m 1061 556 l 783 556 l 783 694 l 644 694 l 644 972 l 506 972 l 506 694 l 367 694 l 367 556 l 89 556 l 89 417 l 367 417 l 367 278 l 506 278 l 506 0 l 644 0 l 644 278 l 783 278 l 783 417 l 1061 417 z m 922 278 l 783 278 l 783 139 l 922 139 z m 367 833 l 228 833 l 228 694 l 367 694 z m 367 278 l 228 278 l 228 139 l 367 139 z "},"+":{"ha":1150,"x_min":0,"x_max":0,"o":"m 990 556 l 714 556 l 714 833 l 436 833 l 436 556 l 158 556 l 158 417 l 436 417 l 436 139 l 714 139 l 714 417 l 990 417 z "},",":{"ha":1150,"x_min":0,"x_max":0,"o":"m 714 556 l 436 556 l 436 278 l 575 278 l 575 139 l 714 139 z m 575 139 l 436 139 l 436 0 l 575 0 z "},"-":{"ha":1150,"x_min":0,"x_max":0,"o":"m 922 556 l 228 556 l 228 417 l 922 417 z "},"­":{"ha":1150,"x_min":0,"x_max":0,"o":"m 922 556 l 228 556 l 228 417 l 922 417 z "},"‐":{"ha":1150,"x_min":0,"x_max":0,"o":"m 922 556 l 228 556 l 228 417 l 922 417 z "},".":{"ha":1150,"x_min":0,"x_max":0,"o":"m 714 278 l 436 278 l 436 0 l 714 0 z "},"/":{"ha":1150,"x_min":0,"x_max":0,"o":"m 1061 972 l 922 972 l 922 833 l 1061 833 z m 922 833 l 783 833 l 783 694 l 922 694 z m 783 694 l 644 694 l 644 556 l 783 556 z m 644 556 l 506 556 l 506 417 l 644 417 z m 506 417 l 367 417 l 367 278 l 506 278 z m 367 278 l 228 278 l 228 139 l 367 139 z m 228 139 l 89 139 l 89 0 l 228 0 z "},"Ӡ":{"ha":1150,"x_min":0,"x_max":0,"o":"m 1061 417 l 922 417 l 922 556 l 783 556 l 783 694 l 922 694 l 922 833 l 1061 833 l 1061 972 l 228 972 l 228 833 l 644 833 l 644 694 l 506 694 l 506 556 l 365 556 l 365 417 l 783 417 l 783 139 l 365 139 l 365 278 l 89 278 l 89 139 l 228 139 l 228 0 l 921 0 l 921 139 l 1061 139 z "},"ӡ":{"ha":1150,"x_min":0,"x_max":0,"o":"m 1061 417 l 922 417 l 922 556 l 783 556 l 783 694 l 922 694 l 922 833 l 1061 833 l 1061 972 l 228 972 l 228 833 l 644 833 l 644 694 l 506 694 l 506 556 l 365 556 l 365 417 l 783 417 l 783 139 l 365 139 l 365 278 l 89 278 l 89 139 l 228 139 l 228 0 l 921 0 l 921 139 l 1061 139 z "},":":{"ha":1150,"x_min":0,"x_max":0,"o":"m 714 972 l 436 972 l 436 694 l 714 694 z m 714 556 l 436 556 l 436 278 l 714 278 z "},";":{"ha":1150,"x_min":0,"x_max":0,"o":"m 714 972 l 436 972 l 436 694 l 714 694 z m 714 556 l 436 556 l 436 278 l 575 278 l 575 139 l 714 139 z m 575 139 l 436 139 l 436 0 l 575 0 z "},";":{"ha":1150,"x_min":0,"x_max":0,"o":"m 714 972 l 436 972 l 436 694 l 714 694 z m 714 556 l 436 556 l 436 278 l 575 278 l 575 139 l 714 139 z m 575 139 l 436 139 l 436 0 l 575 0 z "},"<":{"ha":1150,"x_min":0,"x_max":0,"o":"m 922 139 l 783 139 l 783 278 l 644 278 l 644 417 l 506 417 l 506 556 l 644 556 l 644 694 l 783 694 l 783 833 l 922 833 l 922 972 l 644 972 l 644 833 l 506 833 l 506 694 l 367 694 l 367 556 l 228 556 l 228 417 l 367 417 l 367 278 l 506 278 l 506 139 l 644 139 l 644 0 l 922 0 z "},"=":{"ha":1150,"x_min":0,"x_max":0,"o":"m 992 694 l 158 694 l 158 556 l 992 556 z m 992 417 l 158 417 l 158 278 l 992 278 z "},">":{"ha":1150,"x_min":0,"x_max":0,"o":"m 922 556 l 782 556 l 782 694 l 644 694 l 644 833 l 506 833 l 506 972 l 228 972 l 228 833 l 367 833 l 367 694 l 506 694 l 506 556 l 644 556 l 644 417 l 506 417 l 506 278 l 367 278 l 367 139 l 228 139 l 228 0 l 506 0 l 506 139 l 644 139 l 644 278 l 782 278 l 782 417 l 922 417 z "},"?":{"ha":1150,"x_min":0,"x_max":0,"o":"m 1061 833 l 922 833 l 922 972 l 228 972 l 228 833 l 89 833 l 89 694 l 367 694 l 367 833 l 783 833 l 783 694 l 644 694 l 644 556 l 506 556 l 506 278 l 644 278 l 644 417 l 783 417 l 783 556 l 1061 556 z m 644 139 l 506 139 l 506 0 l 644 0 z "},"@":{"ha":1150,"x_min":0,"x_max":0,"o":"m 367 139 l 367 833 l 783 833 l 783 694 l 506 694 l 506 278 l 922 278 l 922 417 l 1061 417 l 1061 833 l 922 833 l 922 972 l 228 972 l 228 833 l 89 833 l 89 139 l 228 139 l 228 0 l 922 0 l 922 139 z m 783 556 l 783 417 l 644 417 l 644 556 z "},"A":{"ha":1150,"x_min":0,"x_max":0,"o":"m 1061 694 l 922 694 l 922 833 l 783 833 l 783 972 l 367 972 l 367 833 l 228 833 l 228 694 l 89 694 l 89 0 l 367 0 l 367 278 l 783 278 l 783 0 l 1061 0 z m 367 417 l 367 694 l 506 694 l 506 833 l 644 833 l 644 694 l 783 694 l 783 417 z "},"a":{"ha":1150,"x_min":0,"x_max":0,"o":"m 1061 694 l 922 694 l 922 833 l 783 833 l 783 972 l 367 972 l 367 833 l 228 833 l 228 694 l 89 694 l 89 0 l 367 0 l 367 278 l 783 278 l 783 0 l 1061 0 z m 367 417 l 367 694 l 506 694 l 506 833 l 644 833 l 644 694 l 783 694 l 783 417 z "},"Α":{"ha":1150,"x_min":0,"x_max":0,"o":"m 1061 694 l 922 694 l 922 833 l 783 833 l 783 972 l 367 972 l 367 833 l 228 833 l 228 694 l 89 694 l 89 0 l 367 0 l 367 278 l 783 278 l 783 0 l 1061 0 z m 367 417 l 367 694 l 506 694 l 506 833 l 644 833 l 644 694 l 783 694 l 783 417 z "},"α":{"ha":1150,"x_min":0,"x_max":0,"o":"m 1061 694 l 922 694 l 922 833 l 783 833 l 783 972 l 367 972 l 367 833 l 228 833 l 228 694 l 89 694 l 89 0 l 367 0 l 367 278 l 783 278 l 783 0 l 1061 0 z m 367 417 l 367 694 l 506 694 l 506 833 l 644 833 l 644 694 l 783 694 l 783 417 z "},"А":{"ha":1150,"x_min":0,"x_max":0,"o":"m 1061 694 l 922 694 l 922 833 l 783 833 l 783 972 l 367 972 l 367 833 l 228 833 l 228 694 l 89 694 l 89 0 l 367 0 l 367 278 l 783 278 l 783 0 l 1061 0 z m 367 417 l 367 694 l 506 694 l 506 833 l 644 833 l 644 694 l 783 694 l 783 417 z "},"а":{"ha":1150,"x_min":0,"x_max":0,"o":"m 1061 694 l 922 694 l 922 833 l 783 833 l 783 972 l 367 972 l 367 833 l 228 833 l 228 694 l 89 694 l 89 0 l 367 0 l 367 278 l 783 278 l 783 0 l 1061 0 z m 367 417 l 367 694 l 506 694 l 506 833 l 644 833 l 644 694 l 783 694 l 783 417 z "},"B":{"ha":1150,"x_min":0,"x_max":0,"o":"m 1061 417 l 922 417 l 922 556 l 1061 556 l 1061 833 l 922 833 l 922 972 l 89 972 l 89 0 l 922 0 l 922 139 l 1061 139 z m 367 556 l 367 833 l 783 833 l 783 556 z m 367 139 l 367 417 l 783 417 l 783 139 z "},"b":{"ha":1150,"x_min":0,"x_max":0,"o":"m 1061 417 l 922 417 l 922 556 l 1061 556 l 1061 833 l 922 833 l 922 972 l 89 972 l 89 0 l 922 0 l 922 139 l 1061 139 z m 367 556 l 367 833 l 783 833 l 783 556 z m 367 139 l 367 417 l 783 417 l 783 139 z "},"Β":{"ha":1150,"x_min":0,"x_max":0,"o":"m 1061 417 l 922 417 l 922 556 l 1061 556 l 1061 833 l 922 833 l 922 972 l 89 972 l 89 0 l 922 0 l 922 139 l 1061 139 z m 367 556 l 367 833 l 783 833 l 783 556 z m 367 139 l 367 417 l 783 417 l 783 139 z "},"β":{"ha":1150,"x_min":0,"x_max":0,"o":"m 1061 417 l 922 417 l 922 556 l 1061 556 l 1061 833 l 922 833 l 922 972 l 89 972 l 89 0 l 922 0 l 922 139 l 1061 139 z m 367 556 l 367 833 l 783 833 l 783 556 z m 367 139 l 367 417 l 783 417 l 783 139 z "},"В":{"ha":1150,"x_min":0,"x_max":0,"o":"m 1061 417 l 922 417 l 922 556 l 1061 556 l 1061 833 l 922 833 l 922 972 l 89 972 l 89 0 l 922 0 l 922 139 l 1061 139 z m 367 556 l 367 833 l 783 833 l 783 556 z m 367 139 l 367 417 l 783 417 l 783 139 z "},"в":{"ha":1150,"x_min":0,"x_max":0,"o":"m 1061 417 l 922 417 l 922 556 l 1061 556 l 1061 833 l 922 833 l 922 972 l 89 972 l 89 0 l 922 0 l 922 139 l 1061 139 z m 367 556 l 367 833 l 783 833 l 783 556 z m 367 139 l 367 417 l 783 417 l 783 139 z "},"C":{"ha":1150,"x_min":0,"x_max":0,"o":"m 1061 278 l 783 278 l 783 139 l 506 139 l 506 278 l 367 278 l 367 694 l 506 694 l 506 833 l 783 833 l 783 694 l 1061 694 l 1061 833 l 922 833 l 922 972 l 367 972 l 367 833 l 228 833 l 228 694 l 89 694 l 89 278 l 228 278 l 228 139 l 367 139 l 367 0 l 922 0 l 922 139 l 1061 139 z "},"c":{"ha":1150,"x_min":0,"x_max":0,"o":"m 1061 278 l 783 278 l 783 139 l 506 139 l 506 278 l 367 278 l 367 694 l 506 694 l 506 833 l 783 833 l 783 694 l 1061 694 l 1061 833 l 922 833 l 922 972 l 367 972 l 367 833 l 228 833 l 228 694 l 89 694 l 89 278 l 228 278 l 228 139 l 367 139 l 367 0 l 922 0 l 922 139 l 1061 139 z "},"С":{"ha":1150,"x_min":0,"x_max":0,"o":"m 1061 278 l 783 278 l 783 139 l 506 139 l 506 278 l 367 278 l 367 694 l 506 694 l 506 833 l 783 833 l 783 694 l 1061 694 l 1061 833 l 922 833 l 922 972 l 367 972 l 367 833 l 228 833 l 228 694 l 89 694 l 89 278 l 228 278 l 228 139 l 367 139 l 367 0 l 922 0 l 922 139 l 1061 139 z "},"с":{"ha":1150,"x_min":0,"x_max":0,"o":"m 1061 278 l 783 278 l 783 139 l 506 139 l 506 278 l 367 278 l 367 694 l 506 694 l 506 833 l 783 833 l 783 694 l 1061 694 l 1061 833 l 922 833 l 922 972 l 367 972 l 367 833 l 228 833 l 228 694 l 89 694 l 89 278 l 228 278 l 228 139 l 367 139 l 367 0 l 922 0 l 922 139 l 1061 139 z "},"D":{"ha":1150,"x_min":0,"x_max":0,"o":"m 1061 694 l 922 694 l 922 833 l 783 833 l 783 972 l 89 972 l 89 0 l 783 0 l 783 139 l 922 139 l 922 278 l 1061 278 z m 644 278 l 644 139 l 367 139 l 367 833 l 644 833 l 644 694 l 783 694 l 783 278 z "},"d":{"ha":1150,"x_min":0,"x_max":0,"o":"m 1061 694 l 922 694 l 922 833 l 783 833 l 783 972 l 89 972 l 89 0 l 783 0 l 783 139 l 922 139 l 922 278 l 1061 278 z m 644 278 l 644 139 l 367 139 l 367 833 l 644 833 l 644 694 l 783 694 l 783 278 z "},"E":{"ha":1150,"x_min":0,"x_max":0,"o":"m 1061 139 l 367 139 l 367 417 l 922 417 l 922 556 l 367 556 l 367 833 l 1061 833 l 1061 972 l 89 972 l 89 0 l 1061 0 z "},"e":{"ha":1150,"x_min":0,"x_max":0,"o":"m 1061 139 l 367 139 l 367 417 l 922 417 l 922 556 l 367 556 l 367 833 l 1061 833 l 1061 972 l 89 972 l 89 0 l 1061 0 z "},"Ε":{"ha":1150,"x_min":0,"x_max":0,"o":"m 1061 139 l 367 139 l 367 417 l 922 417 l 922 556 l 367 556 l 367 833 l 1061 833 l 1061 972 l 89 972 l 89 0 l 1061 0 z "},"ε":{"ha":1150,"x_min":0,"x_max":0,"o":"m 1061 139 l 367 139 l 367 417 l 922 417 l 922 556 l 367 556 l 367 833 l 1061 833 l 1061 972 l 89 972 l 89 0 l 1061 0 z "},"Е":{"ha":1150,"x_min":0,"x_max":0,"o":"m 1061 139 l 367 139 l 367 417 l 922 417 l 922 556 l 367 556 l 367 833 l 1061 833 l 1061 972 l 89 972 l 89 0 l 1061 0 z "},"е":{"ha":1150,"x_min":0,"x_max":0,"o":"m 1061 139 l 367 139 l 367 417 l 922 417 l 922 556 l 367 556 l 367 833 l 1061 833 l 1061 972 l 89 972 l 89 0 l 1061 0 z "},"F":{"ha":1150,"x_min":0,"x_max":0,"o":"m 1061 972 l 89 972 l 89 0 l 367 0 l 367 417 l 922 417 l 922 556 l 367 556 l 367 833 l 1061 833 z "},"f":{"ha":1150,"x_min":0,"x_max":0,"o":"m 1061 972 l 89 972 l 89 0 l 367 0 l 367 417 l 922 417 l 922 556 l 367 556 l 367 833 l 1061 833 z "},"":{"ha":1150,"x_min":0,"x_max":0,"o":"m 1061 972 l 89 972 l 89 0 l 367 0 l 367 417 l 922 417 l 922 556 l 367 556 l 367 833 l 1061 833 z "},"":{"ha":1150,"x_min":0,"x_max":0,"o":"m 1061 972 l 89 972 l 89 0 l 367 0 l 367 417 l 922 417 l 922 556 l 367 556 l 367 833 l 1061 833 z "},"G":{"ha":1150,"x_min":0,"x_max":0,"o":"m 1061 556 l 644 556 l 644 417 l 783 417 l 783 139 l 506 139 l 506 278 l 367 278 l 367 694 l 506 694 l 506 833 l 1061 833 l 1061 972 l 367 972 l 367 833 l 228 833 l 228 694 l 89 694 l 89 278 l 228 278 l 228 142 l 367 142 l 367 0 l 1061 0 z "},"g":{"ha":1150,"x_min":0,"x_max":0,"o":"m 1061 556 l 644 556 l 644 417 l 783 417 l 783 139 l 506 139 l 506 278 l 367 278 l 367 694 l 506 694 l 506 833 l 1061 833 l 1061 972 l 367 972 l 367 833 l 228 833 l 228 694 l 89 694 l 89 278 l 228 278 l 228 142 l 367 142 l 367 0 l 1061 0 z "},"H":{"ha":1150,"x_min":0,"x_max":0,"o":"m 1061 972 l 783 972 l 783 556 l 367 556 l 367 972 l 89 972 l 89 0 l 367 0 l 367 417 l 783 417 l 783 0 l 1061 0 z "},"h":{"ha":1150,"x_min":0,"x_max":0,"o":"m 1061 972 l 783 972 l 783 556 l 367 556 l 367 972 l 89 972 l 89 0 l 367 0 l 367 417 l 783 417 l 783 0 l 1061 0 z "},"Η":{"ha":1150,"x_min":0,"x_max":0,"o":"m 1061 972 l 783 972 l 783 556 l 367 556 l 367 972 l 89 972 l 89 0 l 367 0 l 367 417 l 783 417 l 783 0 l 1061 0 z "},"η":{"ha":1150,"x_min":0,"x_max":0,"o":"m 1061 972 l 783 972 l 783 556 l 367 556 l 367 972 l 89 972 l 89 0 l 367 0 l 367 417 l 783 417 l 783 0 l 1061 0 z "},"Н":{"ha":1150,"x_min":0,"x_max":0,"o":"m 1061 972 l 783 972 l 783 556 l 367 556 l 367 972 l 89 972 l 89 0 l 367 0 l 367 417 l 783 417 l 783 0 l 1061 0 z "},"н":{"ha":1150,"x_min":0,"x_max":0,"o":"m 1061 972 l 783 972 l 783 556 l 367 556 l 367 972 l 89 972 l 89 0 l 367 0 l 367 417 l 783 417 l 783 0 l 1061 0 z "},"I":{"ha":1150,"x_min":0,"x_max":0,"o":"m 992 972 l 158 972 l 158 833 l 436 833 l 436 139 l 158 139 l 158 0 l 992 0 l 992 139 l 714 139 l 714 833 l 992 833 z "},"i":{"ha":1150,"x_min":0,"x_max":0,"o":"m 992 972 l 158 972 l 158 833 l 436 833 l 436 139 l 158 139 l 158 0 l 992 0 l 992 139 l 714 139 l 714 833 l 992 833 z "},"ı":{"ha":1150,"x_min":0,"x_max":0,"o":"m 992 972 l 158 972 l 158 833 l 436 833 l 436 139 l 158 139 l 158 0 l 992 0 l 992 139 l 714 139 l 714 833 l 992 833 z "},"Ι":{"ha":1150,"x_min":0,"x_max":0,"o":"m 992 972 l 158 972 l 158 833 l 436 833 l 436 139 l 158 139 l 158 0 l 992 0 l 992 139 l 714 139 l 714 833 l 992 833 z "},"ι":{"ha":1150,"x_min":0,"x_max":0,"o":"m 992 972 l 158 972 l 158 833 l 436 833 l 436 139 l 158 139 l 158 0 l 992 0 l 992 139 l 714 139 l 714 833 l 992 833 z "},"І":{"ha":1150,"x_min":0,"x_max":0,"o":"m 992 972 l 158 972 l 158 833 l 436 833 l 436 139 l 158 139 l 158 0 l 992 0 l 992 139 l 714 139 l 714 833 l 992 833 z "},"і":{"ha":1150,"x_min":0,"x_max":0,"o":"m 992 972 l 158 972 l 158 833 l 436 833 l 436 139 l 158 139 l 158 0 l 992 0 l 992 139 l 714 139 l 714 833 l 992 833 z "},"J":{"ha":1150,"x_min":0,"x_max":0,"o":"m 1061 972 l 783 972 l 783 139 l 367 139 l 367 278 l 89 278 l 89 139 l 228 139 l 228 0 l 922 0 l 922 139 l 1061 139 z "},"j":{"ha":1150,"x_min":0,"x_max":0,"o":"m 1061 972 l 783 972 l 783 139 l 367 139 l 367 278 l 89 278 l 89 139 l 228 139 l 228 0 l 922 0 l 922 139 l 1061 139 z "},"ȷ":{"ha":1150,"x_min":0,"x_max":0,"o":"m 1061 972 l 783 972 l 783 139 l 367 139 l 367 278 l 89 278 l 89 139 l 228 139 l 228 0 l 922 0 l 922 139 l 1061 139 z "},"Ј":{"ha":1150,"x_min":0,"x_max":0,"o":"m 1061 972 l 783 972 l 783 139 l 367 139 l 367 278 l 89 278 l 89 139 l 228 139 l 228 0 l 922 0 l 922 139 l 1061 139 z "},"ј":{"ha":1150,"x_min":0,"x_max":0,"o":"m 1061 972 l 783 972 l 783 139 l 367 139 l 367 278 l 89 278 l 89 139 l 228 139 l 228 0 l 922 0 l 922 139 l 1061 139 z "},"K":{"ha":1150,"x_min":0,"x_max":0,"o":"m 1061 139 l 922 139 l 922 278 l 783 278 l 783 417 l 644 417 l 644 556 l 783 556 l 783 694 l 922 694 l 922 833 l 1061 833 l 1061 972 l 783 972 l 783 833 l 644 833 l 644 694 l 506 694 l 506 556 l 367 556 l 367 972 l 89 972 l 89 0 l 367 0 l 367 278 l 506 278 l 506 139 l 644 139 l 644 0 l 1061 0 z "},"k":{"ha":1150,"x_min":0,"x_max":0,"o":"m 1061 139 l 922 139 l 922 278 l 783 278 l 783 417 l 644 417 l 644 556 l 783 556 l 783 694 l 922 694 l 922 833 l 1061 833 l 1061 972 l 783 972 l 783 833 l 644 833 l 644 694 l 506 694 l 506 556 l 367 556 l 367 972 l 89 972 l 89 0 l 367 0 l 367 278 l 506 278 l 506 139 l 644 139 l 644 0 l 1061 0 z "},"Κ":{"ha":1150,"x_min":0,"x_max":0,"o":"m 1061 139 l 922 139 l 922 278 l 783 278 l 783 417 l 644 417 l 644 556 l 783 556 l 783 694 l 922 694 l 922 833 l 1061 833 l 1061 972 l 783 972 l 783 833 l 644 833 l 644 694 l 506 694 l 506 556 l 367 556 l 367 972 l 89 972 l 89 0 l 367 0 l 367 278 l 506 278 l 506 139 l 644 139 l 644 0 l 1061 0 z "},"κ":{"ha":1150,"x_min":0,"x_max":0,"o":"m 1061 139 l 922 139 l 922 278 l 783 278 l 783 417 l 644 417 l 644 556 l 783 556 l 783 694 l 922 694 l 922 833 l 1061 833 l 1061 972 l 783 972 l 783 833 l 644 833 l 644 694 l 506 694 l 506 556 l 367 556 l 367 972 l 89 972 l 89 0 l 367 0 l 367 278 l 506 278 l 506 139 l 644 139 l 644 0 l 1061 0 z "},"К":{"ha":1150,"x_min":0,"x_max":0,"o":"m 1061 139 l 922 139 l 922 278 l 783 278 l 783 417 l 644 417 l 644 556 l 783 556 l 783 694 l 922 694 l 922 833 l 1061 833 l 1061 972 l 783 972 l 783 833 l 644 833 l 644 694 l 506 694 l 506 556 l 367 556 l 367 972 l 89 972 l 89 0 l 367 0 l 367 278 l 506 278 l 506 139 l 644 139 l 644 0 l 1061 0 z "},"к":{"ha":1150,"x_min":0,"x_max":0,"o":"m 1061 139 l 922 139 l 922 278 l 783 278 l 783 417 l 644 417 l 644 556 l 783 556 l 783 694 l 922 694 l 922 833 l 1061 833 l 1061 972 l 783 972 l 783 833 l 644 833 l 644 694 l 506 694 l 506 556 l 367 556 l 367 972 l 89 972 l 89 0 l 367 0 l 367 278 l 506 278 l 506 139 l 644 139 l 644 0 l 1061 0 z "},"L":{"ha":1150,"x_min":0,"x_max":0,"o":"m 1061 139 l 367 139 l 367 972 l 89 972 l 89 0 l 1061 0 z "},"l":{"ha":1150,"x_min":0,"x_max":0,"o":"m 1061 139 l 367 139 l 367 972 l 89 972 l 89 0 l 1061 0 z "},"M":{"ha":1150,"x_min":0,"x_max":0,"o":"m 1061 972 l 783 972 l 783 833 l 644 833 l 644 694 l 506 694 l 506 833 l 367 833 l 367 972 l 89 972 l 89 0 l 367 0 l 367 417 l 506 417 l 506 278 l 644 278 l 644 417 l 783 417 l 783 0 l 1061 0 z "},"m":{"ha":1150,"x_min":0,"x_max":0,"o":"m 1061 972 l 783 972 l 783 833 l 644 833 l 644 694 l 506 694 l 506 833 l 367 833 l 367 972 l 89 972 l 89 0 l 367 0 l 367 417 l 506 417 l 506 278 l 644 278 l 644 417 l 783 417 l 783 0 l 1061 0 z "},"Μ":{"ha":1150,"x_min":0,"x_max":0,"o":"m 1061 972 l 783 972 l 783 833 l 644 833 l 644 694 l 506 694 l 506 833 l 367 833 l 367 972 l 89 972 l 89 0 l 367 0 l 367 417 l 506 417 l 506 278 l 644 278 l 644 417 l 783 417 l 783 0 l 1061 0 z "},"μ":{"ha":1150,"x_min":0,"x_max":0,"o":"m 1061 972 l 783 972 l 783 833 l 644 833 l 644 694 l 506 694 l 506 833 l 367 833 l 367 972 l 89 972 l 89 0 l 367 0 l 367 417 l 506 417 l 506 278 l 644 278 l 644 417 l 783 417 l 783 0 l 1061 0 z "},"М":{"ha":1150,"x_min":0,"x_max":0,"o":"m 1061 972 l 783 972 l 783 833 l 644 833 l 644 694 l 506 694 l 506 833 l 367 833 l 367 972 l 89 972 l 89 0 l 367 0 l 367 417 l 506 417 l 506 278 l 644 278 l 644 417 l 783 417 l 783 0 l 1061 0 z "},"м":{"ha":1150,"x_min":0,"x_max":0,"o":"m 1061 972 l 783 972 l 783 833 l 644 833 l 644 694 l 506 694 l 506 833 l 367 833 l 367 972 l 89 972 l 89 0 l 367 0 l 367 417 l 506 417 l 506 278 l 644 278 l 644 417 l 783 417 l 783 0 l 1061 0 z "},"N":{"ha":1150,"x_min":0,"x_max":0,"o":"m 1061 972 l 783 972 l 783 556 l 644 556 l 644 694 l 506 694 l 506 833 l 367 833 l 367 972 l 89 972 l 89 0 l 367 0 l 367 417 l 506 417 l 506 278 l 644 278 l 644 139 l 783 139 l 783 0 l 1061 0 z "},"n":{"ha":1150,"x_min":0,"x_max":0,"o":"m 1061 972 l 783 972 l 783 556 l 644 556 l 644 694 l 506 694 l 506 833 l 367 833 l 367 972 l 89 972 l 89 0 l 367 0 l 367 417 l 506 417 l 506 278 l 644 278 l 644 139 l 783 139 l 783 0 l 1061 0 z "},"Ν":{"ha":1150,"x_min":0,"x_max":0,"o":"m 1061 972 l 783 972 l 783 556 l 644 556 l 644 694 l 506 694 l 506 833 l 367 833 l 367 972 l 89 972 l 89 0 l 367 0 l 367 417 l 506 417 l 506 278 l 644 278 l 644 139 l 783 139 l 783 0 l 1061 0 z "},"ν":{"ha":1150,"x_min":0,"x_max":0,"o":"m 1061 972 l 783 972 l 783 556 l 644 556 l 644 694 l 506 694 l 506 833 l 367 833 l 367 972 l 89 972 l 89 0 l 367 0 l 367 417 l 506 417 l 506 278 l 644 278 l 644 139 l 783 139 l 783 0 l 1061 0 z "},"O":{"ha":1150,"x_min":0,"x_max":0,"o":"m 1061 833 l 922 833 l 922 972 l 228 972 l 228 833 l 89 833 l 89 139 l 228 139 l 228 0 l 922 0 l 922 139 l 1061 139 z m 367 139 l 367 833 l 783 833 l 783 139 z "},"o":{"ha":1150,"x_min":0,"x_max":0,"o":"m 1061 833 l 922 833 l 922 972 l 228 972 l 228 833 l 89 833 l 89 139 l 228 139 l 228 0 l 922 0 l 922 139 l 1061 139 z m 367 139 l 367 833 l 783 833 l 783 139 z "},"Ο":{"ha":1150,"x_min":0,"x_max":0,"o":"m 1061 833 l 922 833 l 922 972 l 228 972 l 228 833 l 89 833 l 89 139 l 228 139 l 228 0 l 922 0 l 922 139 l 1061 139 z m 367 139 l 367 833 l 783 833 l 783 139 z "},"ο":{"ha":1150,"x_min":0,"x_max":0,"o":"m 1061 833 l 922 833 l 922 972 l 228 972 l 228 833 l 89 833 l 89 139 l 228 139 l 228 0 l 922 0 l 922 139 l 1061 139 z m 367 139 l 367 833 l 783 833 l 783 139 z "},"О":{"ha":1150,"x_min":0,"x_max":0,"o":"m 1061 833 l 922 833 l 922 972 l 228 972 l 228 833 l 89 833 l 89 139 l 228 139 l 228 0 l 922 0 l 922 139 l 1061 139 z m 367 139 l 367 833 l 783 833 l 783 139 z "},"о":{"ha":1150,"x_min":0,"x_max":0,"o":"m 1061 833 l 922 833 l 922 972 l 228 972 l 228 833 l 89 833 l 89 139 l 228 139 l 228 0 l 922 0 l 922 139 l 1061 139 z m 367 139 l 367 833 l 783 833 l 783 139 z "},"P":{"ha":1150,"x_min":0,"x_max":0,"o":"m 1061 833 l 922 833 l 922 972 l 89 972 l 89 0 l 367 0 l 367 278 l 922 278 l 922 417 l 1061 417 z m 367 417 l 367 833 l 783 833 l 783 417 z "},"p":{"ha":1150,"x_min":0,"x_max":0,"o":"m 1061 833 l 922 833 l 922 972 l 89 972 l 89 0 l 367 0 l 367 278 l 922 278 l 922 417 l 1061 417 z m 367 417 l 367 833 l 783 833 l 783 417 z "},"Ρ":{"ha":1150,"x_min":0,"x_max":0,"o":"m 1061 833 l 922 833 l 922 972 l 89 972 l 89 0 l 367 0 l 367 278 l 922 278 l 922 417 l 1061 417 z m 367 417 l 367 833 l 783 833 l 783 417 z "},"ρ":{"ha":1150,"x_min":0,"x_max":0,"o":"m 1061 833 l 922 833 l 922 972 l 89 972 l 89 0 l 367 0 l 367 278 l 922 278 l 922 417 l 1061 417 z m 367 417 l 367 833 l 783 833 l 783 417 z "},"Р":{"ha":1150,"x_min":0,"x_max":0,"o":"m 1061 833 l 922 833 l 922 972 l 89 972 l 89 0 l 367 0 l 367 278 l 922 278 l 922 417 l 1061 417 z m 367 417 l 367 833 l 783 833 l 783 417 z "},"р":{"ha":1150,"x_min":0,"x_max":0,"o":"m 1061 833 l 922 833 l 922 972 l 89 972 l 89 0 l 367 0 l 367 278 l 922 278 l 922 417 l 1061 417 z m 367 417 l 367 833 l 783 833 l 783 417 z "},"Q":{"ha":1150,"x_min":0,"x_max":0,"o":"m 1061 139 l 922 139 l 922 278 l 1061 278 l 1061 833 l 922 833 l 922 972 l 228 972 l 228 833 l 89 833 l 89 139 l 228 139 l 228 0 l 783 0 l 783 139 l 922 139 l 922 0 l 1061 0 z m 506 417 l 506 278 l 644 278 l 644 139 l 367 139 l 367 833 l 783 833 l 783 417 z "},"q":{"ha":1150,"x_min":0,"x_max":0,"o":"m 1061 139 l 922 139 l 922 278 l 1061 278 l 1061 833 l 922 833 l 922 972 l 228 972 l 228 833 l 89 833 l 89 139 l 228 139 l 228 0 l 783 0 l 783 139 l 922 139 l 922 0 l 1061 0 z m 506 417 l 506 278 l 644 278 l 644 139 l 367 139 l 367 833 l 783 833 l 783 417 z "},"R":{"ha":1150,"x_min":0,"x_max":0,"o":"m 1061 139 l 922 139 l 922 278 l 783 278 l 783 417 l 1061 417 l 1061 833 l 922 833 l 922 972 l 89 972 l 89 0 l 367 0 l 367 278 l 506 278 l 506 139 l 644 139 l 644 0 l 1061 0 z m 644 556 l 644 417 l 367 417 l 367 833 l 783 833 l 783 556 z "},"r":{"ha":1150,"x_min":0,"x_max":0,"o":"m 1061 139 l 922 139 l 922 278 l 783 278 l 783 417 l 1061 417 l 1061 833 l 922 833 l 922 972 l 89 972 l 89 0 l 367 0 l 367 278 l 506 278 l 506 139 l 644 139 l 644 0 l 1061 0 z m 644 556 l 644 417 l 367 417 l 367 833 l 783 833 l 783 556 z "},"S":{"ha":1150,"x_min":0,"x_max":0,"o":"m 1061 417 l 922 417 l 922 556 l 367 556 l 367 833 l 644 833 l 644 694 l 922 694 l 922 833 l 783 833 l 783 972 l 228 972 l 228 833 l 89 833 l 89 556 l 228 556 l 228 417 l 783 417 l 783 139 l 367 139 l 367 278 l 89 278 l 89 139 l 228 139 l 228 0 l 922 0 l 922 139 l 1061 139 z "},"s":{"ha":1150,"x_min":0,"x_max":0,"o":"m 1061 417 l 922 417 l 922 556 l 367 556 l 367 833 l 644 833 l 644 694 l 922 694 l 922 833 l 783 833 l 783 972 l 228 972 l 228 833 l 89 833 l 89 556 l 228 556 l 228 417 l 783 417 l 783 139 l 367 139 l 367 278 l 89 278 l 89 139 l 228 139 l 228 0 l 922 0 l 922 139 l 1061 139 z "},"Ѕ":{"ha":1150,"x_min":0,"x_max":0,"o":"m 1061 417 l 922 417 l 922 556 l 367 556 l 367 833 l 644 833 l 644 694 l 922 694 l 922 833 l 783 833 l 783 972 l 228 972 l 228 833 l 89 833 l 89 556 l 228 556 l 228 417 l 783 417 l 783 139 l 367 139 l 367 278 l 89 278 l 89 139 l 228 139 l 228 0 l 922 0 l 922 139 l 1061 139 z "},"ѕ":{"ha":1150,"x_min":0,"x_max":0,"o":"m 1061 417 l 922 417 l 922 556 l 367 556 l 367 833 l 644 833 l 644 694 l 922 694 l 922 833 l 783 833 l 783 972 l 228 972 l 228 833 l 89 833 l 89 556 l 228 556 l 228 417 l 783 417 l 783 139 l 367 139 l 367 278 l 89 278 l 89 139 l 228 139 l 228 0 l 922 0 l 922 139 l 1061 139 z "},"T":{"ha":1150,"x_min":0,"x_max":0,"o":"m 992 972 l 158 972 l 158 833 l 436 833 l 436 0 l 714 0 l 714 833 l 992 833 z "},"t":{"ha":1150,"x_min":0,"x_max":0,"o":"m 992 972 l 158 972 l 158 833 l 436 833 l 436 0 l 714 0 l 714 833 l 992 833 z "},"Τ":{"ha":1150,"x_min":0,"x_max":0,"o":"m 992 972 l 158 972 l 158 833 l 436 833 l 436 0 l 714 0 l 714 833 l 992 833 z "},"τ":{"ha":1150,"x_min":0,"x_max":0,"o":"m 992 972 l 158 972 l 158 833 l 436 833 l 436 0 l 714 0 l 714 833 l 992 833 z "},"Т":{"ha":1150,"x_min":0,"x_max":0,"o":"m 992 972 l 158 972 l 158 833 l 436 833 l 436 0 l 714 0 l 714 833 l 992 833 z "},"т":{"ha":1150,"x_min":0,"x_max":0,"o":"m 992 972 l 158 972 l 158 833 l 436 833 l 436 0 l 714 0 l 714 833 l 992 833 z "},"U":{"ha":1150,"x_min":0,"x_max":0,"o":"m 1061 972 l 783 972 l 783 139 l 367 139 l 367 972 l 89 972 l 89 139 l 228 139 l 228 0 l 922 0 l 922 139 l 1061 139 z "},"u":{"ha":1150,"x_min":0,"x_max":0,"o":"m 1061 972 l 783 972 l 783 139 l 367 139 l 367 972 l 89 972 l 89 139 l 228 139 l 228 0 l 922 0 l 922 139 l 1061 139 z "},"V":{"ha":1150,"x_min":0,"x_max":0,"o":"m 1061 972 l 783 972 l 783 556 l 644 556 l 644 417 l 506 417 l 506 556 l 367 556 l 367 972 l 89 972 l 89 417 l 228 417 l 228 278 l 367 278 l 367 139 l 506 139 l 506 0 l 644 0 l 644 139 l 783 139 l 783 278 l 922 278 l 922 417 l 1061 417 z "},"v":{"ha":1150,"x_min":0,"x_max":0,"o":"m 1061 972 l 783 972 l 783 556 l 644 556 l 644 417 l 506 417 l 506 556 l 367 556 l 367 972 l 89 972 l 89 417 l 228 417 l 228 278 l 367 278 l 367 139 l 506 139 l 506 0 l 644 0 l 644 139 l 783 139 l 783 278 l 922 278 l 922 417 l 1061 417 z "},"W":{"ha":1150,"x_min":0,"x_max":0,"o":"m 1061 972 l 783 972 l 783 556 l 644 556 l 644 694 l 506 694 l 506 556 l 367 556 l 367 972 l 89 972 l 89 0 l 367 0 l 367 139 l 506 139 l 506 278 l 644 278 l 644 139 l 783 139 l 783 0 l 1061 0 z "},"w":{"ha":1150,"x_min":0,"x_max":0,"o":"m 1061 972 l 783 972 l 783 556 l 644 556 l 644 694 l 506 694 l 506 556 l 367 556 l 367 972 l 89 972 l 89 0 l 367 0 l 367 139 l 506 139 l 506 278 l 644 278 l 644 139 l 783 139 l 783 0 l 1061 0 z "},"Ԝ":{"ha":1150,"x_min":0,"x_max":0,"o":"m 1061 972 l 783 972 l 783 556 l 644 556 l 644 694 l 506 694 l 506 556 l 367 556 l 367 972 l 89 972 l 89 0 l 367 0 l 367 139 l 506 139 l 506 278 l 644 278 l 644 139 l 783 139 l 783 0 l 1061 0 z "},"ԝ":{"ha":1150,"x_min":0,"x_max":0,"o":"m 1061 972 l 783 972 l 783 556 l 644 556 l 644 694 l 506 694 l 506 556 l 367 556 l 367 972 l 89 972 l 89 0 l 367 0 l 367 139 l 506 139 l 506 278 l 644 278 l 644 139 l 783 139 l 783 0 l 1061 0 z "},"X":{"ha":1150,"x_min":0,"x_max":0,"o":"m 1061 278 l 922 278 l 922 417 l 783 417 l 783 556 l 922 556 l 922 694 l 1061 694 l 1061 972 l 783 972 l 783 833 l 644 833 l 644 694 l 506 694 l 506 833 l 367 833 l 367 972 l 89 972 l 89 694 l 228 694 l 228 556 l 367 556 l 367 417 l 228 417 l 228 278 l 89 278 l 89 0 l 367 0 l 367 139 l 506 139 l 506 278 l 644 278 l 644 139 l 783 139 l 783 0 l 1061 0 z "},"x":{"ha":1150,"x_min":0,"x_max":0,"o":"m 1061 278 l 922 278 l 922 417 l 783 417 l 783 556 l 922 556 l 922 694 l 1061 694 l 1061 972 l 783 972 l 783 833 l 644 833 l 644 694 l 506 694 l 506 833 l 367 833 l 367 972 l 89 972 l 89 694 l 228 694 l 228 556 l 367 556 l 367 417 l 228 417 l 228 278 l 89 278 l 89 0 l 367 0 l 367 139 l 506 139 l 506 278 l 644 278 l 644 139 l 783 139 l 783 0 l 1061 0 z "},"Χ":{"ha":1150,"x_min":0,"x_max":0,"o":"m 1061 278 l 922 278 l 922 417 l 783 417 l 783 556 l 922 556 l 922 694 l 1061 694 l 1061 972 l 783 972 l 783 833 l 644 833 l 644 694 l 506 694 l 506 833 l 367 833 l 367 972 l 89 972 l 89 694 l 228 694 l 228 556 l 367 556 l 367 417 l 228 417 l 228 278 l 89 278 l 89 0 l 367 0 l 367 139 l 506 139 l 506 278 l 644 278 l 644 139 l 783 139 l 783 0 l 1061 0 z "},"χ":{"ha":1150,"x_min":0,"x_max":0,"o":"m 1061 278 l 922 278 l 922 417 l 783 417 l 783 556 l 922 556 l 922 694 l 1061 694 l 1061 972 l 783 972 l 783 833 l 644 833 l 644 694 l 506 694 l 506 833 l 367 833 l 367 972 l 89 972 l 89 694 l 228 694 l 228 556 l 367 556 l 367 417 l 228 417 l 228 278 l 89 278 l 89 0 l 367 0 l 367 139 l 506 139 l 506 278 l 644 278 l 644 139 l 783 139 l 783 0 l 1061 0 z "},"Х":{"ha":1150,"x_min":0,"x_max":0,"o":"m 1061 278 l 922 278 l 922 417 l 783 417 l 783 556 l 922 556 l 922 694 l 1061 694 l 1061 972 l 783 972 l 783 833 l 644 833 l 644 694 l 506 694 l 506 833 l 367 833 l 367 972 l 89 972 l 89 694 l 228 694 l 228 556 l 367 556 l 367 417 l 228 417 l 228 278 l 89 278 l 89 0 l 367 0 l 367 139 l 506 139 l 506 278 l 644 278 l 644 139 l 783 139 l 783 0 l 1061 0 z "},"х":{"ha":1150,"x_min":0,"x_max":0,"o":"m 1061 278 l 922 278 l 922 417 l 783 417 l 783 556 l 922 556 l 922 694 l 1061 694 l 1061 972 l 783 972 l 783 833 l 644 833 l 644 694 l 506 694 l 506 833 l 367 833 l 367 972 l 89 972 l 89 694 l 228 694 l 228 556 l 367 556 l 367 417 l 228 417 l 228 278 l 89 278 l 89 0 l 367 0 l 367 139 l 506 139 l 506 278 l 644 278 l 644 139 l 783 139 l 783 0 l 1061 0 z "},"Y":{"ha":1150,"x_min":0,"x_max":0,"o":"m 992 972 l 714 972 l 714 556 l 436 556 l 436 972 l 158 972 l 158 556 l 296 556 l 296 417 l 436 417 l 436 0 l 714 0 l 714 417 l 853 417 l 853 556 l 992 556 z "},"y":{"ha":1150,"x_min":0,"x_max":0,"o":"m 992 972 l 714 972 l 714 556 l 436 556 l 436 972 l 158 972 l 158 556 l 296 556 l 296 417 l 436 417 l 436 0 l 714 0 l 714 417 l 853 417 l 853 556 l 992 556 z "},"Υ":{"ha":1150,"x_min":0,"x_max":0,"o":"m 992 972 l 714 972 l 714 556 l 436 556 l 436 972 l 158 972 l 158 556 l 296 556 l 296 417 l 436 417 l 436 0 l 714 0 l 714 417 l 853 417 l 853 556 l 992 556 z "},"υ":{"ha":1150,"x_min":0,"x_max":0,"o":"m 992 972 l 714 972 l 714 556 l 436 556 l 436 972 l 158 972 l 158 556 l 296 556 l 296 417 l 436 417 l 436 0 l 714 0 l 714 417 l 853 417 l 853 556 l 992 556 z "},"Ү":{"ha":1150,"x_min":0,"x_max":0,"o":"m 992 972 l 714 972 l 714 556 l 436 556 l 436 972 l 158 972 l 158 556 l 296 556 l 296 417 l 436 417 l 436 0 l 714 0 l 714 417 l 853 417 l 853 556 l 992 556 z "},"ү":{"ha":1150,"x_min":0,"x_max":0,"o":"m 992 972 l 714 972 l 714 556 l 436 556 l 436 972 l 158 972 l 158 556 l 296 556 l 296 417 l 436 417 l 436 0 l 714 0 l 714 417 l 853 417 l 853 556 l 992 556 z "},"Z":{"ha":1150,"x_min":0,"x_max":0,"o":"m 1061 139 l 506 139 l 506 278 l 644 278 l 644 417 l 783 417 l 783 556 l 922 556 l 922 694 l 1061 694 l 1061 972 l 89 972 l 89 833 l 644 833 l 644 694 l 506 694 l 506 556 l 367 556 l 367 417 l 228 417 l 228 278 l 89 278 l 89 0 l 1061 0 z "},"z":{"ha":1150,"x_min":0,"x_max":0,"o":"m 1061 139 l 506 139 l 506 278 l 644 278 l 644 417 l 783 417 l 783 556 l 922 556 l 922 694 l 1061 694 l 1061 972 l 89 972 l 89 833 l 644 833 l 644 694 l 506 694 l 506 556 l 367 556 l 367 417 l 228 417 l 228 278 l 89 278 l 89 0 l 1061 0 z "},"Ζ":{"ha":1150,"x_min":0,"x_max":0,"o":"m 1061 139 l 506 139 l 506 278 l 644 278 l 644 417 l 783 417 l 783 556 l 922 556 l 922 694 l 1061 694 l 1061 972 l 89 972 l 89 833 l 644 833 l 644 694 l 506 694 l 506 556 l 367 556 l 367 417 l 228 417 l 228 278 l 89 278 l 89 0 l 1061 0 z "},"ζ":{"ha":1150,"x_min":0,"x_max":0,"o":"m 1061 139 l 506 139 l 506 278 l 644 278 l 644 417 l 783 417 l 783 556 l 922 556 l 922 694 l 1061 694 l 1061 972 l 89 972 l 89 833 l 644 833 l 644 694 l 506 694 l 506 556 l 367 556 l 367 417 l 228 417 l 228 278 l 89 278 l 89 0 l 1061 0 z "},"[":{"ha":1150,"x_min":0,"x_max":0,"o":"m 922 0 l 644 0 l 644 972 l 922 972 l 922 1111 l 367 1111 l 367 -139 l 922 -139 z "},"\\":{"ha":1150,"x_min":0,"x_max":0,"o":"m 1061 139 l 922 139 l 922 278 l 783 278 l 783 417 l 644 417 l 644 556 l 506 556 l 506 694 l 367 694 l 367 833 l 228 833 l 228 972 l 89 972 l 89 833 l 228 833 l 228 694 l 367 694 l 367 556 l 506 556 l 506 417 l 644 417 l 644 278 l 783 278 l 783 139 l 922 139 l 922 0 l 1061 0 z "},"]":{"ha":1150,"x_min":0,"x_max":0,"o":"m 228 -139 l 783 -139 l 783 1111 l 228 1111 l 228 972 l 506 972 l 506 0 l 228 0 z "},"^":{"ha":1150,"x_min":0,"x_max":0,"o":"m 922 694 l 783 694 l 783 833 l 644 833 l 644 972 l 506 972 l 506 833 l 367 833 l 367 694 l 228 694 l 228 556 l 506 556 l 506 694 l 644 694 l 644 556 l 922 556 z "},"_":{"ha":1150,"x_min":0,"x_max":0,"o":"m 1061 0 l 89 0 l 89 -139 l 1061 -139 z "},"`":{"ha":1150,"x_min":0,"x_max":0,"o":"m 783 1111 l 783 1250 l 644 1250 l 644 1389 l 367 1389 l 367 1250 l 506 1250 l 506 1111 z "},"{":{"ha":1150,"x_min":0,"x_max":0,"o":"m 644 556 l 783 556 l 783 972 l 922 972 l 922 1111 l 644 1111 l 644 972 l 506 972 l 506 556 l 367 556 l 367 417 l 506 417 l 506 0 l 644 0 l 644 -139 l 922 -139 l 922 0 l 783 0 l 783 417 l 644 417 z "},"|":{"ha":1150,"x_min":0,"x_max":0,"o":"m 436 -139 l 714 -139 l 714 1111 l 436 1111 z "},"}":{"ha":1150,"x_min":0,"x_max":0,"o":"m 506 417 l 367 417 l 367 0 l 228 0 l 228 -139 l 506 -139 l 506 0 l 644 0 l 644 417 l 783 417 l 783 556 l 644 556 l 644 972 l 506 972 l 506 1111 l 228 1111 l 228 972 l 367 972 l 367 556 l 506 556 z "},"~":{"ha":1150,"x_min":0,"x_max":0,"o":"m 992 556 l 853 556 l 853 417 l 992 417 z m 853 417 l 575 417 l 575 556 l 297 556 l 297 417 l 575 417 l 575 279 l 853 279 z m 297 417 l 158 417 l 158 279 l 297 279 z "}," ":{"ha":1150,"x_min":0,"x_max":0,"o":""},"¡":{"ha":1150,"x_min":0,"x_max":0,"o":"m 228 0 l 644 0 l 644 278 l 783 278 l 783 694 l 644 694 l 644 556 l 506 556 l 506 417 l 367 417 l 367 278 l 228 278 z m 783 833 l 922 833 l 922 972 l 783 972 z "},"¢":{"ha":1150,"x_min":0,"x_max":0,"o":"m 731 972 l 592 972 l 592 833 l 314 833 l 314 694 l 175 694 l 175 278 l 314 278 l 314 139 l 592 139 l 592 0 l 731 0 l 731 139 l 974 139 l 974 278 l 731 278 l 731 694 l 974 694 l 974 833 l 731 833 z m 453 694 l 592 694 l 592 278 l 453 278 z "},"£":{"ha":1150,"x_min":0,"x_max":0,"o":"m 89 139 l 89 0 l 1061 0 l 1061 139 l 506 139 l 506 417 l 783 417 l 783 556 l 506 556 l 506 833 l 783 833 l 783 696 l 1061 696 l 1061 833 l 922 833 l 922 972 l 367 972 l 367 833 l 228 833 l 228 556 l 89 556 l 89 417 l 228 417 l 228 139 z "},"¤":{"ha":1150,"x_min":0,"x_max":0,"o":"m 228 142 l 367 142 l 367 278 l 783 278 l 783 142 l 922 142 l 922 417 l 783 417 l 783 556 l 922 556 l 922 833 l 783 833 l 783 694 l 367 694 l 367 833 l 228 833 l 228 556 l 367 556 l 367 417 l 228 417 z m 506 417 l 506 556 l 644 556 l 644 417 z "},"¥":{"ha":1150,"x_min":0,"x_max":0,"o":"m 714 139 l 992 139 l 992 278 l 714 278 l 714 417 l 853 417 l 853 556 l 992 556 l 992 972 l 714 972 l 714 556 l 435 556 l 435 972 l 158 972 l 158 556 l 297 556 l 297 417 l 436 417 l 436 278 l 158 278 l 158 139 l 436 139 l 436 0 l 714 0 z "},"¦":{"ha":1150,"x_min":0,"x_max":0,"o":"m 714 1111 l 436 1111 l 436 615 l 714 615 z m 436 -139 l 714 -139 l 714 356 l 436 356 z "},"§":{"ha":1150,"x_min":0,"x_max":0,"o":"m 1061 139 l 922 139 l 922 278 l 1061 278 l 1061 417 l 922 417 l 922 556 l 367 556 l 367 833 l 783 833 l 783 694 l 1061 694 l 1061 833 l 922 833 l 922 972 l 228 972 l 228 833 l 89 833 l 89 556 l 228 556 l 228 417 l 89 417 l 89 278 l 228 278 l 228 139 l 783 139 l 783 -139 l 367 -139 l 367 0 l 89 0 l 89 -139 l 228 -139 l 228 -278 l 922 -278 l 922 -139 l 1061 -139 z m 367 278 l 367 417 l 783 417 l 783 278 z "},"¨":{"ha":1150,"x_min":0,"x_max":0,"o":"m 644 1389 l 644 1111 l 922 1111 l 922 1389 z m 228 1111 l 506 1111 l 506 1389 l 228 1389 z "},"©":{"ha":1150,"x_min":0,"x_max":0,"o":"m 1061 833 l 922 833 l 922 972 l 228 972 l 228 833 l 922 833 l 922 139 l 1061 139 z m 783 278 l 783 417 l 506 417 l 506 556 l 783 556 l 783 694 l 367 694 l 367 278 z m 228 139 l 228 833 l 89 833 l 89 139 z m 228 0 l 922 0 l 922 139 l 228 139 z "},"ª":{"ha":1150,"x_min":0,"x_max":0,"o":"m 436 694 l 436 833 l 297 833 l 297 417 l 436 417 l 436 556 l 714 556 l 714 417 l 853 417 l 853 833 l 714 833 l 714 972 l 436 972 l 436 833 l 714 833 l 714 694 z "},"«":{"ha":1150,"x_min":0,"x_max":0,"o":"m 367 417 l 506 417 l 506 278 l 644 278 l 644 139 l 783 139 l 783 0 l 1061 0 l 1061 139 l 922 139 l 922 278 l 783 278 l 783 417 l 922 417 l 922 556 l 1061 556 l 1061 694 l 783 694 l 783 556 l 644 556 l 644 694 l 367 694 l 367 556 l 228 556 l 228 417 l 89 417 l 89 278 l 228 278 l 228 139 l 367 139 l 367 0 l 644 0 l 644 139 l 506 139 l 506 278 l 367 278 z m 506 556 l 644 556 l 644 417 l 506 417 z "},"¬":{"ha":1150,"x_min":0,"x_max":0,"o":"m 992 556 l 158 556 l 158 417 l 714 417 l 714 0 l 992 0 z "},"®":{"ha":1150,"x_min":0,"x_max":0,"o":"m 1061 833 l 922 833 l 922 972 l 228 972 l 228 833 l 922 833 l 922 139 l 1061 139 z m 228 139 l 228 833 l 89 833 l 89 139 z m 228 0 l 922 0 l 922 139 l 228 139 z m 453 533 l 453 640 l 697 640 l 697 533 l 804 533 l 804 746 l 346 746 l 346 214 l 453 214 l 453 425 l 697 425 l 697 214 l 804 214 l 804 425 l 697 425 l 697 533 z "},"¯":{"ha":1150,"x_min":0,"x_max":0,"o":"m 783 1111 l 783 1250 l 367 1250 l 367 1111 z "},"°":{"ha":1150,"x_min":0,"x_max":0,"o":"m 365 694 l 365 556 l 782 556 l 782 694 l 921 694 l 921 972 l 782 972 l 782 1111 l 365 1111 l 365 972 l 228 972 l 228 694 z m 643 972 l 643 694 l 504 694 l 504 972 z "},"±":{"ha":1150,"x_min":0,"x_max":0,"o":"m 992 556 l 714 556 l 714 833 l 436 833 l 436 556 l 158 556 l 158 417 l 436 417 l 436 142 l 714 142 l 714 417 l 992 417 z m 992 0 l 158 0 l 158 -139 l 992 -139 z "},"²":{"ha":1150,"x_min":0,"x_max":0,"o":"m 228 417 l 922 417 l 922 556 l 367 556 l 367 694 l 228 694 z m 783 833 l 922 833 l 922 972 l 783 972 l 783 1111 l 228 1111 l 228 972 l 783 972 z m 367 694 l 783 694 l 783 833 l 367 833 z "},"³":{"ha":1150,"x_min":0,"x_max":0,"o":"m 228 972 l 783 972 l 783 833 l 922 833 l 922 1111 l 228 1111 z m 228 417 l 783 417 l 783 556 l 228 556 z m 783 556 l 922 556 l 922 694 l 783 694 l 783 833 l 506 833 l 506 694 l 783 694 z "},"´":{"ha":1150,"x_min":0,"x_max":0,"o":"m 644 1111 l 644 1250 l 783 1250 l 783 1389 l 506 1389 l 506 1250 l 367 1250 l 367 1111 z "},"ʹ":{"ha":1150,"x_min":0,"x_max":0,"o":"m 644 1111 l 644 1250 l 783 1250 l 783 1389 l 506 1389 l 506 1250 l 367 1250 l 367 1111 z "},"µ":{"ha":1150,"x_min":0,"x_max":0,"o":"m 367 139 l 367 694 l 89 694 l 89 -278 l 367 -278 l 367 0 l 644 0 l 644 139 z m 922 694 l 644 694 l 644 139 l 783 139 l 783 0 l 1061 0 l 1061 139 l 922 139 z "},"¶":{"ha":1150,"x_min":0,"x_max":0,"o":"m 228 972 l 228 833 l 89 833 l 89 556 l 228 556 l 228 417 l 506 417 l 506 -276 l 644 -276 l 644 833 l 922 833 l 922 -276 l 1061 -276 l 1061 972 z "},"·":{"ha":1150,"x_min":0,"x_max":0,"o":"m 714 622 l 436 622 l 436 344 l 714 344 z "},"⋅":{"ha":1150,"x_min":0,"x_max":0,"o":"m 714 622 l 436 622 l 436 344 l 714 344 z "},"¸":{"ha":1150,"x_min":0,"x_max":0,"o":"m 644 -278 l 644 -139 l 783 -139 l 783 0 l 506 0 l 506 -139 l 367 -139 l 367 -278 z "},"¹":{"ha":1150,"x_min":0,"x_max":0,"o":"m 228 417 l 922 417 l 922 556 l 644 556 l 644 1111 l 506 1111 l 506 972 l 228 972 l 228 833 l 506 833 l 506 556 l 228 556 z "},"º":{"ha":1150,"x_min":0,"x_max":0,"o":"m 853 833 l 714 833 l 714 972 l 436 972 l 436 833 l 714 833 l 714 556 l 853 556 z m 436 556 l 436 417 l 714 417 l 714 556 z m 436 833 l 297 833 l 297 556 l 436 556 z "},"»":{"ha":1150,"x_min":0,"x_max":0,"o":"m 89 139 l 89 0 l 367 0 l 367 139 l 506 139 l 506 0 l 783 0 l 783 139 l 922 139 l 922 278 l 1061 278 l 1061 417 l 922 417 l 922 556 l 783 556 l 783 694 l 506 694 l 506 556 l 644 556 l 644 417 l 783 417 l 783 278 l 644 278 l 644 417 l 506 417 l 506 556 l 367 556 l 367 694 l 89 694 l 89 556 l 228 556 l 228 417 l 367 417 l 367 278 l 228 278 l 228 139 z m 506 278 l 644 278 l 644 139 l 506 139 z "},"¼":{"ha":1150,"x_min":0,"x_max":0,"o":"m 89 556 l 506 556 l 506 694 l 367 694 l 367 1111 l 228 1111 l 228 972 l 89 972 l 89 833 l 228 833 l 228 694 l 89 694 z m 1061 972 l 922 972 l 922 833 l 1061 833 z m 922 833 l 783 833 l 783 694 l 922 694 z m 783 694 l 644 694 l 644 556 l 783 556 z m 644 556 l 506 556 l 506 417 l 644 417 z m 506 417 l 367 417 l 367 278 l 506 278 z m 367 278 l 228 278 l 228 139 l 367 139 z m 228 139 l 89 139 l 89 0 l 228 0 z m 783 278 l 922 278 l 922 139 l 783 139 l 783 278 l 644 278 l 644 0 l 922 0 l 922 -139 l 1061 -139 l 1061 556 l 922 556 l 922 417 l 783 417 z "},"½":{"ha":1150,"x_min":0,"x_max":0,"o":"m 922 139 l 1061 139 l 1061 278 l 922 278 l 922 417 l 644 417 l 644 556 l 506 556 l 506 694 l 367 694 l 367 1111 l 228 1111 l 228 972 l 89 972 l 89 833 l 228 833 l 228 694 l 89 694 l 89 556 l 506 556 l 506 417 l 644 417 l 644 278 l 922 278 z m 644 -139 l 1061 -139 l 1061 0 l 922 0 l 922 139 l 783 139 l 783 0 l 644 0 z m 228 139 l 89 139 l 89 0 l 228 0 z m 367 278 l 228 278 l 228 139 l 367 139 z m 506 417 l 367 417 l 367 278 l 506 278 z m 1061 972 l 922 972 l 922 833 l 1061 833 z m 922 833 l 783 833 l 783 694 l 922 694 z m 783 694 l 644 694 l 644 556 l 783 556 z "},"¾":{"ha":1150,"x_min":0,"x_max":0,"o":"m 89 972 l 367 972 l 367 833 l 506 833 l 506 1111 l 89 1111 z m 89 417 l 367 417 l 367 556 l 89 556 z m 367 556 l 506 556 l 506 694 l 367 694 l 367 833 l 228 833 l 228 694 l 367 694 z m 1061 972 l 922 972 l 922 833 l 1061 833 z m 922 833 l 783 833 l 783 694 l 922 694 z m 783 694 l 644 694 l 644 556 l 783 556 z m 644 556 l 506 556 l 506 417 l 644 417 z m 506 417 l 367 417 l 367 278 l 506 278 z m 367 278 l 228 278 l 228 139 l 367 139 z m 228 139 l 89 139 l 89 0 l 228 0 z m 783 278 l 922 278 l 922 139 l 783 139 l 783 278 l 644 278 l 644 0 l 922 0 l 922 -139 l 1061 -139 l 1061 556 l 922 556 l 922 417 l 783 417 z "},"¿":{"ha":1150,"x_min":0,"x_max":0,"o":"m 89 139 l 228 139 l 228 0 l 922 0 l 922 139 l 1061 139 l 1061 278 l 783 278 l 783 139 l 367 139 l 367 278 l 506 278 l 506 417 l 644 417 l 644 694 l 506 694 l 506 556 l 367 556 l 367 417 l 89 417 z m 506 833 l 644 833 l 644 972 l 506 972 z "},"À":{"ha":1150,"x_min":0,"x_max":0,"o":"m 1061 694 l 922 694 l 922 833 l 783 833 l 783 972 l 367 972 l 367 833 l 228 833 l 228 694 l 89 694 l 89 0 l 367 0 l 367 278 l 783 278 l 783 0 l 1061 0 z m 367 417 l 367 694 l 506 694 l 506 833 l 644 833 l 644 694 l 783 694 l 783 417 z m 697 1111 l 697 1250 l 558 1250 l 558 1389 l 281 1389 l 281 1250 l 419 1250 l 419 1111 z "},"à":{"ha":1150,"x_min":0,"x_max":0,"o":"m 1061 694 l 922 694 l 922 833 l 783 833 l 783 972 l 367 972 l 367 833 l 228 833 l 228 694 l 89 694 l 89 0 l 367 0 l 367 278 l 783 278 l 783 0 l 1061 0 z m 367 417 l 367 694 l 506 694 l 506 833 l 644 833 l 644 694 l 783 694 l 783 417 z m 697 1111 l 697 1250 l 558 1250 l 558 1389 l 281 1389 l 281 1250 l 419 1250 l 419 1111 z "},"Á":{"ha":1150,"x_min":0,"x_max":0,"o":"m 1061 694 l 922 694 l 922 833 l 783 833 l 783 972 l 367 972 l 367 833 l 228 833 l 228 694 l 89 694 l 89 0 l 367 0 l 367 278 l 783 278 l 783 0 l 1061 0 z m 367 417 l 367 694 l 506 694 l 506 833 l 644 833 l 644 694 l 783 694 l 783 417 z m 697 1111 l 697 1250 l 836 1250 l 836 1389 l 558 1389 l 558 1250 l 419 1250 l 419 1111 z "},"á":{"ha":1150,"x_min":0,"x_max":0,"o":"m 1061 694 l 922 694 l 922 833 l 783 833 l 783 972 l 367 972 l 367 833 l 228 833 l 228 694 l 89 694 l 89 0 l 367 0 l 367 278 l 783 278 l 783 0 l 1061 0 z m 367 417 l 367 694 l 506 694 l 506 833 l 644 833 l 644 694 l 783 694 l 783 417 z m 697 1111 l 697 1250 l 836 1250 l 836 1389 l 558 1389 l 558 1250 l 419 1250 l 419 1111 z "},"":{"ha":1150,"x_min":0,"x_max":0,"o":"m 1061 694 l 922 694 l 922 833 l 783 833 l 783 972 l 367 972 l 367 833 l 228 833 l 228 694 l 89 694 l 89 0 l 367 0 l 367 278 l 783 278 l 783 0 l 1061 0 z m 367 417 l 367 694 l 506 694 l 506 833 l 644 833 l 644 694 l 783 694 l 783 417 z m 697 1111 l 697 1250 l 836 1250 l 836 1389 l 558 1389 l 558 1250 l 419 1250 l 419 1111 z "},"":{"ha":1150,"x_min":0,"x_max":0,"o":"m 1061 694 l 922 694 l 922 833 l 783 833 l 783 972 l 367 972 l 367 833 l 228 833 l 228 694 l 89 694 l 89 0 l 367 0 l 367 278 l 783 278 l 783 0 l 1061 0 z m 367 417 l 367 694 l 506 694 l 506 833 l 644 833 l 644 694 l 783 694 l 783 417 z m 697 1111 l 697 1250 l 836 1250 l 836 1389 l 558 1389 l 558 1250 l 419 1250 l 419 1111 z "},"Â":{"ha":1150,"x_min":0,"x_max":0,"o":"m 1061 694 l 922 694 l 922 833 l 783 833 l 783 972 l 367 972 l 367 833 l 228 833 l 228 694 l 89 694 l 89 0 l 367 0 l 367 278 l 783 278 l 783 0 l 1061 0 z m 367 417 l 367 694 l 506 694 l 506 833 l 644 833 l 644 694 l 783 694 l 783 417 z m 506 1111 l 506 1250 l 644 1250 l 644 1111 l 922 1111 l 922 1250 l 783 1250 l 783 1389 l 367 1389 l 367 1250 l 228 1250 l 228 1111 z "},"â":{"ha":1150,"x_min":0,"x_max":0,"o":"m 1061 694 l 922 694 l 922 833 l 783 833 l 783 972 l 367 972 l 367 833 l 228 833 l 228 694 l 89 694 l 89 0 l 367 0 l 367 278 l 783 278 l 783 0 l 1061 0 z m 367 417 l 367 694 l 506 694 l 506 833 l 644 833 l 644 694 l 783 694 l 783 417 z m 506 1111 l 506 1250 l 644 1250 l 644 1111 l 922 1111 l 922 1250 l 783 1250 l 783 1389 l 367 1389 l 367 1250 l 228 1250 l 228 1111 z "},"Ã":{"ha":1150,"x_min":0,"x_max":0,"o":"m 1061 694 l 922 694 l 922 833 l 783 833 l 783 972 l 367 972 l 367 833 l 228 833 l 228 694 l 89 694 l 89 0 l 367 0 l 367 278 l 783 278 l 783 0 l 1061 0 z m 367 417 l 367 694 l 506 694 l 506 833 l 644 833 l 644 694 l 783 694 l 783 417 z m 433 1111 l 433 1250 l 572 1250 l 572 1389 l 433 1389 l 433 1250 l 294 1250 l 294 1111 z m 711 1111 l 711 1250 l 850 1250 l 850 1389 l 711 1389 l 711 1250 l 572 1250 l 572 1111 z "},"ã":{"ha":1150,"x_min":0,"x_max":0,"o":"m 1061 694 l 922 694 l 922 833 l 783 833 l 783 972 l 367 972 l 367 833 l 228 833 l 228 694 l 89 694 l 89 0 l 367 0 l 367 278 l 783 278 l 783 0 l 1061 0 z m 367 417 l 367 694 l 506 694 l 506 833 l 644 833 l 644 694 l 783 694 l 783 417 z m 433 1111 l 433 1250 l 572 1250 l 572 1389 l 433 1389 l 433 1250 l 294 1250 l 294 1111 z m 711 1111 l 711 1250 l 850 1250 l 850 1389 l 711 1389 l 711 1250 l 572 1250 l 572 1111 z "},"Ä":{"ha":1150,"x_min":0,"x_max":0,"o":"m 1061 694 l 922 694 l 922 833 l 783 833 l 783 972 l 367 972 l 367 833 l 228 833 l 228 694 l 89 694 l 89 0 l 367 0 l 367 278 l 783 278 l 783 0 l 1061 0 z m 367 417 l 367 694 l 506 694 l 506 833 l 644 833 l 644 694 l 783 694 l 783 417 z m 643 1389 l 643 1111 l 921 1111 l 921 1389 z m 226 1111 l 504 1111 l 504 1389 l 226 1389 z "},"ä":{"ha":1150,"x_min":0,"x_max":0,"o":"m 1061 694 l 922 694 l 922 833 l 783 833 l 783 972 l 367 972 l 367 833 l 228 833 l 228 694 l 89 694 l 89 0 l 367 0 l 367 278 l 783 278 l 783 0 l 1061 0 z m 367 417 l 367 694 l 506 694 l 506 833 l 644 833 l 644 694 l 783 694 l 783 417 z m 643 1389 l 643 1111 l 921 1111 l 921 1389 z m 226 1111 l 504 1111 l 504 1389 l 226 1389 z "},"Ӓ":{"ha":1150,"x_min":0,"x_max":0,"o":"m 1061 694 l 922 694 l 922 833 l 783 833 l 783 972 l 367 972 l 367 833 l 228 833 l 228 694 l 89 694 l 89 0 l 367 0 l 367 278 l 783 278 l 783 0 l 1061 0 z m 367 417 l 367 694 l 506 694 l 506 833 l 644 833 l 644 694 l 783 694 l 783 417 z m 643 1389 l 643 1111 l 921 1111 l 921 1389 z m 226 1111 l 504 1111 l 504 1389 l 226 1389 z "},"ӓ":{"ha":1150,"x_min":0,"x_max":0,"o":"m 1061 694 l 922 694 l 922 833 l 783 833 l 783 972 l 367 972 l 367 833 l 228 833 l 228 694 l 89 694 l 89 0 l 367 0 l 367 278 l 783 278 l 783 0 l 1061 0 z m 367 417 l 367 694 l 506 694 l 506 833 l 644 833 l 644 694 l 783 694 l 783 417 z m 643 1389 l 643 1111 l 921 1111 l 921 1389 z m 226 1111 l 504 1111 l 504 1389 l 226 1389 z "},"Å":{"ha":1150,"x_min":0,"x_max":0,"o":"m 783 1389 l 367 1389 l 367 833 l 228 833 l 228 694 l 89 694 l 89 0 l 367 0 l 367 278 l 783 278 l 783 0 l 1061 0 l 1061 694 l 922 694 l 922 833 l 783 833 z m 367 417 l 367 694 l 506 694 l 506 833 l 644 833 l 644 694 l 783 694 l 783 417 z m 506 1111 l 506 1250 l 644 1250 l 644 1111 z "},"å":{"ha":1150,"x_min":0,"x_max":0,"o":"m 783 1389 l 367 1389 l 367 833 l 228 833 l 228 694 l 89 694 l 89 0 l 367 0 l 367 278 l 783 278 l 783 0 l 1061 0 l 1061 694 l 922 694 l 922 833 l 783 833 z m 367 417 l 367 694 l 506 694 l 506 833 l 644 833 l 644 694 l 783 694 l 783 417 z m 506 1111 l 506 1250 l 644 1250 l 644 1111 z "},"Æ":{"ha":1150,"x_min":0,"x_max":0,"o":"m 1131 142 l 853 142 l 853 417 l 1129 417 l 1129 556 l 853 556 l 853 833 l 1131 833 l 1131 972 l 296 972 l 296 833 l 158 833 l 158 694 l 19 694 l 19 0 l 297 0 l 297 278 l 575 278 l 575 0 l 1131 0 z m 297 417 l 297 694 l 436 694 l 436 833 l 575 833 l 575 417 z "},"æ":{"ha":1150,"x_min":0,"x_max":0,"o":"m 1131 142 l 853 142 l 853 417 l 1129 417 l 1129 556 l 853 556 l 853 833 l 1131 833 l 1131 972 l 296 972 l 296 833 l 158 833 l 158 694 l 19 694 l 19 0 l 297 0 l 297 278 l 575 278 l 575 0 l 1131 0 z m 297 417 l 297 694 l 436 694 l 436 833 l 575 833 l 575 417 z "},"Ӕ":{"ha":1150,"x_min":0,"x_max":0,"o":"m 1131 142 l 853 142 l 853 417 l 1129 417 l 1129 556 l 853 556 l 853 833 l 1131 833 l 1131 972 l 296 972 l 296 833 l 158 833 l 158 694 l 19 694 l 19 0 l 297 0 l 297 278 l 575 278 l 575 0 l 1131 0 z m 297 417 l 297 694 l 436 694 l 436 833 l 575 833 l 575 417 z "},"ӕ":{"ha":1150,"x_min":0,"x_max":0,"o":"m 1131 142 l 853 142 l 853 417 l 1129 417 l 1129 556 l 853 556 l 853 833 l 1131 833 l 1131 972 l 296 972 l 296 833 l 158 833 l 158 694 l 19 694 l 19 0 l 297 0 l 297 278 l 575 278 l 575 0 l 1131 0 z m 297 417 l 297 694 l 436 694 l 436 833 l 575 833 l 575 417 z "},"Ç":{"ha":1150,"x_min":0,"x_max":0,"o":"m 644 -278 l 644 -139 l 783 -139 l 783 0 l 922 0 l 922 139 l 1061 139 l 1061 278 l 783 278 l 783 139 l 506 139 l 506 278 l 367 278 l 367 694 l 506 694 l 506 833 l 783 833 l 783 694 l 1061 694 l 1061 833 l 922 833 l 922 972 l 367 972 l 367 833 l 228 833 l 228 694 l 89 694 l 89 278 l 228 278 l 228 139 l 367 139 l 367 0 l 506 0 l 506 -139 l 367 -139 l 367 -278 z "},"ç":{"ha":1150,"x_min":0,"x_max":0,"o":"m 644 -278 l 644 -139 l 783 -139 l 783 0 l 922 0 l 922 139 l 1061 139 l 1061 278 l 783 278 l 783 139 l 506 139 l 506 278 l 367 278 l 367 694 l 506 694 l 506 833 l 783 833 l 783 694 l 1061 694 l 1061 833 l 922 833 l 922 972 l 367 972 l 367 833 l 228 833 l 228 694 l 89 694 l 89 278 l 228 278 l 228 139 l 367 139 l 367 0 l 506 0 l 506 -139 l 367 -139 l 367 -278 z "},"È":{"ha":1150,"x_min":0,"x_max":0,"o":"m 1061 139 l 367 139 l 367 417 l 922 417 l 922 556 l 367 556 l 367 833 l 1061 833 l 1061 972 l 89 972 l 89 0 l 1061 0 z m 742 1111 l 742 1250 l 603 1250 l 603 1389 l 325 1389 l 325 1250 l 464 1250 l 464 1111 z "},"è":{"ha":1150,"x_min":0,"x_max":0,"o":"m 1061 139 l 367 139 l 367 417 l 922 417 l 922 556 l 367 556 l 367 833 l 1061 833 l 1061 972 l 89 972 l 89 0 l 1061 0 z m 742 1111 l 742 1250 l 603 1250 l 603 1389 l 325 1389 l 325 1250 l 464 1250 l 464 1111 z "},"Ѐ":{"ha":1150,"x_min":0,"x_max":0,"o":"m 1061 139 l 367 139 l 367 417 l 922 417 l 922 556 l 367 556 l 367 833 l 1061 833 l 1061 972 l 89 972 l 89 0 l 1061 0 z m 742 1111 l 742 1250 l 603 1250 l 603 1389 l 325 1389 l 325 1250 l 464 1250 l 464 1111 z "},"ѐ":{"ha":1150,"x_min":0,"x_max":0,"o":"m 1061 139 l 367 139 l 367 417 l 922 417 l 922 556 l 367 556 l 367 833 l 1061 833 l 1061 972 l 89 972 l 89 0 l 1061 0 z m 742 1111 l 742 1250 l 603 1250 l 603 1389 l 325 1389 l 325 1250 l 464 1250 l 464 1111 z "},"É":{"ha":1150,"x_min":0,"x_max":0,"o":"m 1061 139 l 367 139 l 367 417 l 922 417 l 922 556 l 367 556 l 367 833 l 1061 833 l 1061 972 l 89 972 l 89 0 l 1061 0 z m 685 1111 l 685 1250 l 824 1250 l 824 1389 l 546 1389 l 546 1250 l 407 1250 l 407 1111 z "},"é":{"ha":1150,"x_min":0,"x_max":0,"o":"m 1061 139 l 367 139 l 367 417 l 922 417 l 922 556 l 367 556 l 367 833 l 1061 833 l 1061 972 l 89 972 l 89 0 l 1061 0 z m 685 1111 l 685 1250 l 824 1250 l 824 1389 l 546 1389 l 546 1250 l 407 1250 l 407 1111 z "},"":{"ha":1150,"x_min":0,"x_max":0,"o":"m 1061 139 l 367 139 l 367 417 l 922 417 l 922 556 l 367 556 l 367 833 l 1061 833 l 1061 972 l 89 972 l 89 0 l 1061 0 z m 685 1111 l 685 1250 l 824 1250 l 824 1389 l 546 1389 l 546 1250 l 407 1250 l 407 1111 z "},"":{"ha":1150,"x_min":0,"x_max":0,"o":"m 1061 139 l 367 139 l 367 417 l 922 417 l 922 556 l 367 556 l 367 833 l 1061 833 l 1061 972 l 89 972 l 89 0 l 1061 0 z m 685 1111 l 685 1250 l 824 1250 l 824 1389 l 546 1389 l 546 1250 l 407 1250 l 407 1111 z "},"Ê":{"ha":1150,"x_min":0,"x_max":0,"o":"m 1061 139 l 367 139 l 367 417 l 922 417 l 922 556 l 367 556 l 367 833 l 1061 833 l 1061 972 l 89 972 l 89 0 l 1061 0 z m 506 1111 l 506 1250 l 644 1250 l 644 1111 l 922 1111 l 922 1250 l 783 1250 l 783 1389 l 367 1389 l 367 1250 l 228 1250 l 228 1111 z "},"ê":{"ha":1150,"x_min":0,"x_max":0,"o":"m 1061 139 l 367 139 l 367 417 l 922 417 l 922 556 l 367 556 l 367 833 l 1061 833 l 1061 972 l 89 972 l 89 0 l 1061 0 z m 506 1111 l 506 1250 l 644 1250 l 644 1111 l 922 1111 l 922 1250 l 783 1250 l 783 1389 l 367 1389 l 367 1250 l 228 1250 l 228 1111 z "},"Ë":{"ha":1150,"x_min":0,"x_max":0,"o":"m 1061 139 l 367 139 l 367 417 l 922 417 l 922 556 l 367 556 l 367 833 l 1061 833 l 1061 972 l 89 972 l 89 0 l 1061 0 z m 644 1389 l 644 1111 l 922 1111 l 922 1389 z m 228 1111 l 506 1111 l 506 1389 l 228 1389 z "},"ë":{"ha":1150,"x_min":0,"x_max":0,"o":"m 1061 139 l 367 139 l 367 417 l 922 417 l 922 556 l 367 556 l 367 833 l 1061 833 l 1061 972 l 89 972 l 89 0 l 1061 0 z m 644 1389 l 644 1111 l 922 1111 l 922 1389 z m 228 1111 l 506 1111 l 506 1389 l 228 1389 z "},"Ё":{"ha":1150,"x_min":0,"x_max":0,"o":"m 1061 139 l 367 139 l 367 417 l 922 417 l 922 556 l 367 556 l 367 833 l 1061 833 l 1061 972 l 89 972 l 89 0 l 1061 0 z m 644 1389 l 644 1111 l 922 1111 l 922 1389 z m 228 1111 l 506 1111 l 506 1389 l 228 1389 z "},"ё":{"ha":1150,"x_min":0,"x_max":0,"o":"m 1061 139 l 367 139 l 367 417 l 922 417 l 922 556 l 367 556 l 367 833 l 1061 833 l 1061 972 l 89 972 l 89 0 l 1061 0 z m 644 1389 l 644 1111 l 922 1111 l 922 1389 z m 228 1111 l 506 1111 l 506 1389 l 228 1389 z "},"Ì":{"ha":1150,"x_min":0,"x_max":0,"o":"m 992 972 l 158 972 l 158 833 l 436 833 l 436 139 l 158 139 l 158 0 l 992 0 l 992 139 l 714 139 l 714 833 l 992 833 z m 719 1111 l 719 1250 l 581 1250 l 581 1389 l 303 1389 l 303 1250 l 442 1250 l 442 1111 z "},"ì":{"ha":1150,"x_min":0,"x_max":0,"o":"m 992 972 l 158 972 l 158 833 l 436 833 l 436 139 l 158 139 l 158 0 l 992 0 l 992 139 l 714 139 l 714 833 l 992 833 z m 719 1111 l 719 1250 l 581 1250 l 581 1389 l 303 1389 l 303 1250 l 442 1250 l 442 1111 z "},"Í":{"ha":1150,"x_min":0,"x_max":0,"o":"m 992 972 l 158 972 l 158 833 l 436 833 l 436 139 l 158 139 l 158 0 l 992 0 l 992 139 l 714 139 l 714 833 l 992 833 z m 715 1111 l 715 1250 l 854 1250 l 854 1389 l 576 1389 l 576 1250 l 438 1250 l 438 1111 z "},"í":{"ha":1150,"x_min":0,"x_max":0,"o":"m 992 972 l 158 972 l 158 833 l 436 833 l 436 139 l 158 139 l 158 0 l 992 0 l 992 139 l 714 139 l 714 833 l 992 833 z m 715 1111 l 715 1250 l 854 1250 l 854 1389 l 576 1389 l 576 1250 l 438 1250 l 438 1111 z "},"Î":{"ha":1150,"x_min":0,"x_max":0,"o":"m 992 972 l 158 972 l 158 833 l 436 833 l 436 139 l 158 139 l 158 0 l 992 0 l 992 139 l 714 139 l 714 833 l 992 833 z m 506 1111 l 506 1250 l 644 1250 l 644 1111 l 922 1111 l 922 1250 l 783 1250 l 783 1389 l 367 1389 l 367 1250 l 228 1250 l 228 1111 z "},"î":{"ha":1150,"x_min":0,"x_max":0,"o":"m 992 972 l 158 972 l 158 833 l 436 833 l 436 139 l 158 139 l 158 0 l 992 0 l 992 139 l 714 139 l 714 833 l 992 833 z m 506 1111 l 506 1250 l 644 1250 l 644 1111 l 922 1111 l 922 1250 l 783 1250 l 783 1389 l 367 1389 l 367 1250 l 228 1250 l 228 1111 z "},"Ï":{"ha":1150,"x_min":0,"x_max":0,"o":"m 992 972 l 158 972 l 158 833 l 436 833 l 436 139 l 158 139 l 158 0 l 992 0 l 992 139 l 714 139 l 714 833 l 992 833 z m 644 1389 l 644 1111 l 922 1111 l 922 1389 z m 228 1111 l 506 1111 l 506 1389 l 228 1389 z "},"ï":{"ha":1150,"x_min":0,"x_max":0,"o":"m 992 972 l 158 972 l 158 833 l 436 833 l 436 139 l 158 139 l 158 0 l 992 0 l 992 139 l 714 139 l 714 833 l 992 833 z m 644 1389 l 644 1111 l 922 1111 l 922 1389 z m 228 1111 l 506 1111 l 506 1389 l 228 1389 z "},"Ϊ":{"ha":1150,"x_min":0,"x_max":0,"o":"m 992 972 l 158 972 l 158 833 l 436 833 l 436 139 l 158 139 l 158 0 l 992 0 l 992 139 l 714 139 l 714 833 l 992 833 z m 644 1389 l 644 1111 l 922 1111 l 922 1389 z m 228 1111 l 506 1111 l 506 1389 l 228 1389 z "},"ϊ":{"ha":1150,"x_min":0,"x_max":0,"o":"m 992 972 l 158 972 l 158 833 l 436 833 l 436 139 l 158 139 l 158 0 l 992 0 l 992 139 l 714 139 l 714 833 l 992 833 z m 644 1389 l 644 1111 l 922 1111 l 922 1389 z m 228 1111 l 506 1111 l 506 1389 l 228 1389 z "},"Ї":{"ha":1150,"x_min":0,"x_max":0,"o":"m 992 972 l 158 972 l 158 833 l 436 833 l 436 139 l 158 139 l 158 0 l 992 0 l 992 139 l 714 139 l 714 833 l 992 833 z m 644 1389 l 644 1111 l 922 1111 l 922 1389 z m 228 1111 l 506 1111 l 506 1389 l 228 1389 z "},"ї":{"ha":1150,"x_min":0,"x_max":0,"o":"m 992 972 l 158 972 l 158 833 l 436 833 l 436 139 l 158 139 l 158 0 l 992 0 l 992 139 l 714 139 l 714 833 l 992 833 z m 644 1389 l 644 1111 l 922 1111 l 922 1389 z m 228 1111 l 506 1111 l 506 1389 l 228 1389 z "},"Ð":{"ha":1150,"x_min":0,"x_max":0,"o":"m 1061 694 l 922 694 l 922 833 l 783 833 l 783 972 l 228 972 l 228 556 l 89 556 l 89 417 l 228 417 l 228 0 l 783 0 l 783 139 l 922 139 l 922 278 l 1061 278 z m 644 556 l 506 556 l 506 833 l 644 833 l 644 694 l 783 694 l 783 278 l 644 278 l 644 139 l 506 139 l 506 417 l 644 417 z "},"ð":{"ha":1150,"x_min":0,"x_max":0,"o":"m 1061 694 l 922 694 l 922 833 l 783 833 l 783 972 l 228 972 l 228 556 l 89 556 l 89 417 l 228 417 l 228 0 l 783 0 l 783 139 l 922 139 l 922 278 l 1061 278 z m 644 556 l 506 556 l 506 833 l 644 833 l 644 694 l 783 694 l 783 278 l 644 278 l 644 139 l 506 139 l 506 417 l 644 417 z "},"Đ":{"ha":1150,"x_min":0,"x_max":0,"o":"m 1061 694 l 922 694 l 922 833 l 783 833 l 783 972 l 228 972 l 228 556 l 89 556 l 89 417 l 228 417 l 228 0 l 783 0 l 783 139 l 922 139 l 922 278 l 1061 278 z m 644 556 l 506 556 l 506 833 l 644 833 l 644 694 l 783 694 l 783 278 l 644 278 l 644 139 l 506 139 l 506 417 l 644 417 z "},"đ":{"ha":1150,"x_min":0,"x_max":0,"o":"m 1061 694 l 922 694 l 922 833 l 783 833 l 783 972 l 228 972 l 228 556 l 89 556 l 89 417 l 228 417 l 228 0 l 783 0 l 783 139 l 922 139 l 922 278 l 1061 278 z m 644 556 l 506 556 l 506 833 l 644 833 l 644 694 l 783 694 l 783 278 l 644 278 l 644 139 l 506 139 l 506 417 l 644 417 z "},"Ñ":{"ha":1150,"x_min":0,"x_max":0,"o":"m 1061 972 l 783 972 l 783 556 l 644 556 l 644 694 l 506 694 l 506 833 l 367 833 l 367 972 l 89 972 l 89 0 l 367 0 l 367 417 l 506 417 l 506 278 l 644 278 l 644 139 l 783 139 l 783 0 l 1061 0 z m 436 1111 l 436 1250 l 575 1250 l 575 1389 l 436 1389 l 436 1250 l 297 1250 l 297 1111 z m 714 1111 l 714 1250 l 853 1250 l 853 1389 l 714 1389 l 714 1250 l 575 1250 l 575 1111 z "},"ñ":{"ha":1150,"x_min":0,"x_max":0,"o":"m 1061 972 l 783 972 l 783 556 l 644 556 l 644 694 l 506 694 l 506 833 l 367 833 l 367 972 l 89 972 l 89 0 l 367 0 l 367 417 l 506 417 l 506 278 l 644 278 l 644 139 l 783 139 l 783 0 l 1061 0 z m 436 1111 l 436 1250 l 575 1250 l 575 1389 l 436 1389 l 436 1250 l 297 1250 l 297 1111 z m 714 1111 l 714 1250 l 853 1250 l 853 1389 l 714 1389 l 714 1250 l 575 1250 l 575 1111 z "},"Ò":{"ha":1150,"x_min":0,"x_max":0,"o":"m 1061 833 l 922 833 l 922 972 l 228 972 l 228 833 l 89 833 l 89 139 l 228 139 l 228 0 l 922 0 l 922 139 l 1061 139 z m 367 139 l 367 833 l 783 833 l 783 139 z m 728 1111 l 728 1250 l 589 1250 l 589 1389 l 311 1389 l 311 1250 l 450 1250 l 450 1111 z "},"ò":{"ha":1150,"x_min":0,"x_max":0,"o":"m 1061 833 l 922 833 l 922 972 l 228 972 l 228 833 l 89 833 l 89 139 l 228 139 l 228 0 l 922 0 l 922 139 l 1061 139 z m 367 139 l 367 833 l 783 833 l 783 139 z m 728 1111 l 728 1250 l 589 1250 l 589 1389 l 311 1389 l 311 1250 l 450 1250 l 450 1111 z "},"":{"ha":1150,"x_min":0,"x_max":0,"o":"m 1061 833 l 922 833 l 922 972 l 228 972 l 228 833 l 89 833 l 89 139 l 228 139 l 228 0 l 922 0 l 922 139 l 1061 139 z m 367 139 l 367 833 l 783 833 l 783 139 z m 728 1111 l 728 1250 l 589 1250 l 589 1389 l 311 1389 l 311 1250 l 450 1250 l 450 1111 z "},"":{"ha":1150,"x_min":0,"x_max":0,"o":"m 1061 833 l 922 833 l 922 972 l 228 972 l 228 833 l 89 833 l 89 139 l 228 139 l 228 0 l 922 0 l 922 139 l 1061 139 z m 367 139 l 367 833 l 783 833 l 783 139 z m 728 1111 l 728 1250 l 589 1250 l 589 1389 l 311 1389 l 311 1250 l 450 1250 l 450 1111 z "},"Ó":{"ha":1150,"x_min":0,"x_max":0,"o":"m 1061 833 l 922 833 l 922 972 l 228 972 l 228 833 l 89 833 l 89 139 l 228 139 l 228 0 l 922 0 l 922 139 l 1061 139 z m 367 139 l 367 833 l 783 833 l 783 139 z m 700 1111 l 700 1250 l 839 1250 l 839 1389 l 561 1389 l 561 1250 l 422 1250 l 422 1111 z "},"ó":{"ha":1150,"x_min":0,"x_max":0,"o":"m 1061 833 l 922 833 l 922 972 l 228 972 l 228 833 l 89 833 l 89 139 l 228 139 l 228 0 l 922 0 l 922 139 l 1061 139 z m 367 139 l 367 833 l 783 833 l 783 139 z m 700 1111 l 700 1250 l 839 1250 l 839 1389 l 561 1389 l 561 1250 l 422 1250 l 422 1111 z "},"":{"ha":1150,"x_min":0,"x_max":0,"o":"m 1061 833 l 922 833 l 922 972 l 228 972 l 228 833 l 89 833 l 89 139 l 228 139 l 228 0 l 922 0 l 922 139 l 1061 139 z m 367 139 l 367 833 l 783 833 l 783 139 z m 700 1111 l 700 1250 l 839 1250 l 839 1389 l 561 1389 l 561 1250 l 422 1250 l 422 1111 z "},"":{"ha":1150,"x_min":0,"x_max":0,"o":"m 1061 833 l 922 833 l 922 972 l 228 972 l 228 833 l 89 833 l 89 139 l 228 139 l 228 0 l 922 0 l 922 139 l 1061 139 z m 367 139 l 367 833 l 783 833 l 783 139 z m 700 1111 l 700 1250 l 839 1250 l 839 1389 l 561 1389 l 561 1250 l 422 1250 l 422 1111 z "},"Ô":{"ha":1150,"x_min":0,"x_max":0,"o":"m 1061 833 l 922 833 l 922 972 l 228 972 l 228 833 l 89 833 l 89 139 l 228 139 l 228 0 l 922 0 l 922 139 l 1061 139 z m 367 139 l 367 833 l 783 833 l 783 139 z m 506 1111 l 506 1250 l 644 1250 l 644 1111 l 922 1111 l 922 1250 l 783 1250 l 783 1389 l 367 1389 l 367 1250 l 228 1250 l 228 1111 z "},"ô":{"ha":1150,"x_min":0,"x_max":0,"o":"m 1061 833 l 922 833 l 922 972 l 228 972 l 228 833 l 89 833 l 89 139 l 228 139 l 228 0 l 922 0 l 922 139 l 1061 139 z m 367 139 l 367 833 l 783 833 l 783 139 z m 506 1111 l 506 1250 l 644 1250 l 644 1111 l 922 1111 l 922 1250 l 783 1250 l 783 1389 l 367 1389 l 367 1250 l 228 1250 l 228 1111 z "},"Õ":{"ha":1150,"x_min":0,"x_max":0,"o":"m 1061 833 l 922 833 l 922 972 l 228 972 l 228 833 l 89 833 l 89 139 l 228 139 l 228 0 l 922 0 l 922 139 l 1061 139 z m 367 139 l 367 833 l 783 833 l 783 139 z m 436 1111 l 436 1250 l 575 1250 l 575 1389 l 436 1389 l 436 1250 l 297 1250 l 297 1111 z m 714 1111 l 714 1250 l 853 1250 l 853 1389 l 714 1389 l 714 1250 l 575 1250 l 575 1111 z "},"õ":{"ha":1150,"x_min":0,"x_max":0,"o":"m 1061 833 l 922 833 l 922 972 l 228 972 l 228 833 l 89 833 l 89 139 l 228 139 l 228 0 l 922 0 l 922 139 l 1061 139 z m 367 139 l 367 833 l 783 833 l 783 139 z m 436 1111 l 436 1250 l 575 1250 l 575 1389 l 436 1389 l 436 1250 l 297 1250 l 297 1111 z m 714 1111 l 714 1250 l 853 1250 l 853 1389 l 714 1389 l 714 1250 l 575 1250 l 575 1111 z "},"Ö":{"ha":1150,"x_min":0,"x_max":0,"o":"m 1061 833 l 922 833 l 922 972 l 228 972 l 228 833 l 89 833 l 89 139 l 228 139 l 228 0 l 922 0 l 922 139 l 1061 139 z m 367 139 l 367 833 l 783 833 l 783 139 z m 643 1389 l 643 1111 l 921 1111 l 921 1389 z m 226 1111 l 504 1111 l 504 1389 l 226 1389 z "},"ö":{"ha":1150,"x_min":0,"x_max":0,"o":"m 1061 833 l 922 833 l 922 972 l 228 972 l 228 833 l 89 833 l 89 139 l 228 139 l 228 0 l 922 0 l 922 139 l 1061 139 z m 367 139 l 367 833 l 783 833 l 783 139 z m 643 1389 l 643 1111 l 921 1111 l 921 1389 z m 226 1111 l 504 1111 l 504 1389 l 226 1389 z "},"Ӧ":{"ha":1150,"x_min":0,"x_max":0,"o":"m 1061 833 l 922 833 l 922 972 l 228 972 l 228 833 l 89 833 l 89 139 l 228 139 l 228 0 l 922 0 l 922 139 l 1061 139 z m 367 139 l 367 833 l 783 833 l 783 139 z m 643 1389 l 643 1111 l 921 1111 l 921 1389 z m 226 1111 l 504 1111 l 504 1389 l 226 1389 z "},"ӧ":{"ha":1150,"x_min":0,"x_max":0,"o":"m 1061 833 l 922 833 l 922 972 l 228 972 l 228 833 l 89 833 l 89 139 l 228 139 l 228 0 l 922 0 l 922 139 l 1061 139 z m 367 139 l 367 833 l 783 833 l 783 139 z m 643 1389 l 643 1111 l 921 1111 l 921 1389 z m 226 1111 l 504 1111 l 504 1389 l 226 1389 z "},"×":{"ha":1150,"x_min":0,"x_max":0,"o":"m 228 139 l 367 139 l 367 278 l 506 278 l 506 417 l 644 417 l 644 278 l 783 278 l 783 139 l 922 139 l 922 417 l 783 417 l 783 556 l 922 556 l 922 833 l 783 833 l 783 694 l 644 694 l 644 556 l 506 556 l 506 694 l 367 694 l 367 833 l 228 833 l 228 556 l 367 556 l 367 417 l 228 417 z "},"Ø":{"ha":1150,"x_min":0,"x_max":0,"o":"m 1061 833 l 922 833 l 922 972 l 228 972 l 228 833 l 89 833 l 89 139 l 228 139 l 228 0 l 922 0 l 922 139 l 1061 139 z m 367 139 l 367 278 l 506 278 l 506 417 l 367 417 l 367 833 l 783 833 l 783 694 l 644 694 l 644 556 l 783 556 l 783 139 z m 644 556 l 506 556 l 506 417 l 644 417 z "},"ø":{"ha":1150,"x_min":0,"x_max":0,"o":"m 1061 833 l 922 833 l 922 972 l 228 972 l 228 833 l 89 833 l 89 139 l 228 139 l 228 0 l 922 0 l 922 139 l 1061 139 z m 367 139 l 367 278 l 506 278 l 506 417 l 367 417 l 367 833 l 783 833 l 783 694 l 644 694 l 644 556 l 783 556 l 783 139 z m 644 556 l 506 556 l 506 417 l 644 417 z "},"Ù":{"ha":1150,"x_min":0,"x_max":0,"o":"m 1061 972 l 783 972 l 783 139 l 367 139 l 367 972 l 89 972 l 89 139 l 228 139 l 228 0 l 922 0 l 922 139 l 1061 139 z m 728 1111 l 728 1250 l 589 1250 l 589 1389 l 311 1389 l 311 1250 l 450 1250 l 450 1111 z "},"ù":{"ha":1150,"x_min":0,"x_max":0,"o":"m 1061 972 l 783 972 l 783 139 l 367 139 l 367 972 l 89 972 l 89 139 l 228 139 l 228 0 l 922 0 l 922 139 l 1061 139 z m 728 1111 l 728 1250 l 589 1250 l 589 1389 l 311 1389 l 311 1250 l 450 1250 l 450 1111 z "},"Ú":{"ha":1150,"x_min":0,"x_max":0,"o":"m 1061 972 l 783 972 l 783 139 l 367 139 l 367 972 l 89 972 l 89 139 l 228 139 l 228 0 l 922 0 l 922 139 l 1061 139 z m 700 1111 l 700 1250 l 839 1250 l 839 1389 l 561 1389 l 561 1250 l 422 1250 l 422 1111 z "},"ú":{"ha":1150,"x_min":0,"x_max":0,"o":"m 1061 972 l 783 972 l 783 139 l 367 139 l 367 972 l 89 972 l 89 139 l 228 139 l 228 0 l 922 0 l 922 139 l 1061 139 z m 700 1111 l 700 1250 l 839 1250 l 839 1389 l 561 1389 l 561 1250 l 422 1250 l 422 1111 z "},"Û":{"ha":1150,"x_min":0,"x_max":0,"o":"m 1061 972 l 783 972 l 783 139 l 367 139 l 367 972 l 89 972 l 89 139 l 228 139 l 228 0 l 922 0 l 922 139 l 1061 139 z m 506 1111 l 506 1250 l 644 1250 l 644 1111 l 922 1111 l 922 1250 l 783 1250 l 783 1389 l 367 1389 l 367 1250 l 228 1250 l 228 1111 z "},"û":{"ha":1150,"x_min":0,"x_max":0,"o":"m 1061 972 l 783 972 l 783 139 l 367 139 l 367 972 l 89 972 l 89 139 l 228 139 l 228 0 l 922 0 l 922 139 l 1061 139 z m 506 1111 l 506 1250 l 644 1250 l 644 1111 l 922 1111 l 922 1250 l 783 1250 l 783 1389 l 367 1389 l 367 1250 l 228 1250 l 228 1111 z "},"Ü":{"ha":1150,"x_min":0,"x_max":0,"o":"m 1061 972 l 783 972 l 783 139 l 367 139 l 367 972 l 89 972 l 89 139 l 228 139 l 228 0 l 922 0 l 922 139 l 1061 139 z m 643 1389 l 643 1111 l 921 1111 l 921 1389 z m 226 1111 l 504 1111 l 504 1389 l 226 1389 z "},"ü":{"ha":1150,"x_min":0,"x_max":0,"o":"m 1061 972 l 783 972 l 783 139 l 367 139 l 367 972 l 89 972 l 89 139 l 228 139 l 228 0 l 922 0 l 922 139 l 1061 139 z m 643 1389 l 643 1111 l 921 1111 l 921 1389 z m 226 1111 l 504 1111 l 504 1389 l 226 1389 z "},"Ý":{"ha":1150,"x_min":0,"x_max":0,"o":"m 992 972 l 714 972 l 714 556 l 436 556 l 436 972 l 158 972 l 158 556 l 296 556 l 296 417 l 436 417 l 436 0 l 714 0 l 714 417 l 853 417 l 853 556 l 992 556 z m 692 1111 l 692 1250 l 831 1250 l 831 1389 l 553 1389 l 553 1250 l 414 1250 l 414 1111 z "},"ý":{"ha":1150,"x_min":0,"x_max":0,"o":"m 992 972 l 714 972 l 714 556 l 436 556 l 436 972 l 158 972 l 158 556 l 296 556 l 296 417 l 436 417 l 436 0 l 714 0 l 714 417 l 853 417 l 853 556 l 992 556 z m 692 1111 l 692 1250 l 831 1250 l 831 1389 l 553 1389 l 553 1250 l 414 1250 l 414 1111 z "},"Þ":{"ha":1150,"x_min":0,"x_max":0,"o":"m 1061 638 l 922 638 l 922 776 l 367 776 l 367 972 l 89 972 l 89 0 l 367 0 l 367 219 l 922 219 l 922 360 l 1061 360 z m 367 360 l 367 638 l 783 638 l 783 360 z "},"þ":{"ha":1150,"x_min":0,"x_max":0,"o":"m 1061 638 l 922 638 l 922 776 l 367 776 l 367 972 l 89 972 l 89 0 l 367 0 l 367 219 l 922 219 l 922 360 l 1061 360 z m 367 360 l 367 638 l 783 638 l 783 360 z "},"÷":{"ha":1150,"x_min":0,"x_max":0,"o":"m 992 556 l 158 556 l 158 417 l 992 417 z m 714 833 l 436 833 l 436 694 l 714 694 z m 714 139 l 714 278 l 436 278 l 436 139 z "},"ÿ":{"ha":1150,"x_min":0,"x_max":0,"o":"m 992 972 l 714 972 l 714 556 l 436 556 l 436 972 l 158 972 l 158 556 l 296 556 l 296 417 l 436 417 l 436 0 l 714 0 l 714 417 l 853 417 l 853 556 l 992 556 z m 624 1389 l 624 1111 l 901 1111 l 901 1389 z m 207 1111 l 485 1111 l 485 1389 l 207 1389 z "},"Ÿ":{"ha":1150,"x_min":0,"x_max":0,"o":"m 992 972 l 714 972 l 714 556 l 436 556 l 436 972 l 158 972 l 158 556 l 296 556 l 296 417 l 436 417 l 436 0 l 714 0 l 714 417 l 853 417 l 853 556 l 992 556 z m 624 1389 l 624 1111 l 901 1111 l 901 1389 z m 207 1111 l 485 1111 l 485 1389 l 207 1389 z "},"Ϋ":{"ha":1150,"x_min":0,"x_max":0,"o":"m 992 972 l 714 972 l 714 556 l 436 556 l 436 972 l 158 972 l 158 556 l 296 556 l 296 417 l 436 417 l 436 0 l 714 0 l 714 417 l 853 417 l 853 556 l 992 556 z m 624 1389 l 624 1111 l 901 1111 l 901 1389 z m 207 1111 l 485 1111 l 485 1389 l 207 1389 z "},"ϋ":{"ha":1150,"x_min":0,"x_max":0,"o":"m 992 972 l 714 972 l 714 556 l 436 556 l 436 972 l 158 972 l 158 556 l 296 556 l 296 417 l 436 417 l 436 0 l 714 0 l 714 417 l 853 417 l 853 556 l 992 556 z m 624 1389 l 624 1111 l 901 1111 l 901 1389 z m 207 1111 l 485 1111 l 485 1389 l 207 1389 z "},"Ā":{"ha":1150,"x_min":0,"x_max":0,"o":"m 1061 694 l 922 694 l 922 833 l 783 833 l 783 972 l 367 972 l 367 833 l 228 833 l 228 694 l 89 694 l 89 0 l 367 0 l 367 278 l 783 278 l 783 0 l 1061 0 z m 367 417 l 367 694 l 506 694 l 506 833 l 644 833 l 644 694 l 783 694 l 783 417 z m 783 1111 l 783 1250 l 367 1250 l 367 1111 z "},"ā":{"ha":1150,"x_min":0,"x_max":0,"o":"m 1061 694 l 922 694 l 922 833 l 783 833 l 783 972 l 367 972 l 367 833 l 228 833 l 228 694 l 89 694 l 89 0 l 367 0 l 367 278 l 783 278 l 783 0 l 1061 0 z m 367 417 l 367 694 l 506 694 l 506 833 l 644 833 l 644 694 l 783 694 l 783 417 z m 783 1111 l 783 1250 l 367 1250 l 367 1111 z "},"":{"ha":1150,"x_min":0,"x_max":0,"o":"m 1061 694 l 922 694 l 922 833 l 783 833 l 783 972 l 367 972 l 367 833 l 228 833 l 228 694 l 89 694 l 89 0 l 367 0 l 367 278 l 783 278 l 783 0 l 1061 0 z m 367 417 l 367 694 l 506 694 l 506 833 l 644 833 l 644 694 l 783 694 l 783 417 z m 783 1111 l 783 1250 l 367 1250 l 367 1111 z "},"":{"ha":1150,"x_min":0,"x_max":0,"o":"m 1061 694 l 922 694 l 922 833 l 783 833 l 783 972 l 367 972 l 367 833 l 228 833 l 228 694 l 89 694 l 89 0 l 367 0 l 367 278 l 783 278 l 783 0 l 1061 0 z m 367 417 l 367 694 l 506 694 l 506 833 l 644 833 l 644 694 l 783 694 l 783 417 z m 783 1111 l 783 1250 l 367 1250 l 367 1111 z "},"Ă":{"ha":1150,"x_min":0,"x_max":0,"o":"m 1061 694 l 922 694 l 922 833 l 783 833 l 783 972 l 367 972 l 367 833 l 228 833 l 228 694 l 89 694 l 89 0 l 367 0 l 367 278 l 783 278 l 783 0 l 1061 0 z m 367 417 l 367 694 l 506 694 l 506 833 l 644 833 l 644 694 l 783 694 l 783 417 z m 711 1389 l 711 1250 l 433 1250 l 433 1389 l 294 1389 l 294 1111 l 850 1111 l 850 1389 z "},"ă":{"ha":1150,"x_min":0,"x_max":0,"o":"m 1061 694 l 922 694 l 922 833 l 783 833 l 783 972 l 367 972 l 367 833 l 228 833 l 228 694 l 89 694 l 89 0 l 367 0 l 367 278 l 783 278 l 783 0 l 1061 0 z m 367 417 l 367 694 l 506 694 l 506 833 l 644 833 l 644 694 l 783 694 l 783 417 z m 711 1389 l 711 1250 l 433 1250 l 433 1389 l 294 1389 l 294 1111 l 850 1111 l 850 1389 z "},"Ӑ":{"ha":1150,"x_min":0,"x_max":0,"o":"m 1061 694 l 922 694 l 922 833 l 783 833 l 783 972 l 367 972 l 367 833 l 228 833 l 228 694 l 89 694 l 89 0 l 367 0 l 367 278 l 783 278 l 783 0 l 1061 0 z m 367 417 l 367 694 l 506 694 l 506 833 l 644 833 l 644 694 l 783 694 l 783 417 z m 711 1389 l 711 1250 l 433 1250 l 433 1389 l 294 1389 l 294 1111 l 850 1111 l 850 1389 z "},"ӑ":{"ha":1150,"x_min":0,"x_max":0,"o":"m 1061 694 l 922 694 l 922 833 l 783 833 l 783 972 l 367 972 l 367 833 l 228 833 l 228 694 l 89 694 l 89 0 l 367 0 l 367 278 l 783 278 l 783 0 l 1061 0 z m 367 417 l 367 694 l 506 694 l 506 833 l 644 833 l 644 694 l 783 694 l 783 417 z m 711 1389 l 711 1250 l 433 1250 l 433 1389 l 294 1389 l 294 1111 l 850 1111 l 850 1389 z "},"Ą":{"ha":1150,"x_min":0,"x_max":0,"o":"m 1061 0 l 1061 694 l 922 694 l 922 833 l 783 833 l 783 972 l 367 972 l 367 833 l 228 833 l 228 694 l 89 694 l 89 0 l 367 0 l 367 278 l 783 278 l 783 0 z m 367 417 l 367 694 l 506 694 l 506 833 l 644 833 l 644 694 l 783 694 l 783 417 z m 1061 -278 l 1061 -139 l 783 -139 l 783 0 l 644 0 l 644 -278 z "},"ą":{"ha":1150,"x_min":0,"x_max":0,"o":"m 1061 0 l 1061 694 l 922 694 l 922 833 l 783 833 l 783 972 l 367 972 l 367 833 l 228 833 l 228 694 l 89 694 l 89 0 l 367 0 l 367 278 l 783 278 l 783 0 z m 367 417 l 367 694 l 506 694 l 506 833 l 644 833 l 644 694 l 783 694 l 783 417 z m 1061 -278 l 1061 -139 l 783 -139 l 783 0 l 644 0 l 644 -278 z "},"Ć":{"ha":1150,"x_min":0,"x_max":0,"o":"m 1061 278 l 783 278 l 783 139 l 506 139 l 506 278 l 367 278 l 367 694 l 506 694 l 506 833 l 783 833 l 783 694 l 1061 694 l 1061 833 l 922 833 l 922 972 l 367 972 l 367 833 l 228 833 l 228 694 l 89 694 l 89 278 l 228 278 l 228 139 l 367 139 l 367 0 l 922 0 l 922 139 l 1061 139 z m 765 1111 l 765 1250 l 904 1250 l 904 1389 l 626 1389 l 626 1250 l 488 1250 l 488 1111 z "},"ć":{"ha":1150,"x_min":0,"x_max":0,"o":"m 1061 278 l 783 278 l 783 139 l 506 139 l 506 278 l 367 278 l 367 694 l 506 694 l 506 833 l 783 833 l 783 694 l 1061 694 l 1061 833 l 922 833 l 922 972 l 367 972 l 367 833 l 228 833 l 228 694 l 89 694 l 89 278 l 228 278 l 228 139 l 367 139 l 367 0 l 922 0 l 922 139 l 1061 139 z m 765 1111 l 765 1250 l 904 1250 l 904 1389 l 626 1389 l 626 1250 l 488 1250 l 488 1111 z "},"Ĉ":{"ha":1150,"x_min":0,"x_max":0,"o":"m 1061 278 l 783 278 l 783 139 l 506 139 l 506 278 l 367 278 l 367 694 l 506 694 l 506 833 l 783 833 l 783 694 l 1061 694 l 1061 833 l 922 833 l 922 972 l 367 972 l 367 833 l 228 833 l 228 694 l 89 694 l 89 278 l 228 278 l 228 139 l 367 139 l 367 0 l 922 0 l 922 139 l 1061 139 z m 583 1111 l 583 1250 l 722 1250 l 722 1111 l 1000 1111 l 1000 1250 l 861 1250 l 861 1389 l 444 1389 l 444 1250 l 306 1250 l 306 1111 z "},"ĉ":{"ha":1150,"x_min":0,"x_max":0,"o":"m 1061 278 l 783 278 l 783 139 l 506 139 l 506 278 l 367 278 l 367 694 l 506 694 l 506 833 l 783 833 l 783 694 l 1061 694 l 1061 833 l 922 833 l 922 972 l 367 972 l 367 833 l 228 833 l 228 694 l 89 694 l 89 278 l 228 278 l 228 139 l 367 139 l 367 0 l 922 0 l 922 139 l 1061 139 z m 583 1111 l 583 1250 l 722 1250 l 722 1111 l 1000 1111 l 1000 1250 l 861 1250 l 861 1389 l 444 1389 l 444 1250 l 306 1250 l 306 1111 z "},"Ċ":{"ha":1150,"x_min":0,"x_max":0,"o":"m 1061 278 l 783 278 l 783 139 l 506 139 l 506 278 l 367 278 l 367 694 l 506 694 l 506 833 l 783 833 l 783 694 l 1061 694 l 1061 833 l 922 833 l 922 972 l 367 972 l 367 833 l 228 833 l 228 694 l 89 694 l 89 278 l 228 278 l 228 139 l 367 139 l 367 0 l 922 0 l 922 139 l 1061 139 z m 506 1111 l 783 1111 l 783 1389 l 506 1389 z "},"ċ":{"ha":1150,"x_min":0,"x_max":0,"o":"m 1061 278 l 783 278 l 783 139 l 506 139 l 506 278 l 367 278 l 367 694 l 506 694 l 506 833 l 783 833 l 783 694 l 1061 694 l 1061 833 l 922 833 l 922 972 l 367 972 l 367 833 l 228 833 l 228 694 l 89 694 l 89 278 l 228 278 l 228 139 l 367 139 l 367 0 l 922 0 l 922 139 l 1061 139 z m 506 1111 l 783 1111 l 783 1389 l 506 1389 z "},"Č":{"ha":1150,"x_min":0,"x_max":0,"o":"m 1061 278 l 783 278 l 783 139 l 506 139 l 506 278 l 367 278 l 367 694 l 506 694 l 506 833 l 783 833 l 783 694 l 1061 694 l 1061 833 l 922 833 l 922 972 l 367 972 l 367 833 l 228 833 l 228 694 l 89 694 l 89 278 l 228 278 l 228 139 l 367 139 l 367 0 l 922 0 l 922 139 l 1061 139 z m 711 1389 l 711 1250 l 572 1250 l 572 1389 l 294 1389 l 294 1250 l 433 1250 l 433 1111 l 850 1111 l 850 1250 l 989 1250 l 989 1389 z "},"č":{"ha":1150,"x_min":0,"x_max":0,"o":"m 1061 278 l 783 278 l 783 139 l 506 139 l 506 278 l 367 278 l 367 694 l 506 694 l 506 833 l 783 833 l 783 694 l 1061 694 l 1061 833 l 922 833 l 922 972 l 367 972 l 367 833 l 228 833 l 228 694 l 89 694 l 89 278 l 228 278 l 228 139 l 367 139 l 367 0 l 922 0 l 922 139 l 1061 139 z m 711 1389 l 711 1250 l 572 1250 l 572 1389 l 294 1389 l 294 1250 l 433 1250 l 433 1111 l 850 1111 l 850 1250 l 989 1250 l 989 1389 z "},"Ď":{"ha":1150,"x_min":0,"x_max":0,"o":"m 1061 694 l 922 694 l 922 833 l 783 833 l 783 972 l 89 972 l 89 0 l 783 0 l 783 139 l 922 139 l 922 278 l 1061 278 z m 644 278 l 644 139 l 367 139 l 367 833 l 644 833 l 644 694 l 783 694 l 783 278 z m 572 1389 l 572 1250 l 433 1250 l 433 1389 l 156 1389 l 156 1250 l 294 1250 l 294 1111 l 711 1111 l 711 1250 l 850 1250 l 850 1389 z "},"ď":{"ha":1150,"x_min":0,"x_max":0,"o":"m 1061 694 l 922 694 l 922 833 l 783 833 l 783 972 l 89 972 l 89 0 l 783 0 l 783 139 l 922 139 l 922 278 l 1061 278 z m 644 278 l 644 139 l 367 139 l 367 833 l 644 833 l 644 694 l 783 694 l 783 278 z m 572 1389 l 572 1250 l 433 1250 l 433 1389 l 156 1389 l 156 1250 l 294 1250 l 294 1111 l 711 1111 l 711 1250 l 850 1250 l 850 1389 z "},"Ē":{"ha":1150,"x_min":0,"x_max":0,"o":"m 1061 139 l 367 139 l 367 417 l 922 417 l 922 556 l 367 556 l 367 833 l 1061 833 l 1061 972 l 89 972 l 89 0 l 1061 0 z m 783 1111 l 783 1250 l 367 1250 l 367 1111 z "},"ē":{"ha":1150,"x_min":0,"x_max":0,"o":"m 1061 139 l 367 139 l 367 417 l 922 417 l 922 556 l 367 556 l 367 833 l 1061 833 l 1061 972 l 89 972 l 89 0 l 1061 0 z m 783 1111 l 783 1250 l 367 1250 l 367 1111 z "},"":{"ha":1150,"x_min":0,"x_max":0,"o":"m 1061 139 l 367 139 l 367 417 l 922 417 l 922 556 l 367 556 l 367 833 l 1061 833 l 1061 972 l 89 972 l 89 0 l 1061 0 z m 783 1111 l 783 1250 l 367 1250 l 367 1111 z "},"":{"ha":1150,"x_min":0,"x_max":0,"o":"m 1061 139 l 367 139 l 367 417 l 922 417 l 922 556 l 367 556 l 367 833 l 1061 833 l 1061 972 l 89 972 l 89 0 l 1061 0 z m 783 1111 l 783 1250 l 367 1250 l 367 1111 z "},"Ĕ":{"ha":1150,"x_min":0,"x_max":0,"o":"m 1061 139 l 367 139 l 367 417 l 922 417 l 922 556 l 367 556 l 367 833 l 1061 833 l 1061 972 l 89 972 l 89 0 l 1061 0 z m 726 1389 l 726 1250 l 449 1250 l 449 1389 l 310 1389 l 310 1111 l 865 1111 l 865 1389 z "},"ĕ":{"ha":1150,"x_min":0,"x_max":0,"o":"m 1061 139 l 367 139 l 367 417 l 922 417 l 922 556 l 367 556 l 367 833 l 1061 833 l 1061 972 l 89 972 l 89 0 l 1061 0 z m 726 1389 l 726 1250 l 449 1250 l 449 1389 l 310 1389 l 310 1111 l 865 1111 l 865 1389 z "},"Ӗ":{"ha":1150,"x_min":0,"x_max":0,"o":"m 1061 139 l 367 139 l 367 417 l 922 417 l 922 556 l 367 556 l 367 833 l 1061 833 l 1061 972 l 89 972 l 89 0 l 1061 0 z m 726 1389 l 726 1250 l 449 1250 l 449 1389 l 310 1389 l 310 1111 l 865 1111 l 865 1389 z "},"ӗ":{"ha":1150,"x_min":0,"x_max":0,"o":"m 1061 139 l 367 139 l 367 417 l 922 417 l 922 556 l 367 556 l 367 833 l 1061 833 l 1061 972 l 89 972 l 89 0 l 1061 0 z m 726 1389 l 726 1250 l 449 1250 l 449 1389 l 310 1389 l 310 1111 l 865 1111 l 865 1389 z "},"Ė":{"ha":1150,"x_min":0,"x_max":0,"o":"m 1061 139 l 367 139 l 367 417 l 922 417 l 922 556 l 367 556 l 367 833 l 1061 833 l 1061 972 l 89 972 l 89 0 l 1061 0 z m 449 1111 l 726 1111 l 726 1389 l 449 1389 z "},"ė":{"ha":1150,"x_min":0,"x_max":0,"o":"m 1061 139 l 367 139 l 367 417 l 922 417 l 922 556 l 367 556 l 367 833 l 1061 833 l 1061 972 l 89 972 l 89 0 l 1061 0 z m 449 1111 l 726 1111 l 726 1389 l 449 1389 z "},"Ę":{"ha":1150,"x_min":0,"x_max":0,"o":"m 1061 -278 l 1061 -139 l 783 -139 l 783 0 l 1061 0 l 1061 139 l 367 139 l 367 417 l 922 417 l 922 556 l 367 556 l 367 833 l 1061 833 l 1061 972 l 89 972 l 89 0 l 644 0 l 644 -278 z "},"ę":{"ha":1150,"x_min":0,"x_max":0,"o":"m 1061 -278 l 1061 -139 l 783 -139 l 783 0 l 1061 0 l 1061 139 l 367 139 l 367 417 l 922 417 l 922 556 l 367 556 l 367 833 l 1061 833 l 1061 972 l 89 972 l 89 0 l 644 0 l 644 -278 z "},"Ě":{"ha":1150,"x_min":0,"x_max":0,"o":"m 1061 139 l 367 139 l 367 417 l 922 417 l 922 556 l 367 556 l 367 833 l 1061 833 l 1061 972 l 89 972 l 89 0 l 1061 0 z m 644 1389 l 644 1250 l 506 1250 l 506 1389 l 228 1389 l 228 1250 l 367 1250 l 367 1111 l 783 1111 l 783 1250 l 922 1250 l 922 1389 z "},"ě":{"ha":1150,"x_min":0,"x_max":0,"o":"m 1061 139 l 367 139 l 367 417 l 922 417 l 922 556 l 367 556 l 367 833 l 1061 833 l 1061 972 l 89 972 l 89 0 l 1061 0 z m 644 1389 l 644 1250 l 506 1250 l 506 1389 l 228 1389 l 228 1250 l 367 1250 l 367 1111 l 783 1111 l 783 1250 l 922 1250 l 922 1389 z "},"Ĝ":{"ha":1150,"x_min":0,"x_max":0,"o":"m 1061 556 l 644 556 l 644 417 l 783 417 l 783 139 l 506 139 l 506 278 l 367 278 l 367 694 l 506 694 l 506 833 l 1061 833 l 1061 972 l 367 972 l 367 833 l 228 833 l 228 694 l 89 694 l 89 278 l 228 278 l 228 142 l 367 142 l 367 0 l 1061 0 z m 506 1111 l 506 1250 l 644 1250 l 644 1111 l 922 1111 l 922 1250 l 783 1250 l 783 1389 l 367 1389 l 367 1250 l 228 1250 l 228 1111 z "},"ĝ":{"ha":1150,"x_min":0,"x_max":0,"o":"m 1061 556 l 644 556 l 644 417 l 783 417 l 783 139 l 506 139 l 506 278 l 367 278 l 367 694 l 506 694 l 506 833 l 1061 833 l 1061 972 l 367 972 l 367 833 l 228 833 l 228 694 l 89 694 l 89 278 l 228 278 l 228 142 l 367 142 l 367 0 l 1061 0 z m 506 1111 l 506 1250 l 644 1250 l 644 1111 l 922 1111 l 922 1250 l 783 1250 l 783 1389 l 367 1389 l 367 1250 l 228 1250 l 228 1111 z "},"Ğ":{"ha":1150,"x_min":0,"x_max":0,"o":"m 1061 556 l 644 556 l 644 417 l 783 417 l 783 139 l 506 139 l 506 278 l 367 278 l 367 694 l 506 694 l 506 833 l 1061 833 l 1061 972 l 367 972 l 367 833 l 228 833 l 228 694 l 89 694 l 89 278 l 228 278 l 228 142 l 367 142 l 367 0 l 1061 0 z m 782 1389 l 782 1250 l 504 1250 l 504 1389 l 365 1389 l 365 1111 l 921 1111 l 921 1389 z "},"ğ":{"ha":1150,"x_min":0,"x_max":0,"o":"m 1061 556 l 644 556 l 644 417 l 783 417 l 783 139 l 506 139 l 506 278 l 367 278 l 367 694 l 506 694 l 506 833 l 1061 833 l 1061 972 l 367 972 l 367 833 l 228 833 l 228 694 l 89 694 l 89 278 l 228 278 l 228 142 l 367 142 l 367 0 l 1061 0 z m 782 1389 l 782 1250 l 504 1250 l 504 1389 l 365 1389 l 365 1111 l 921 1111 l 921 1389 z "},"Ġ":{"ha":1150,"x_min":0,"x_max":0,"o":"m 1061 556 l 644 556 l 644 417 l 783 417 l 783 139 l 506 139 l 506 278 l 367 278 l 367 694 l 506 694 l 506 833 l 1061 833 l 1061 972 l 367 972 l 367 833 l 228 833 l 228 694 l 89 694 l 89 278 l 228 278 l 228 142 l 367 142 l 367 0 l 1061 0 z m 506 1111 l 783 1111 l 783 1389 l 506 1389 z "},"ġ":{"ha":1150,"x_min":0,"x_max":0,"o":"m 1061 556 l 644 556 l 644 417 l 783 417 l 783 139 l 506 139 l 506 278 l 367 278 l 367 694 l 506 694 l 506 833 l 1061 833 l 1061 972 l 367 972 l 367 833 l 228 833 l 228 694 l 89 694 l 89 278 l 228 278 l 228 142 l 367 142 l 367 0 l 1061 0 z m 506 1111 l 783 1111 l 783 1389 l 506 1389 z "},"Ģ":{"ha":1150,"x_min":0,"x_max":0,"o":"m 1061 556 l 644 556 l 644 417 l 783 417 l 783 139 l 506 139 l 506 278 l 367 278 l 367 694 l 506 694 l 506 833 l 1061 833 l 1061 972 l 367 972 l 367 833 l 228 833 l 228 694 l 89 694 l 89 278 l 228 278 l 228 142 l 367 142 l 367 0 l 506 0 l 506 -139 l 367 -139 l 367 -278 l 644 -278 l 644 -139 l 783 -139 l 783 0 l 1061 0 z "},"ģ":{"ha":1150,"x_min":0,"x_max":0,"o":"m 1061 556 l 644 556 l 644 417 l 783 417 l 783 139 l 506 139 l 506 278 l 367 278 l 367 694 l 506 694 l 506 833 l 1061 833 l 1061 972 l 367 972 l 367 833 l 228 833 l 228 694 l 89 694 l 89 278 l 228 278 l 228 142 l 367 142 l 367 0 l 506 0 l 506 -139 l 367 -139 l 367 -278 l 644 -278 l 644 -139 l 783 -139 l 783 0 l 1061 0 z "},"Ĥ":{"ha":1150,"x_min":0,"x_max":0,"o":"m 1061 972 l 783 972 l 783 556 l 367 556 l 367 972 l 89 972 l 89 0 l 367 0 l 367 417 l 783 417 l 783 0 l 1061 0 z m 506 1111 l 506 1250 l 644 1250 l 644 1111 l 922 1111 l 922 1250 l 783 1250 l 783 1389 l 367 1389 l 367 1250 l 228 1250 l 228 1111 z "},"ĥ":{"ha":1150,"x_min":0,"x_max":0,"o":"m 1061 972 l 783 972 l 783 556 l 367 556 l 367 972 l 89 972 l 89 0 l 367 0 l 367 417 l 783 417 l 783 0 l 1061 0 z m 506 1111 l 506 1250 l 644 1250 l 644 1111 l 922 1111 l 922 1250 l 783 1250 l 783 1389 l 367 1389 l 367 1250 l 228 1250 l 228 1111 z "},"Ħ":{"ha":1150,"x_min":0,"x_max":0,"o":"m 1150 694 l 1150 833 l 1061 833 l 1061 972 l 783 972 l 783 833 l 367 833 l 367 972 l 89 972 l 89 833 l 0 833 l 0 694 l 89 694 l 89 0 l 367 0 l 367 417 l 783 417 l 783 0 l 1061 0 l 1061 694 z m 367 556 l 367 694 l 783 694 l 783 556 z "},"ħ":{"ha":1150,"x_min":0,"x_max":0,"o":"m 1150 694 l 1150 833 l 1061 833 l 1061 972 l 783 972 l 783 833 l 367 833 l 367 972 l 89 972 l 89 833 l 0 833 l 0 694 l 89 694 l 89 0 l 367 0 l 367 417 l 783 417 l 783 0 l 1061 0 l 1061 694 z m 367 556 l 367 694 l 783 694 l 783 556 z "},"Ĩ":{"ha":1150,"x_min":0,"x_max":0,"o":"m 992 972 l 158 972 l 158 833 l 436 833 l 436 139 l 158 139 l 158 0 l 992 0 l 992 139 l 714 139 l 714 833 l 992 833 z m 436 1111 l 436 1250 l 575 1250 l 575 1389 l 436 1389 l 436 1250 l 297 1250 l 297 1111 z m 714 1111 l 714 1250 l 853 1250 l 853 1389 l 714 1389 l 714 1250 l 575 1250 l 575 1111 z "},"ĩ":{"ha":1150,"x_min":0,"x_max":0,"o":"m 992 972 l 158 972 l 158 833 l 436 833 l 436 139 l 158 139 l 158 0 l 992 0 l 992 139 l 714 139 l 714 833 l 992 833 z m 436 1111 l 436 1250 l 575 1250 l 575 1389 l 436 1389 l 436 1250 l 297 1250 l 297 1111 z m 714 1111 l 714 1250 l 853 1250 l 853 1389 l 714 1389 l 714 1250 l 575 1250 l 575 1111 z "},"Ī":{"ha":1150,"x_min":0,"x_max":0,"o":"m 992 972 l 158 972 l 158 833 l 436 833 l 436 139 l 158 139 l 158 0 l 992 0 l 992 139 l 714 139 l 714 833 l 992 833 z m 783 1111 l 783 1250 l 367 1250 l 367 1111 z "},"ī":{"ha":1150,"x_min":0,"x_max":0,"o":"m 992 972 l 158 972 l 158 833 l 436 833 l 436 139 l 158 139 l 158 0 l 992 0 l 992 139 l 714 139 l 714 833 l 992 833 z m 783 1111 l 783 1250 l 367 1250 l 367 1111 z "},"Ĭ":{"ha":1150,"x_min":0,"x_max":0,"o":"m 992 972 l 158 972 l 158 833 l 436 833 l 436 139 l 158 139 l 158 0 l 992 0 l 992 139 l 714 139 l 714 833 l 992 833 z m 715 1389 l 715 1250 l 438 1250 l 438 1389 l 299 1389 l 299 1111 l 854 1111 l 854 1389 z "},"ĭ":{"ha":1150,"x_min":0,"x_max":0,"o":"m 992 972 l 158 972 l 158 833 l 436 833 l 436 139 l 158 139 l 158 0 l 992 0 l 992 139 l 714 139 l 714 833 l 992 833 z m 715 1389 l 715 1250 l 438 1250 l 438 1389 l 299 1389 l 299 1111 l 854 1111 l 854 1389 z "},"Į":{"ha":1150,"x_min":0,"x_max":0,"o":"m 992 -278 l 992 -139 l 714 -139 l 714 0 l 992 0 l 992 139 l 714 139 l 714 833 l 992 833 l 992 972 l 158 972 l 158 833 l 436 833 l 436 139 l 158 139 l 158 0 l 575 0 l 575 -278 z "},"į":{"ha":1150,"x_min":0,"x_max":0,"o":"m 992 -278 l 992 -139 l 714 -139 l 714 0 l 992 0 l 992 139 l 714 139 l 714 833 l 992 833 l 992 972 l 158 972 l 158 833 l 436 833 l 436 139 l 158 139 l 158 0 l 575 0 l 575 -278 z "},"İ":{"ha":1150,"x_min":0,"x_max":0,"o":"m 992 972 l 158 972 l 158 833 l 436 833 l 436 139 l 158 139 l 158 0 l 992 0 l 992 139 l 714 139 l 714 833 l 992 833 z m 436 1111 l 714 1111 l 714 1389 l 436 1389 z "},"Ĳ":{"ha":1150,"x_min":0,"x_max":0,"o":"m 53 972 l 53 0 l 331 0 l 331 972 z m 1106 972 l 826 972 l 826 139 l 663 139 l 663 278 l 386 278 l 386 139 l 522 139 l 522 0 l 965 0 l 965 142 l 1106 142 z "},"ĳ":{"ha":1150,"x_min":0,"x_max":0,"o":"m 53 972 l 53 0 l 331 0 l 331 972 z m 1106 972 l 826 972 l 826 139 l 663 139 l 663 278 l 386 278 l 386 139 l 522 139 l 522 0 l 965 0 l 965 142 l 1106 142 z "},"Ĵ":{"ha":1150,"x_min":0,"x_max":0,"o":"m 1061 972 l 783 972 l 783 139 l 367 139 l 367 278 l 89 278 l 89 139 l 228 139 l 228 0 l 922 0 l 922 139 l 1061 139 z m 644 1111 l 644 1250 l 783 1250 l 783 1111 l 1061 1111 l 1061 1250 l 922 1250 l 922 1389 l 506 1389 l 506 1250 l 367 1250 l 367 1111 z "},"ĵ":{"ha":1150,"x_min":0,"x_max":0,"o":"m 1061 972 l 783 972 l 783 139 l 367 139 l 367 278 l 89 278 l 89 139 l 228 139 l 228 0 l 922 0 l 922 139 l 1061 139 z m 644 1111 l 644 1250 l 783 1250 l 783 1111 l 1061 1111 l 1061 1250 l 922 1250 l 922 1389 l 506 1389 l 506 1250 l 367 1250 l 367 1111 z "},"Ķ":{"ha":1150,"x_min":0,"x_max":0,"o":"m 1061 139 l 922 139 l 922 278 l 783 278 l 783 417 l 644 417 l 644 556 l 783 556 l 783 694 l 922 694 l 922 833 l 1061 833 l 1061 972 l 783 972 l 783 833 l 644 833 l 644 694 l 506 694 l 506 556 l 367 556 l 367 972 l 89 972 l 89 0 l 367 0 l 367 278 l 506 278 l 506 139 l 644 139 l 644 0 l 1061 0 z m 506 -278 l 506 -139 l 644 -139 l 644 0 l 367 0 l 367 -139 l 228 -139 l 228 -278 z "},"ķ":{"ha":1150,"x_min":0,"x_max":0,"o":"m 1061 139 l 922 139 l 922 278 l 783 278 l 783 417 l 644 417 l 644 556 l 783 556 l 783 694 l 922 694 l 922 833 l 1061 833 l 1061 972 l 783 972 l 783 833 l 644 833 l 644 694 l 506 694 l 506 556 l 367 556 l 367 972 l 89 972 l 89 0 l 367 0 l 367 278 l 506 278 l 506 139 l 644 139 l 644 0 l 1061 0 z m 506 -278 l 506 -139 l 644 -139 l 644 0 l 367 0 l 367 -139 l 228 -139 l 228 -278 z "},"Ĺ":{"ha":1150,"x_min":0,"x_max":0,"o":"m 1061 139 l 367 139 l 367 972 l 89 972 l 89 0 l 1061 0 z m 367 1111 l 367 1250 l 506 1250 l 506 1389 l 228 1389 l 228 1250 l 89 1250 l 89 1111 z "},"ĺ":{"ha":1150,"x_min":0,"x_max":0,"o":"m 1061 139 l 367 139 l 367 972 l 89 972 l 89 0 l 1061 0 z m 367 1111 l 367 1250 l 506 1250 l 506 1389 l 228 1389 l 228 1250 l 89 1250 l 89 1111 z "},"Ļ":{"ha":1150,"x_min":0,"x_max":0,"o":"m 644 -278 l 644 -139 l 783 -139 l 783 0 l 1061 0 l 1061 139 l 367 139 l 367 972 l 89 972 l 89 0 l 506 0 l 506 -139 l 367 -139 l 367 -278 z "},"ļ":{"ha":1150,"x_min":0,"x_max":0,"o":"m 644 -278 l 644 -139 l 783 -139 l 783 0 l 1061 0 l 1061 139 l 367 139 l 367 972 l 89 972 l 89 0 l 506 0 l 506 -139 l 367 -139 l 367 -278 z "},"Ľ":{"ha":1150,"x_min":0,"x_max":0,"o":"m 1061 139 l 367 139 l 367 972 l 89 972 l 89 0 l 1061 0 z m 922 972 l 644 972 l 644 694 l 783 694 l 783 556 l 922 556 z m 783 556 l 644 556 l 644 417 l 783 417 z "},"ľ":{"ha":1150,"x_min":0,"x_max":0,"o":"m 1061 139 l 367 139 l 367 972 l 89 972 l 89 0 l 1061 0 z m 922 972 l 644 972 l 644 694 l 783 694 l 783 556 l 922 556 z m 783 556 l 644 556 l 644 417 l 783 417 z "},"Ł":{"ha":1150,"x_min":0,"x_max":0,"o":"m 1061 139 l 506 139 l 506 556 l 644 556 l 644 694 l 506 694 l 506 972 l 228 972 l 228 417 l 89 417 l 89 278 l 228 278 l 228 0 l 1061 0 z "},"ł":{"ha":1150,"x_min":0,"x_max":0,"o":"m 1061 139 l 506 139 l 506 556 l 644 556 l 644 694 l 506 694 l 506 972 l 228 972 l 228 417 l 89 417 l 89 278 l 228 278 l 228 0 l 1061 0 z "},"Ń":{"ha":1150,"x_min":0,"x_max":0,"o":"m 1061 972 l 783 972 l 783 556 l 644 556 l 644 694 l 506 694 l 506 833 l 367 833 l 367 972 l 89 972 l 89 0 l 367 0 l 367 417 l 506 417 l 506 278 l 644 278 l 644 139 l 783 139 l 783 0 l 1061 0 z m 700 1111 l 700 1250 l 839 1250 l 839 1389 l 561 1389 l 561 1250 l 422 1250 l 422 1111 z "},"ń":{"ha":1150,"x_min":0,"x_max":0,"o":"m 1061 972 l 783 972 l 783 556 l 644 556 l 644 694 l 506 694 l 506 833 l 367 833 l 367 972 l 89 972 l 89 0 l 367 0 l 367 417 l 506 417 l 506 278 l 644 278 l 644 139 l 783 139 l 783 0 l 1061 0 z m 700 1111 l 700 1250 l 839 1250 l 839 1389 l 561 1389 l 561 1250 l 422 1250 l 422 1111 z "},"Ņ":{"ha":1150,"x_min":0,"x_max":0,"o":"m 1061 972 l 783 972 l 783 556 l 644 556 l 644 694 l 506 694 l 506 833 l 367 833 l 367 972 l 89 972 l 89 0 l 367 0 l 367 417 l 506 417 l 506 278 l 644 278 l 644 139 l 783 139 l 783 0 l 1061 0 z m 575 -278 l 575 -139 l 714 -139 l 714 0 l 436 0 l 436 -139 l 297 -139 l 297 -278 z "},"ņ":{"ha":1150,"x_min":0,"x_max":0,"o":"m 1061 972 l 783 972 l 783 556 l 644 556 l 644 694 l 506 694 l 506 833 l 367 833 l 367 972 l 89 972 l 89 0 l 367 0 l 367 417 l 506 417 l 506 278 l 644 278 l 644 139 l 783 139 l 783 0 l 1061 0 z m 575 -278 l 575 -139 l 714 -139 l 714 0 l 436 0 l 436 -139 l 297 -139 l 297 -278 z "},"Ň":{"ha":1150,"x_min":0,"x_max":0,"o":"m 1061 972 l 783 972 l 783 556 l 644 556 l 644 694 l 506 694 l 506 833 l 367 833 l 367 972 l 89 972 l 89 0 l 367 0 l 367 417 l 506 417 l 506 278 l 644 278 l 644 139 l 783 139 l 783 0 l 1061 0 z m 644 1389 l 644 1250 l 506 1250 l 506 1389 l 228 1389 l 228 1250 l 367 1250 l 367 1111 l 783 1111 l 783 1250 l 922 1250 l 922 1389 z "},"ň":{"ha":1150,"x_min":0,"x_max":0,"o":"m 1061 972 l 783 972 l 783 556 l 644 556 l 644 694 l 506 694 l 506 833 l 367 833 l 367 972 l 89 972 l 89 0 l 367 0 l 367 417 l 506 417 l 506 278 l 644 278 l 644 139 l 783 139 l 783 0 l 1061 0 z m 644 1389 l 644 1250 l 506 1250 l 506 1389 l 228 1389 l 228 1250 l 367 1250 l 367 1111 l 783 1111 l 783 1250 l 922 1250 l 922 1389 z "},"Ŋ":{"ha":1150,"x_min":0,"x_max":0,"o":"m 1061 833 l 922 833 l 922 972 l 89 972 l 89 0 l 367 0 l 367 833 l 783 833 l 783 -139 l 506 -139 l 506 -278 l 922 -278 l 922 -139 l 1061 -139 z "},"ŋ":{"ha":1150,"x_min":0,"x_max":0,"o":"m 1061 833 l 922 833 l 922 972 l 89 972 l 89 0 l 367 0 l 367 833 l 783 833 l 783 -139 l 506 -139 l 506 -278 l 922 -278 l 922 -139 l 1061 -139 z "},"Ō":{"ha":1150,"x_min":0,"x_max":0,"o":"m 1061 833 l 922 833 l 922 972 l 228 972 l 228 833 l 89 833 l 89 139 l 228 139 l 228 0 l 922 0 l 922 139 l 1061 139 z m 367 139 l 367 833 l 783 833 l 783 139 z m 783 1111 l 783 1250 l 367 1250 l 367 1111 z "},"ō":{"ha":1150,"x_min":0,"x_max":0,"o":"m 1061 833 l 922 833 l 922 972 l 228 972 l 228 833 l 89 833 l 89 139 l 228 139 l 228 0 l 922 0 l 922 139 l 1061 139 z m 367 139 l 367 833 l 783 833 l 783 139 z m 783 1111 l 783 1250 l 367 1250 l 367 1111 z "},"":{"ha":1150,"x_min":0,"x_max":0,"o":"m 1061 833 l 922 833 l 922 972 l 228 972 l 228 833 l 89 833 l 89 139 l 228 139 l 228 0 l 922 0 l 922 139 l 1061 139 z m 367 139 l 367 833 l 783 833 l 783 139 z m 783 1111 l 783 1250 l 367 1250 l 367 1111 z "},"":{"ha":1150,"x_min":0,"x_max":0,"o":"m 1061 833 l 922 833 l 922 972 l 228 972 l 228 833 l 89 833 l 89 139 l 228 139 l 228 0 l 922 0 l 922 139 l 1061 139 z m 367 139 l 367 833 l 783 833 l 783 139 z m 783 1111 l 783 1250 l 367 1250 l 367 1111 z "},"Ŏ":{"ha":1150,"x_min":0,"x_max":0,"o":"m 1061 833 l 922 833 l 922 972 l 228 972 l 228 833 l 89 833 l 89 139 l 228 139 l 228 0 l 922 0 l 922 139 l 1061 139 z m 367 139 l 367 833 l 783 833 l 783 139 z m 714 1389 l 714 1250 l 436 1250 l 436 1389 l 297 1389 l 297 1111 l 853 1111 l 853 1389 z "},"ŏ":{"ha":1150,"x_min":0,"x_max":0,"o":"m 1061 833 l 922 833 l 922 972 l 228 972 l 228 833 l 89 833 l 89 139 l 228 139 l 228 0 l 922 0 l 922 139 l 1061 139 z m 367 139 l 367 833 l 783 833 l 783 139 z m 714 1389 l 714 1250 l 436 1250 l 436 1389 l 297 1389 l 297 1111 l 853 1111 l 853 1389 z "},"":{"ha":1150,"x_min":0,"x_max":0,"o":"m 1061 833 l 922 833 l 922 972 l 228 972 l 228 833 l 89 833 l 89 139 l 228 139 l 228 0 l 922 0 l 922 139 l 1061 139 z m 367 139 l 367 833 l 783 833 l 783 139 z m 714 1389 l 714 1250 l 436 1250 l 436 1389 l 297 1389 l 297 1111 l 853 1111 l 853 1389 z "},"":{"ha":1150,"x_min":0,"x_max":0,"o":"m 1061 833 l 922 833 l 922 972 l 228 972 l 228 833 l 89 833 l 89 139 l 228 139 l 228 0 l 922 0 l 922 139 l 1061 139 z m 367 139 l 367 833 l 783 833 l 783 139 z m 714 1389 l 714 1250 l 436 1250 l 436 1389 l 297 1389 l 297 1111 l 853 1111 l 853 1389 z "},"Ő":{"ha":1150,"x_min":0,"x_max":0,"o":"m 1061 833 l 922 833 l 922 972 l 228 972 l 228 833 l 89 833 l 89 139 l 228 139 l 228 0 l 922 0 l 922 139 l 1061 139 z m 367 139 l 367 833 l 783 833 l 783 139 z m 506 1111 l 506 1250 l 644 1250 l 644 1389 l 367 1389 l 367 1250 l 228 1250 l 228 1111 z m 922 1111 l 922 1250 l 1061 1250 l 1061 1389 l 783 1389 l 783 1250 l 644 1250 l 644 1111 z "},"ő":{"ha":1150,"x_min":0,"x_max":0,"o":"m 1061 833 l 922 833 l 922 972 l 228 972 l 228 833 l 89 833 l 89 139 l 228 139 l 228 0 l 922 0 l 922 139 l 1061 139 z m 367 139 l 367 833 l 783 833 l 783 139 z m 506 1111 l 506 1250 l 644 1250 l 644 1389 l 367 1389 l 367 1250 l 228 1250 l 228 1111 z m 922 1111 l 922 1250 l 1061 1250 l 1061 1389 l 783 1389 l 783 1250 l 644 1250 l 644 1111 z "},"Œ":{"ha":1150,"x_min":0,"x_max":0,"o":"m 1118 139 l 779 139 l 779 417 l 1049 417 l 1049 556 l 779 556 l 779 833 l 1118 833 l 1118 972 l 164 972 l 164 833 l 25 833 l 25 139 l 164 139 l 164 0 l 1118 0 z m 303 139 l 303 833 l 500 833 l 500 139 z "},"œ":{"ha":1150,"x_min":0,"x_max":0,"o":"m 1118 139 l 779 139 l 779 417 l 1049 417 l 1049 556 l 779 556 l 779 833 l 1118 833 l 1118 972 l 164 972 l 164 833 l 25 833 l 25 139 l 164 139 l 164 0 l 1118 0 z m 303 139 l 303 833 l 500 833 l 500 139 z "},"Ŕ":{"ha":1150,"x_min":0,"x_max":0,"o":"m 1061 139 l 922 139 l 922 278 l 783 278 l 783 417 l 1061 417 l 1061 833 l 922 833 l 922 972 l 89 972 l 89 0 l 367 0 l 367 278 l 506 278 l 506 139 l 644 139 l 644 0 l 1061 0 z m 644 556 l 644 417 l 367 417 l 367 833 l 783 833 l 783 556 z m 644 1111 l 644 1250 l 783 1250 l 783 1389 l 506 1389 l 506 1250 l 367 1250 l 367 1111 z "},"ŕ":{"ha":1150,"x_min":0,"x_max":0,"o":"m 1061 139 l 922 139 l 922 278 l 783 278 l 783 417 l 1061 417 l 1061 833 l 922 833 l 922 972 l 89 972 l 89 0 l 367 0 l 367 278 l 506 278 l 506 139 l 644 139 l 644 0 l 1061 0 z m 644 556 l 644 417 l 367 417 l 367 833 l 783 833 l 783 556 z m 644 1111 l 644 1250 l 783 1250 l 783 1389 l 506 1389 l 506 1250 l 367 1250 l 367 1111 z "},"Ŗ":{"ha":1150,"x_min":0,"x_max":0,"o":"m 1061 139 l 922 139 l 922 278 l 783 278 l 783 417 l 1061 417 l 1061 833 l 922 833 l 922 972 l 89 972 l 89 0 l 367 0 l 367 278 l 506 278 l 506 139 l 644 139 l 644 0 l 1061 0 z m 644 556 l 644 417 l 367 417 l 367 833 l 783 833 l 783 556 z m 506 -278 l 506 -139 l 644 -139 l 644 0 l 367 0 l 367 -139 l 228 -139 l 228 -278 z "},"ŗ":{"ha":1150,"x_min":0,"x_max":0,"o":"m 1061 139 l 922 139 l 922 278 l 783 278 l 783 417 l 1061 417 l 1061 833 l 922 833 l 922 972 l 89 972 l 89 0 l 367 0 l 367 278 l 506 278 l 506 139 l 644 139 l 644 0 l 1061 0 z m 644 556 l 644 417 l 367 417 l 367 833 l 783 833 l 783 556 z m 506 -278 l 506 -139 l 644 -139 l 644 0 l 367 0 l 367 -139 l 228 -139 l 228 -278 z "},"Ř":{"ha":1150,"x_min":0,"x_max":0,"o":"m 1061 139 l 922 139 l 922 278 l 783 278 l 783 417 l 1061 417 l 1061 833 l 922 833 l 922 972 l 89 972 l 89 0 l 367 0 l 367 278 l 506 278 l 506 139 l 644 139 l 644 0 l 1061 0 z m 644 556 l 644 417 l 367 417 l 367 833 l 783 833 l 783 556 z m 601 1389 l 601 1250 l 463 1250 l 463 1389 l 185 1389 l 185 1250 l 324 1250 l 324 1111 l 740 1111 l 740 1250 l 879 1250 l 879 1389 z "},"ř":{"ha":1150,"x_min":0,"x_max":0,"o":"m 1061 139 l 922 139 l 922 278 l 783 278 l 783 417 l 1061 417 l 1061 833 l 922 833 l 922 972 l 89 972 l 89 0 l 367 0 l 367 278 l 506 278 l 506 139 l 644 139 l 644 0 l 1061 0 z m 644 556 l 644 417 l 367 417 l 367 833 l 783 833 l 783 556 z m 601 1389 l 601 1250 l 463 1250 l 463 1389 l 185 1389 l 185 1250 l 324 1250 l 324 1111 l 740 1111 l 740 1250 l 879 1250 l 879 1389 z "},"Ś":{"ha":1150,"x_min":0,"x_max":0,"o":"m 1061 417 l 922 417 l 922 556 l 367 556 l 367 833 l 644 833 l 644 694 l 922 694 l 922 833 l 783 833 l 783 972 l 228 972 l 228 833 l 89 833 l 89 556 l 228 556 l 228 417 l 783 417 l 783 139 l 367 139 l 367 278 l 89 278 l 89 139 l 228 139 l 228 0 l 922 0 l 922 139 l 1061 139 z m 644 1111 l 644 1250 l 783 1250 l 783 1389 l 506 1389 l 506 1250 l 367 1250 l 367 1111 z "},"ś":{"ha":1150,"x_min":0,"x_max":0,"o":"m 1061 417 l 922 417 l 922 556 l 367 556 l 367 833 l 644 833 l 644 694 l 922 694 l 922 833 l 783 833 l 783 972 l 228 972 l 228 833 l 89 833 l 89 556 l 228 556 l 228 417 l 783 417 l 783 139 l 367 139 l 367 278 l 89 278 l 89 139 l 228 139 l 228 0 l 922 0 l 922 139 l 1061 139 z m 644 1111 l 644 1250 l 783 1250 l 783 1389 l 506 1389 l 506 1250 l 367 1250 l 367 1111 z "},"Ŝ":{"ha":1150,"x_min":0,"x_max":0,"o":"m 1061 417 l 922 417 l 922 556 l 367 556 l 367 833 l 644 833 l 644 694 l 922 694 l 922 833 l 783 833 l 783 972 l 228 972 l 228 833 l 89 833 l 89 556 l 228 556 l 228 417 l 783 417 l 783 139 l 367 139 l 367 278 l 89 278 l 89 139 l 228 139 l 228 0 l 922 0 l 922 139 l 1061 139 z m 506 1111 l 506 1250 l 644 1250 l 644 1111 l 922 1111 l 922 1250 l 783 1250 l 783 1389 l 367 1389 l 367 1250 l 228 1250 l 228 1111 z "},"ŝ":{"ha":1150,"x_min":0,"x_max":0,"o":"m 1061 417 l 922 417 l 922 556 l 367 556 l 367 833 l 644 833 l 644 694 l 922 694 l 922 833 l 783 833 l 783 972 l 228 972 l 228 833 l 89 833 l 89 556 l 228 556 l 228 417 l 783 417 l 783 139 l 367 139 l 367 278 l 89 278 l 89 139 l 228 139 l 228 0 l 922 0 l 922 139 l 1061 139 z m 506 1111 l 506 1250 l 644 1250 l 644 1111 l 922 1111 l 922 1250 l 783 1250 l 783 1389 l 367 1389 l 367 1250 l 228 1250 l 228 1111 z "},"Ş":{"ha":1150,"x_min":0,"x_max":0,"o":"m 1061 417 l 922 417 l 922 556 l 367 556 l 367 833 l 644 833 l 644 694 l 922 694 l 922 833 l 783 833 l 783 972 l 228 972 l 228 833 l 89 833 l 89 556 l 228 556 l 228 417 l 783 417 l 783 139 l 367 139 l 367 278 l 89 278 l 89 139 l 228 139 l 228 0 l 506 0 l 506 -139 l 367 -139 l 367 -278 l 643 -278 l 643 -139 l 783 -139 l 783 0 l 922 0 l 922 139 l 1061 139 z "},"ş":{"ha":1150,"x_min":0,"x_max":0,"o":"m 1061 417 l 922 417 l 922 556 l 367 556 l 367 833 l 644 833 l 644 694 l 922 694 l 922 833 l 783 833 l 783 972 l 228 972 l 228 833 l 89 833 l 89 556 l 228 556 l 228 417 l 783 417 l 783 139 l 367 139 l 367 278 l 89 278 l 89 139 l 228 139 l 228 0 l 506 0 l 506 -139 l 367 -139 l 367 -278 l 643 -278 l 643 -139 l 783 -139 l 783 0 l 922 0 l 922 139 l 1061 139 z "},"Ș":{"ha":1150,"x_min":0,"x_max":0,"o":"m 1061 417 l 922 417 l 922 556 l 367 556 l 367 833 l 644 833 l 644 694 l 922 694 l 922 833 l 783 833 l 783 972 l 228 972 l 228 833 l 89 833 l 89 556 l 228 556 l 228 417 l 783 417 l 783 139 l 367 139 l 367 278 l 89 278 l 89 139 l 228 139 l 228 0 l 506 0 l 506 -139 l 367 -139 l 367 -278 l 643 -278 l 643 -139 l 783 -139 l 783 0 l 922 0 l 922 139 l 1061 139 z "},"ș":{"ha":1150,"x_min":0,"x_max":0,"o":"m 1061 417 l 922 417 l 922 556 l 367 556 l 367 833 l 644 833 l 644 694 l 922 694 l 922 833 l 783 833 l 783 972 l 228 972 l 228 833 l 89 833 l 89 556 l 228 556 l 228 417 l 783 417 l 783 139 l 367 139 l 367 278 l 89 278 l 89 139 l 228 139 l 228 0 l 506 0 l 506 -139 l 367 -139 l 367 -278 l 643 -278 l 643 -139 l 783 -139 l 783 0 l 922 0 l 922 139 l 1061 139 z "},"Š":{"ha":1150,"x_min":0,"x_max":0,"o":"m 1061 417 l 922 417 l 922 556 l 367 556 l 367 833 l 644 833 l 644 694 l 922 694 l 922 833 l 783 833 l 783 972 l 228 972 l 228 833 l 89 833 l 89 556 l 228 556 l 228 417 l 783 417 l 783 139 l 367 139 l 367 278 l 89 278 l 89 139 l 228 139 l 228 0 l 922 0 l 922 139 l 1061 139 z m 625 1389 l 625 1250 l 486 1250 l 486 1389 l 208 1389 l 208 1250 l 347 1250 l 347 1111 l 764 1111 l 764 1250 l 903 1250 l 903 1389 z "},"š":{"ha":1150,"x_min":0,"x_max":0,"o":"m 1061 417 l 922 417 l 922 556 l 367 556 l 367 833 l 644 833 l 644 694 l 922 694 l 922 833 l 783 833 l 783 972 l 228 972 l 228 833 l 89 833 l 89 556 l 228 556 l 228 417 l 783 417 l 783 139 l 367 139 l 367 278 l 89 278 l 89 139 l 228 139 l 228 0 l 922 0 l 922 139 l 1061 139 z m 625 1389 l 625 1250 l 486 1250 l 486 1389 l 208 1389 l 208 1250 l 347 1250 l 347 1111 l 764 1111 l 764 1250 l 903 1250 l 903 1389 z "},"Ţ":{"ha":1150,"x_min":0,"x_max":0,"o":"m 992 972 l 158 972 l 158 833 l 436 833 l 436 -139 l 297 -139 l 297 -278 l 575 -278 l 575 -139 l 714 -139 l 714 833 l 992 833 z "},"ţ":{"ha":1150,"x_min":0,"x_max":0,"o":"m 992 972 l 158 972 l 158 833 l 436 833 l 436 -139 l 297 -139 l 297 -278 l 575 -278 l 575 -139 l 714 -139 l 714 833 l 992 833 z "},"Ț":{"ha":1150,"x_min":0,"x_max":0,"o":"m 992 972 l 158 972 l 158 833 l 436 833 l 436 -139 l 297 -139 l 297 -278 l 575 -278 l 575 -139 l 714 -139 l 714 833 l 992 833 z "},"ț":{"ha":1150,"x_min":0,"x_max":0,"o":"m 992 972 l 158 972 l 158 833 l 436 833 l 436 -139 l 297 -139 l 297 -278 l 575 -278 l 575 -139 l 714 -139 l 714 833 l 992 833 z "},"Ť":{"ha":1150,"x_min":0,"x_max":0,"o":"m 992 972 l 158 972 l 158 833 l 436 833 l 436 0 l 714 0 l 714 833 l 992 833 z m 646 1389 l 646 1250 l 507 1250 l 507 1389 l 229 1389 l 229 1250 l 368 1250 l 368 1111 l 785 1111 l 785 1250 l 924 1250 l 924 1389 z "},"ť":{"ha":1150,"x_min":0,"x_max":0,"o":"m 992 972 l 158 972 l 158 833 l 436 833 l 436 0 l 714 0 l 714 833 l 992 833 z m 646 1389 l 646 1250 l 507 1250 l 507 1389 l 229 1389 l 229 1250 l 368 1250 l 368 1111 l 785 1111 l 785 1250 l 924 1250 l 924 1389 z "},"Ŧ":{"ha":1150,"x_min":0,"x_max":0,"o":"m 992 556 l 714 556 l 714 833 l 992 833 l 992 972 l 158 972 l 158 833 l 436 833 l 436 556 l 158 556 l 158 417 l 436 417 l 436 0 l 714 0 l 714 417 l 992 417 z "},"ŧ":{"ha":1150,"x_min":0,"x_max":0,"o":"m 992 556 l 714 556 l 714 833 l 992 833 l 992 972 l 158 972 l 158 833 l 436 833 l 436 556 l 158 556 l 158 417 l 436 417 l 436 0 l 714 0 l 714 417 l 992 417 z "},"Ũ":{"ha":1150,"x_min":0,"x_max":0,"o":"m 1061 972 l 783 972 l 783 139 l 367 139 l 367 972 l 89 972 l 89 139 l 228 139 l 228 0 l 922 0 l 922 139 l 1061 139 z m 436 1111 l 436 1250 l 575 1250 l 575 1389 l 436 1389 l 436 1250 l 297 1250 l 297 1111 z m 714 1111 l 714 1250 l 853 1250 l 853 1389 l 714 1389 l 714 1250 l 575 1250 l 575 1111 z "},"ũ":{"ha":1150,"x_min":0,"x_max":0,"o":"m 1061 972 l 783 972 l 783 139 l 367 139 l 367 972 l 89 972 l 89 139 l 228 139 l 228 0 l 922 0 l 922 139 l 1061 139 z m 436 1111 l 436 1250 l 575 1250 l 575 1389 l 436 1389 l 436 1250 l 297 1250 l 297 1111 z m 714 1111 l 714 1250 l 853 1250 l 853 1389 l 714 1389 l 714 1250 l 575 1250 l 575 1111 z "},"Ū":{"ha":1150,"x_min":0,"x_max":0,"o":"m 1061 972 l 783 972 l 783 139 l 367 139 l 367 972 l 89 972 l 89 139 l 228 139 l 228 0 l 922 0 l 922 139 l 1061 139 z m 783 1111 l 783 1250 l 367 1250 l 367 1111 z "},"ū":{"ha":1150,"x_min":0,"x_max":0,"o":"m 1061 972 l 783 972 l 783 139 l 367 139 l 367 972 l 89 972 l 89 139 l 228 139 l 228 0 l 922 0 l 922 139 l 1061 139 z m 783 1111 l 783 1250 l 367 1250 l 367 1111 z "},"Ŭ":{"ha":1150,"x_min":0,"x_max":0,"o":"m 1061 972 l 783 972 l 783 139 l 367 139 l 367 972 l 89 972 l 89 139 l 228 139 l 228 0 l 922 0 l 922 139 l 1061 139 z m 714 1389 l 714 1250 l 436 1250 l 436 1389 l 297 1389 l 297 1111 l 853 1111 l 853 1389 z "},"ŭ":{"ha":1150,"x_min":0,"x_max":0,"o":"m 1061 972 l 783 972 l 783 139 l 367 139 l 367 972 l 89 972 l 89 139 l 228 139 l 228 0 l 922 0 l 922 139 l 1061 139 z m 714 1389 l 714 1250 l 436 1250 l 436 1389 l 297 1389 l 297 1111 l 853 1111 l 853 1389 z "},"Ů":{"ha":1150,"x_min":0,"x_max":0,"o":"m 1061 972 l 783 972 l 783 139 l 367 139 l 367 972 l 89 972 l 89 139 l 228 139 l 228 0 l 922 0 l 922 139 l 1061 139 z m 782 1389 l 365 1389 l 365 972 l 782 972 z m 504 1111 l 504 1250 l 643 1250 l 643 1111 z "},"ů":{"ha":1150,"x_min":0,"x_max":0,"o":"m 1061 972 l 783 972 l 783 139 l 367 139 l 367 972 l 89 972 l 89 139 l 228 139 l 228 0 l 922 0 l 922 139 l 1061 139 z m 782 1389 l 365 1389 l 365 972 l 782 972 z m 504 1111 l 504 1250 l 643 1250 l 643 1111 z "},"Ű":{"ha":1150,"x_min":0,"x_max":0,"o":"m 1061 972 l 783 972 l 783 139 l 367 139 l 367 972 l 89 972 l 89 139 l 228 139 l 228 0 l 922 0 l 922 139 l 1061 139 z m 492 1111 l 492 1250 l 631 1250 l 631 1389 l 353 1389 l 353 1250 l 214 1250 l 214 1111 z m 908 1111 l 908 1250 l 1047 1250 l 1047 1389 l 769 1389 l 769 1250 l 631 1250 l 631 1111 z "},"ű":{"ha":1150,"x_min":0,"x_max":0,"o":"m 1061 972 l 783 972 l 783 139 l 367 139 l 367 972 l 89 972 l 89 139 l 228 139 l 228 0 l 922 0 l 922 139 l 1061 139 z m 492 1111 l 492 1250 l 631 1250 l 631 1389 l 353 1389 l 353 1250 l 214 1250 l 214 1111 z m 908 1111 l 908 1250 l 1047 1250 l 1047 1389 l 769 1389 l 769 1250 l 631 1250 l 631 1111 z "},"Ų":{"ha":1150,"x_min":0,"x_max":0,"o":"m 922 -278 l 922 -139 l 644 -139 l 644 0 l 922 0 l 922 139 l 1061 139 l 1061 972 l 783 972 l 783 139 l 367 139 l 367 972 l 89 972 l 89 139 l 228 139 l 228 0 l 506 0 l 506 -278 z "},"ų":{"ha":1150,"x_min":0,"x_max":0,"o":"m 922 -278 l 922 -139 l 644 -139 l 644 0 l 922 0 l 922 139 l 1061 139 l 1061 972 l 783 972 l 783 139 l 367 139 l 367 972 l 89 972 l 89 139 l 228 139 l 228 0 l 506 0 l 506 -278 z "},"Ŵ":{"ha":1150,"x_min":0,"x_max":0,"o":"m 1061 972 l 783 972 l 783 556 l 644 556 l 644 694 l 506 694 l 506 556 l 367 556 l 367 972 l 89 972 l 89 0 l 367 0 l 367 139 l 506 139 l 506 278 l 644 278 l 644 139 l 783 139 l 783 0 l 1061 0 z m 506 1111 l 506 1250 l 644 1250 l 644 1111 l 922 1111 l 922 1250 l 783 1250 l 783 1389 l 367 1389 l 367 1250 l 228 1250 l 228 1111 z "},"ŵ":{"ha":1150,"x_min":0,"x_max":0,"o":"m 1061 972 l 783 972 l 783 556 l 644 556 l 644 694 l 506 694 l 506 556 l 367 556 l 367 972 l 89 972 l 89 0 l 367 0 l 367 139 l 506 139 l 506 278 l 644 278 l 644 139 l 783 139 l 783 0 l 1061 0 z m 506 1111 l 506 1250 l 644 1250 l 644 1111 l 922 1111 l 922 1250 l 783 1250 l 783 1389 l 367 1389 l 367 1250 l 228 1250 l 228 1111 z "},"Ŷ":{"ha":1150,"x_min":0,"x_max":0,"o":"m 992 972 l 714 972 l 714 556 l 436 556 l 436 972 l 158 972 l 158 556 l 296 556 l 296 417 l 436 417 l 436 0 l 714 0 l 714 417 l 853 417 l 853 556 l 992 556 z m 486 1111 l 486 1250 l 625 1250 l 625 1111 l 903 1111 l 903 1250 l 764 1250 l 764 1389 l 347 1389 l 347 1250 l 208 1250 l 208 1111 z "},"ŷ":{"ha":1150,"x_min":0,"x_max":0,"o":"m 992 972 l 714 972 l 714 556 l 436 556 l 436 972 l 158 972 l 158 556 l 296 556 l 296 417 l 436 417 l 436 0 l 714 0 l 714 417 l 853 417 l 853 556 l 992 556 z m 486 1111 l 486 1250 l 625 1250 l 625 1111 l 903 1111 l 903 1250 l 764 1250 l 764 1389 l 347 1389 l 347 1250 l 208 1250 l 208 1111 z "},"Ź":{"ha":1150,"x_min":0,"x_max":0,"o":"m 1061 139 l 506 139 l 506 278 l 644 278 l 644 417 l 783 417 l 783 556 l 922 556 l 922 694 l 1061 694 l 1061 972 l 89 972 l 89 833 l 644 833 l 644 694 l 506 694 l 506 556 l 367 556 l 367 417 l 228 417 l 228 278 l 89 278 l 89 0 l 1061 0 z m 690 1111 l 690 1250 l 829 1250 l 829 1389 l 551 1389 l 551 1250 l 413 1250 l 413 1111 z "},"ź":{"ha":1150,"x_min":0,"x_max":0,"o":"m 1061 139 l 506 139 l 506 278 l 644 278 l 644 417 l 783 417 l 783 556 l 922 556 l 922 694 l 1061 694 l 1061 972 l 89 972 l 89 833 l 644 833 l 644 694 l 506 694 l 506 556 l 367 556 l 367 417 l 228 417 l 228 278 l 89 278 l 89 0 l 1061 0 z m 690 1111 l 690 1250 l 829 1250 l 829 1389 l 551 1389 l 551 1250 l 413 1250 l 413 1111 z "},"Ż":{"ha":1150,"x_min":0,"x_max":0,"o":"m 1061 139 l 506 139 l 506 278 l 644 278 l 644 417 l 783 417 l 783 556 l 922 556 l 922 694 l 1061 694 l 1061 972 l 89 972 l 89 833 l 644 833 l 644 694 l 506 694 l 506 556 l 367 556 l 367 417 l 228 417 l 228 278 l 89 278 l 89 0 l 1061 0 z m 426 1111 l 704 1111 l 704 1389 l 426 1389 z "},"ż":{"ha":1150,"x_min":0,"x_max":0,"o":"m 1061 139 l 506 139 l 506 278 l 644 278 l 644 417 l 783 417 l 783 556 l 922 556 l 922 694 l 1061 694 l 1061 972 l 89 972 l 89 833 l 644 833 l 644 694 l 506 694 l 506 556 l 367 556 l 367 417 l 228 417 l 228 278 l 89 278 l 89 0 l 1061 0 z m 426 1111 l 704 1111 l 704 1389 l 426 1389 z "},"Ž":{"ha":1150,"x_min":0,"x_max":0,"o":"m 1061 139 l 506 139 l 506 278 l 644 278 l 644 417 l 783 417 l 783 556 l 922 556 l 922 694 l 1061 694 l 1061 972 l 89 972 l 89 833 l 644 833 l 644 694 l 506 694 l 506 556 l 367 556 l 367 417 l 228 417 l 228 278 l 89 278 l 89 0 l 1061 0 z m 622 1389 l 622 1250 l 483 1250 l 483 1389 l 206 1389 l 206 1250 l 344 1250 l 344 1111 l 761 1111 l 761 1250 l 900 1250 l 900 1389 z "},"ž":{"ha":1150,"x_min":0,"x_max":0,"o":"m 1061 139 l 506 139 l 506 278 l 644 278 l 644 417 l 783 417 l 783 556 l 922 556 l 922 694 l 1061 694 l 1061 972 l 89 972 l 89 833 l 644 833 l 644 694 l 506 694 l 506 556 l 367 556 l 367 417 l 228 417 l 228 278 l 89 278 l 89 0 l 1061 0 z m 622 1389 l 622 1250 l 483 1250 l 483 1389 l 206 1389 l 206 1250 l 344 1250 l 344 1111 l 761 1111 l 761 1250 l 900 1250 l 900 1389 z "},"Ɓ":{"ha":1150,"x_min":0,"x_max":0,"o":"m 228 833 l 367 833 l 367 0 l 922 0 l 922 139 l 1061 139 l 1061 417 l 922 417 l 922 556 l 1061 556 l 1061 833 l 922 833 l 922 972 l 228 972 z m 89 556 l 228 556 l 228 833 l 89 833 z m 644 556 l 644 833 l 783 833 l 783 556 z m 644 139 l 644 417 l 783 417 l 783 139 z "},"ɓ":{"ha":1150,"x_min":0,"x_max":0,"o":"m 228 833 l 367 833 l 367 0 l 922 0 l 922 139 l 1061 139 l 1061 417 l 922 417 l 922 556 l 1061 556 l 1061 833 l 922 833 l 922 972 l 228 972 z m 89 556 l 228 556 l 228 833 l 89 833 z m 644 556 l 644 833 l 783 833 l 783 556 z m 644 139 l 644 417 l 783 417 l 783 139 z "},"Ƈ":{"ha":1150,"x_min":0,"x_max":0,"o":"m 507 833 l 922 833 l 922 972 l 1061 972 l 1061 1111 l 783 1111 l 783 972 l 367 972 l 367 833 l 228 833 l 228 694 l 89 694 l 89 278 l 228 278 l 228 139 l 367 139 l 367 0 l 922 0 l 922 139 l 1061 139 l 1061 278 l 783 278 l 783 139 l 506 139 l 506 278 l 367 278 l 367 694 l 507 694 z "},"ƈ":{"ha":1150,"x_min":0,"x_max":0,"o":"m 507 833 l 922 833 l 922 972 l 1061 972 l 1061 1111 l 783 1111 l 783 972 l 367 972 l 367 833 l 228 833 l 228 694 l 89 694 l 89 278 l 228 278 l 228 139 l 367 139 l 367 0 l 922 0 l 922 139 l 1061 139 l 1061 278 l 783 278 l 783 139 l 506 139 l 506 278 l 367 278 l 367 694 l 507 694 z "},"Ɗ":{"ha":1150,"x_min":0,"x_max":0,"o":"m 783 833 l 783 694 l 922 694 l 922 278 l 1061 278 l 1061 694 l 922 694 l 922 833 l 783 833 l 783 972 l 228 972 l 228 833 l 367 833 l 367 0 l 783 0 l 783 139 l 644 139 l 644 833 z m 89 556 l 228 556 l 228 833 l 89 833 z m 922 139 l 922 278 l 783 278 l 783 139 z "},"ɗ":{"ha":1150,"x_min":0,"x_max":0,"o":"m 783 833 l 783 694 l 922 694 l 922 278 l 1061 278 l 1061 694 l 922 694 l 922 833 l 783 833 l 783 972 l 228 972 l 228 833 l 367 833 l 367 0 l 783 0 l 783 139 l 644 139 l 644 833 z m 89 556 l 228 556 l 228 833 l 89 833 z m 922 139 l 922 278 l 783 278 l 783 139 z "},"Ǝ":{"ha":1150,"x_min":0,"x_max":0,"o":"m 89 833 l 783 833 l 783 556 l 228 556 l 228 417 l 783 417 l 783 139 l 89 139 l 89 0 l 1061 0 l 1061 972 l 89 972 z "},"ǝ":{"ha":1150,"x_min":0,"x_max":0,"o":"m 89 833 l 783 833 l 783 556 l 228 556 l 228 417 l 783 417 l 783 139 l 89 139 l 89 0 l 1061 0 l 1061 972 l 89 972 z "},"Ə":{"ha":1150,"x_min":0,"x_max":0,"o":"m 89 694 l 367 694 l 367 833 l 783 833 l 783 556 l 89 556 l 89 139 l 228 139 l 228 0 l 922 0 l 922 139 l 1061 139 l 1061 833 l 922 833 l 922 972 l 228 972 l 228 833 l 89 833 z m 783 417 l 783 139 l 367 139 l 367 417 z "},"ə":{"ha":1150,"x_min":0,"x_max":0,"o":"m 89 694 l 367 694 l 367 833 l 783 833 l 783 556 l 89 556 l 89 139 l 228 139 l 228 0 l 922 0 l 922 139 l 1061 139 l 1061 833 l 922 833 l 922 972 l 228 972 l 228 833 l 89 833 z m 783 417 l 783 139 l 367 139 l 367 417 z "},"Ә":{"ha":1150,"x_min":0,"x_max":0,"o":"m 89 694 l 367 694 l 367 833 l 783 833 l 783 556 l 89 556 l 89 139 l 228 139 l 228 0 l 922 0 l 922 139 l 1061 139 l 1061 833 l 922 833 l 922 972 l 228 972 l 228 833 l 89 833 z m 783 417 l 783 139 l 367 139 l 367 417 z "},"ә":{"ha":1150,"x_min":0,"x_max":0,"o":"m 89 694 l 367 694 l 367 833 l 783 833 l 783 556 l 89 556 l 89 139 l 228 139 l 228 0 l 922 0 l 922 139 l 1061 139 l 1061 833 l 922 833 l 922 972 l 228 972 l 228 833 l 89 833 z m 783 417 l 783 139 l 367 139 l 367 417 z "},"ƒ":{"ha":1150,"x_min":0,"x_max":0,"o":"m 851 556 l 714 556 l 714 972 l 853 972 l 853 1111 l 575 1111 l 575 972 l 436 972 l 436 556 l 297 556 l 297 417 l 436 417 l 436 -139 l 297 -139 l 297 -278 l 575 -278 l 575 -139 l 714 -139 l 714 417 l 851 417 z "},"Ɣ":{"ha":1150,"x_min":0,"x_max":0,"o":"m 367 -278 l 783 -278 l 783 -139 l 922 -139 l 922 0 l 783 0 l 783 139 l 644 139 l 644 278 l 783 278 l 783 417 l 922 417 l 922 556 l 1061 556 l 1061 972 l 783 972 l 783 694 l 644 694 l 644 556 l 506 556 l 506 694 l 367 694 l 367 972 l 89 972 l 89 556 l 228 556 l 228 417 l 367 417 l 367 278 l 506 278 l 506 139 l 367 139 l 367 0 l 228 0 l 228 -139 l 367 -139 z m 644 -139 l 506 -139 l 506 0 l 644 0 z "},"ɣ":{"ha":1150,"x_min":0,"x_max":0,"o":"m 367 -278 l 783 -278 l 783 -139 l 922 -139 l 922 0 l 783 0 l 783 139 l 644 139 l 644 278 l 783 278 l 783 417 l 922 417 l 922 556 l 1061 556 l 1061 972 l 783 972 l 783 694 l 644 694 l 644 556 l 506 556 l 506 694 l 367 694 l 367 972 l 89 972 l 89 556 l 228 556 l 228 417 l 367 417 l 367 278 l 506 278 l 506 139 l 367 139 l 367 0 l 228 0 l 228 -139 l 367 -139 z m 644 -139 l 506 -139 l 506 0 l 644 0 z "},"Ƙ":{"ha":1150,"x_min":0,"x_max":0,"o":"m 922 694 l 1061 694 l 1061 972 l 644 972 l 644 833 l 506 833 l 506 694 l 367 694 l 367 556 l 228 556 l 228 972 l 89 972 l 89 0 l 228 0 l 228 278 l 367 278 l 367 139 l 506 139 l 506 0 l 922 0 l 922 139 l 783 139 l 783 278 l 644 278 l 644 417 l 506 417 l 506 556 l 644 556 l 644 694 l 783 694 l 783 833 l 922 833 z "},"ƙ":{"ha":1150,"x_min":0,"x_max":0,"o":"m 922 694 l 1061 694 l 1061 972 l 644 972 l 644 833 l 506 833 l 506 694 l 367 694 l 367 556 l 228 556 l 228 972 l 89 972 l 89 0 l 228 0 l 228 278 l 367 278 l 367 139 l 506 139 l 506 0 l 922 0 l 922 139 l 783 139 l 783 278 l 644 278 l 644 417 l 506 417 l 506 556 l 644 556 l 644 694 l 783 694 l 783 833 l 922 833 z "},"Ɲ":{"ha":1150,"x_min":0,"x_max":0,"o":"m 89 -278 l 367 -278 l 367 -139 l 506 -139 l 506 417 l 644 417 l 644 139 l 783 139 l 783 0 l 1061 0 l 1061 972 l 783 972 l 783 556 l 644 556 l 644 833 l 506 833 l 506 972 l 228 972 l 228 -139 l 89 -139 z "},"ɲ":{"ha":1150,"x_min":0,"x_max":0,"o":"m 89 -278 l 367 -278 l 367 -139 l 506 -139 l 506 417 l 644 417 l 644 139 l 783 139 l 783 0 l 1061 0 l 1061 972 l 783 972 l 783 556 l 644 556 l 644 833 l 506 833 l 506 972 l 228 972 l 228 -139 l 89 -139 z "},"Ơ":{"ha":1150,"x_min":0,"x_max":0,"o":"m 922 833 l 1061 833 l 1061 1111 l 922 1111 l 922 972 l 228 972 l 228 833 l 89 833 l 89 139 l 228 139 l 228 0 l 783 0 l 783 139 l 922 139 z m 367 139 l 367 833 l 644 833 l 644 139 z "},"ơ":{"ha":1150,"x_min":0,"x_max":0,"o":"m 922 833 l 1061 833 l 1061 1111 l 922 1111 l 922 972 l 228 972 l 228 833 l 89 833 l 89 139 l 228 139 l 228 0 l 783 0 l 783 139 l 922 139 z m 367 139 l 367 833 l 644 833 l 644 139 z "},"Ư":{"ha":1150,"x_min":0,"x_max":0,"o":"m 783 833 l 1061 833 l 1061 1111 l 922 1111 l 922 972 l 506 972 l 506 139 l 367 139 l 367 972 l 89 972 l 89 139 l 228 139 l 228 0 l 644 0 l 644 139 l 783 139 z "},"ư":{"ha":1150,"x_min":0,"x_max":0,"o":"m 783 833 l 1061 833 l 1061 1111 l 922 1111 l 922 972 l 506 972 l 506 139 l 367 139 l 367 972 l 89 972 l 89 139 l 228 139 l 228 0 l 644 0 l 644 139 l 783 139 z "},"Ƴ":{"ha":1150,"x_min":0,"x_max":0,"o":"m 922 556 l 1061 556 l 1061 833 l 922 833 l 922 972 l 506 972 l 506 556 l 367 556 l 367 972 l 89 972 l 89 556 l 226 556 l 226 417 l 367 417 l 367 0 l 506 0 l 506 417 l 644 417 l 644 556 l 783 556 l 783 833 l 922 833 z "},"ƴ":{"ha":1150,"x_min":0,"x_max":0,"o":"m 922 556 l 1061 556 l 1061 833 l 922 833 l 922 972 l 506 972 l 506 556 l 367 556 l 367 972 l 89 972 l 89 556 l 226 556 l 226 417 l 367 417 l 367 0 l 506 0 l 506 417 l 644 417 l 644 556 l 783 556 l 783 833 l 922 833 z "},"Ǵ":{"ha":1150,"x_min":0,"x_max":0,"o":"m 1061 556 l 644 556 l 644 417 l 783 417 l 783 139 l 506 139 l 506 278 l 367 278 l 367 694 l 506 694 l 506 833 l 1061 833 l 1061 972 l 367 972 l 367 833 l 228 833 l 228 694 l 89 694 l 89 278 l 228 278 l 228 142 l 367 142 l 367 0 l 1061 0 z m 788 1111 l 788 1250 l 926 1250 l 926 1389 l 649 1389 l 649 1250 l 510 1250 l 510 1111 z "},"ǵ":{"ha":1150,"x_min":0,"x_max":0,"o":"m 1061 556 l 644 556 l 644 417 l 783 417 l 783 139 l 506 139 l 506 278 l 367 278 l 367 694 l 506 694 l 506 833 l 1061 833 l 1061 972 l 367 972 l 367 833 l 228 833 l 228 694 l 89 694 l 89 278 l 228 278 l 228 142 l 367 142 l 367 0 l 1061 0 z m 788 1111 l 788 1250 l 926 1250 l 926 1389 l 649 1389 l 649 1250 l 510 1250 l 510 1111 z "},"Ǹ":{"ha":1150,"x_min":0,"x_max":0,"o":"m 1061 972 l 783 972 l 783 556 l 644 556 l 644 694 l 506 694 l 506 833 l 367 833 l 367 972 l 89 972 l 89 0 l 367 0 l 367 417 l 506 417 l 506 278 l 644 278 l 644 139 l 783 139 l 783 0 l 1061 0 z m 783 1111 l 783 1250 l 644 1250 l 644 1389 l 367 1389 l 367 1250 l 506 1250 l 506 1111 z "},"ǹ":{"ha":1150,"x_min":0,"x_max":0,"o":"m 1061 972 l 783 972 l 783 556 l 644 556 l 644 694 l 506 694 l 506 833 l 367 833 l 367 972 l 89 972 l 89 0 l 367 0 l 367 417 l 506 417 l 506 278 l 644 278 l 644 139 l 783 139 l 783 0 l 1061 0 z m 783 1111 l 783 1250 l 644 1250 l 644 1389 l 367 1389 l 367 1250 l 506 1250 l 506 1111 z "},"Ɂ":{"ha":1150,"x_min":0,"x_max":0,"o":"m 1061 833 l 922 833 l 922 972 l 228 972 l 228 833 l 89 833 l 89 694 l 367 694 l 367 833 l 783 833 l 783 556 l 644 556 l 644 417 l 410 417 l 410 0 l 644 0 l 644 278 l 783 278 l 783 417 l 1061 417 z "},"ɂ":{"ha":1150,"x_min":0,"x_max":0,"o":"m 1061 833 l 922 833 l 922 972 l 228 972 l 228 833 l 89 833 l 89 694 l 367 694 l 367 833 l 783 833 l 783 556 l 644 556 l 644 417 l 410 417 l 410 0 l 644 0 l 644 278 l 783 278 l 783 417 l 1061 417 z "},"Ɍ":{"ha":1150,"x_min":0,"x_max":0,"o":"m 1061 139 l 922 139 l 922 278 l 783 278 l 783 417 l 1061 417 l 1061 833 l 922 833 l 922 972 l 228 972 l 228 417 l 89 417 l 89 278 l 228 278 l 228 0 l 506 0 l 506 139 l 644 139 l 644 0 l 1061 0 z m 644 556 l 644 417 l 506 417 l 506 833 l 783 833 l 783 556 z "},"ɍ":{"ha":1150,"x_min":0,"x_max":0,"o":"m 1061 139 l 922 139 l 922 278 l 783 278 l 783 417 l 1061 417 l 1061 833 l 922 833 l 922 972 l 228 972 l 228 417 l 89 417 l 89 278 l 228 278 l 228 0 l 506 0 l 506 139 l 644 139 l 644 0 l 1061 0 z m 644 556 l 644 417 l 506 417 l 506 833 l 783 833 l 783 556 z "},"ˆ":{"ha":1150,"x_min":0,"x_max":0,"o":"m 506 1111 l 506 1250 l 644 1250 l 644 1111 l 922 1111 l 922 1250 l 783 1250 l 783 1389 l 367 1389 l 367 1250 l 228 1250 l 228 1111 z "},"ˇ":{"ha":1150,"x_min":0,"x_max":0,"o":"m 644 1389 l 644 1250 l 506 1250 l 506 1389 l 228 1389 l 228 1250 l 367 1250 l 367 1111 l 783 1111 l 783 1250 l 922 1250 l 922 1389 z "},"˘":{"ha":1150,"x_min":0,"x_max":0,"o":"m 714 1389 l 714 1250 l 436 1250 l 436 1389 l 297 1389 l 297 1111 l 853 1111 l 853 1389 z "},"˙":{"ha":1150,"x_min":0,"x_max":0,"o":"m 436 1111 l 714 1111 l 714 1389 l 436 1389 z "},"˚":{"ha":1150,"x_min":0,"x_max":0,"o":"m 783 1389 l 367 1389 l 367 972 l 783 972 z m 506 1111 l 506 1250 l 644 1250 l 644 1111 z "},"˛":{"ha":1150,"x_min":0,"x_max":0,"o":"m 783 -278 l 783 -139 l 506 -139 l 506 0 l 367 0 l 367 -278 z "},"˜":{"ha":1150,"x_min":0,"x_max":0,"o":"m 436 1111 l 436 1250 l 575 1250 l 575 1389 l 436 1389 l 436 1250 l 297 1250 l 297 1111 z m 714 1111 l 714 1250 l 853 1250 l 853 1389 l 714 1389 l 714 1250 l 575 1250 l 575 1111 z "},"˝":{"ha":1150,"x_min":0,"x_max":0,"o":"m 436 1111 l 436 1250 l 575 1250 l 575 1389 l 297 1389 l 297 1250 l 158 1250 l 158 1111 z m 853 1111 l 853 1250 l 992 1250 l 992 1389 l 714 1389 l 714 1250 l 575 1250 l 575 1111 z "},"̀":{"ha":0,"x_min":0,"x_max":0,"o":"m -367 1111 l -367 1250 l -506 1250 l -506 1389 l -783 1389 l -783 1250 l -644 1250 l -644 1111 z "},"́":{"ha":0,"x_min":0,"x_max":0,"o":"m -506 1111 l -506 1250 l -367 1250 l -367 1389 l -644 1389 l -644 1250 l -783 1250 l -783 1111 z "},"̂":{"ha":0,"x_min":0,"x_max":0,"o":"m -644 1111 l -644 1250 l -506 1250 l -506 1111 l -228 1111 l -228 1250 l -367 1250 l -367 1389 l -783 1389 l -783 1250 l -922 1250 l -922 1111 z "},"̃":{"ha":0,"x_min":0,"x_max":0,"o":"m -714 1111 l -714 1250 l -575 1250 l -575 1389 l -714 1389 l -714 1250 l -853 1250 l -853 1111 z m -436 1111 l -436 1250 l -297 1250 l -297 1389 l -436 1389 l -436 1250 l -575 1250 l -575 1111 z "},"̄":{"ha":0,"x_min":0,"x_max":0,"o":"m -367 1111 l -367 1250 l -783 1250 l -783 1111 z "},"̆":{"ha":0,"x_min":0,"x_max":0,"o":"m -436 1389 l -436 1250 l -714 1250 l -714 1389 l -853 1389 l -853 1111 l -297 1111 l -297 1389 z "},"̇":{"ha":0,"x_min":0,"x_max":0,"o":"m -714 1111 l -436 1111 l -436 1389 l -714 1389 z "},"̈":{"ha":0,"x_min":0,"x_max":0,"o":"m -506 1389 l -506 1111 l -228 1111 l -228 1389 z m -922 1111 l -644 1111 l -644 1389 l -922 1389 z "},"̉":{"ha":0,"x_min":0,"x_max":0,"o":"m -783 1250 l -506 1250 l -506 1111 l -367 1111 l -367 1389 l -783 1389 z m -644 972 l -506 972 l -506 1111 l -644 1111 z "},"̊":{"ha":0,"x_min":0,"x_max":0,"o":"m -367 1389 l -783 1389 l -783 972 l -367 972 z m -644 1111 l -644 1250 l -506 1250 l -506 1111 z "},"̋":{"ha":0,"x_min":0,"x_max":0,"o":"m -714 1111 l -714 1250 l -575 1250 l -575 1389 l -853 1389 l -853 1250 l -992 1250 l -992 1111 z m -297 1111 l -297 1250 l -158 1250 l -158 1389 l -436 1389 l -436 1250 l -575 1250 l -575 1111 z "},"̌":{"ha":0,"x_min":0,"x_max":0,"o":"m -506 1389 l -506 1250 l -644 1250 l -644 1389 l -922 1389 l -922 1250 l -783 1250 l -783 1111 l -367 1111 l -367 1250 l -228 1250 l -228 1389 z "},"̓":{"ha":0,"x_min":0,"x_max":0,"o":"m -714 1111 l -575 1111 l -575 1250 l -714 1250 z m -575 1250 l -436 1250 l -436 1389 l -575 1389 z "},"̛":{"ha":0,"x_min":0,"x_max":0,"o":"m -714 833 l -436 833 l -436 1111 l -575 1111 l -575 972 l -714 972 z "},"̣":{"ha":0,"x_min":0,"x_max":0,"o":"m -714 -278 l -436 -278 l -436 0 l -714 0 z "},"̦":{"ha":0,"x_min":0,"x_max":0,"o":"m -506 -278 l -506 -139 l -367 -139 l -367 0 l -644 0 l -644 -139 l -783 -139 l -783 -278 z "},"̨":{"ha":0,"x_min":0,"x_max":0,"o":"m -367 -278 l -367 -139 l -644 -139 l -644 0 l -783 0 l -783 -278 z "},"̭":{"ha":0,"x_min":0,"x_max":0,"o":"m -644 -278 l -644 -139 l -506 -139 l -506 -278 l -228 -278 l -228 -139 l -367 -139 l -367 0 l -783 0 l -783 -139 l -922 -139 l -922 -278 z "},"͵":{"ha":0,"x_min":0,"x_max":0,"o":"m -506 -139 l -506 0 l -367 0 l -367 139 l -644 139 l -644 0 l -783 0 l -783 -139 z "},"΄":{"ha":1150,"x_min":0,"x_max":0,"o":"m 644 694 l 644 1111 l 506 1111 l 506 694 z "},"΅":{"ha":1150,"x_min":0,"x_max":0,"o":"m 89 694 l 367 694 l 367 972 l 89 972 z m 644 694 l 644 1111 l 506 1111 l 506 694 z m 783 694 l 1061 694 l 1061 972 l 783 972 z "},"Ά":{"ha":1150,"x_min":0,"x_max":0,"o":"m 1061 694 l 922 694 l 922 833 l 783 833 l 783 972 l 506 972 l 506 833 l 367 833 l 367 694 l 228 694 l 228 0 l 506 0 l 506 278 l 783 278 l 783 0 l 1061 0 z m 506 417 l 506 694 l 783 694 l 783 417 z m 228 694 l 228 1111 l 89 1111 l 89 694 z "},"ά":{"ha":1150,"x_min":0,"x_max":0,"o":"m 1061 694 l 922 694 l 922 833 l 783 833 l 783 972 l 506 972 l 506 833 l 367 833 l 367 694 l 228 694 l 228 0 l 506 0 l 506 278 l 783 278 l 783 0 l 1061 0 z m 506 417 l 506 694 l 783 694 l 783 417 z m 228 694 l 228 1111 l 89 1111 l 89 694 z "},"·":{"ha":1150,"x_min":0,"x_max":0,"o":"m 714 833 l 436 833 l 436 556 l 714 556 z "},"Έ":{"ha":1150,"x_min":0,"x_max":0,"o":"m 228 694 l 228 1111 l 89 1111 l 89 694 z m 1061 139 l 644 139 l 644 417 l 922 417 l 922 556 l 644 556 l 644 833 l 1061 833 l 1061 972 l 367 972 l 367 0 l 1061 0 z "},"έ":{"ha":1150,"x_min":0,"x_max":0,"o":"m 228 694 l 228 1111 l 89 1111 l 89 694 z m 1061 139 l 644 139 l 644 417 l 922 417 l 922 556 l 644 556 l 644 833 l 1061 833 l 1061 972 l 367 972 l 367 0 l 1061 0 z "},"Ή":{"ha":1150,"x_min":0,"x_max":0,"o":"m 228 694 l 228 1111 l 89 1111 l 89 694 z m 1061 972 l 783 972 l 783 556 l 644 556 l 644 972 l 367 972 l 367 0 l 644 0 l 644 417 l 783 417 l 783 0 l 1061 0 z "},"ή":{"ha":1150,"x_min":0,"x_max":0,"o":"m 228 694 l 228 1111 l 89 1111 l 89 694 z m 1061 972 l 783 972 l 783 556 l 644 556 l 644 972 l 367 972 l 367 0 l 644 0 l 644 417 l 783 417 l 783 0 l 1061 0 z "},"Ί":{"ha":1150,"x_min":0,"x_max":0,"o":"m 228 694 l 228 1111 l 89 1111 l 89 694 z m 1061 972 l 367 972 l 367 833 l 506 833 l 506 139 l 228 139 l 228 0 l 1061 0 l 1061 139 l 783 139 l 783 833 l 1061 833 z "},"ί":{"ha":1150,"x_min":0,"x_max":0,"o":"m 228 694 l 228 1111 l 89 1111 l 89 694 z m 1061 972 l 367 972 l 367 833 l 506 833 l 506 139 l 228 139 l 228 0 l 1061 0 l 1061 139 l 783 139 l 783 833 l 1061 833 z "},"Ό":{"ha":1150,"x_min":0,"x_max":0,"o":"m 228 694 l 228 1111 l 89 1111 l 89 694 z m 1061 833 l 922 833 l 922 972 l 506 972 l 506 833 l 367 833 l 367 139 l 506 139 l 506 0 l 922 0 l 922 139 l 1061 139 z m 644 139 l 644 833 l 783 833 l 783 139 z "},"ό":{"ha":1150,"x_min":0,"x_max":0,"o":"m 228 694 l 228 1111 l 89 1111 l 89 694 z m 1061 833 l 922 833 l 922 972 l 506 972 l 506 833 l 367 833 l 367 139 l 506 139 l 506 0 l 922 0 l 922 139 l 1061 139 z m 644 139 l 644 833 l 783 833 l 783 139 z "},"Ύ":{"ha":1150,"x_min":0,"x_max":0,"o":"m 228 694 l 228 1111 l 89 1111 l 89 694 z m 1061 972 l 783 972 l 783 556 l 644 556 l 644 972 l 367 972 l 367 556 l 504 556 l 504 417 l 644 417 l 644 0 l 783 0 l 783 417 l 922 417 l 922 556 l 1061 556 z "},"ύ":{"ha":1150,"x_min":0,"x_max":0,"o":"m 228 694 l 228 1111 l 89 1111 l 89 694 z m 1061 972 l 783 972 l 783 556 l 644 556 l 644 972 l 367 972 l 367 556 l 504 556 l 504 417 l 644 417 l 644 0 l 783 0 l 783 417 l 922 417 l 922 556 l 1061 556 z "},"Ώ":{"ha":1150,"x_min":0,"x_max":0,"o":"m 783 833 l 783 0 l 1061 0 l 1061 139 l 922 139 l 922 278 l 1061 278 l 1061 833 l 922 833 l 922 972 l 506 972 l 506 833 l 367 833 l 367 278 l 506 278 l 506 139 l 367 139 l 367 0 l 644 0 l 644 833 z m 228 694 l 228 1111 l 89 1111 l 89 694 z "},"ώ":{"ha":1150,"x_min":0,"x_max":0,"o":"m 783 833 l 783 0 l 1061 0 l 1061 139 l 922 139 l 922 278 l 1061 278 l 1061 833 l 922 833 l 922 972 l 506 972 l 506 833 l 367 833 l 367 278 l 506 278 l 506 139 l 367 139 l 367 0 l 644 0 l 644 833 z m 228 694 l 228 1111 l 89 1111 l 89 694 z "},"ΐ":{"ha":1150,"x_min":0,"x_max":0,"o":"m 228 694 l 228 1111 l 89 1111 l 89 694 z m 1061 972 l 367 972 l 367 833 l 506 833 l 506 139 l 228 139 l 228 0 l 1061 0 l 1061 139 l 783 139 l 783 833 l 1061 833 z m 783 1389 l 783 1111 l 1061 1111 l 1061 1389 z m 367 1111 l 644 1111 l 644 1389 l 367 1389 z "},"Γ":{"ha":1150,"x_min":0,"x_max":0,"o":"m 1061 972 l 89 972 l 89 0 l 367 0 l 367 833 l 1061 833 z "},"γ":{"ha":1150,"x_min":0,"x_max":0,"o":"m 1061 972 l 89 972 l 89 0 l 367 0 l 367 833 l 1061 833 z "},"Г":{"ha":1150,"x_min":0,"x_max":0,"o":"m 1061 972 l 89 972 l 89 0 l 367 0 l 367 833 l 1061 833 z "},"г":{"ha":1150,"x_min":0,"x_max":0,"o":"m 1061 972 l 89 972 l 89 0 l 367 0 l 367 833 l 1061 833 z "},"Δ":{"ha":1150,"x_min":0,"x_max":0,"o":"m 1061 694 l 922 694 l 922 833 l 783 833 l 783 972 l 367 972 l 367 833 l 228 833 l 228 694 l 89 694 l 89 0 l 1061 0 z m 367 139 l 367 694 l 506 694 l 506 833 l 644 833 l 644 694 l 783 694 l 783 139 z "},"δ":{"ha":1150,"x_min":0,"x_max":0,"o":"m 1061 694 l 922 694 l 922 833 l 783 833 l 783 972 l 367 972 l 367 833 l 228 833 l 228 694 l 89 694 l 89 0 l 1061 0 z m 367 139 l 367 694 l 506 694 l 506 833 l 644 833 l 644 694 l 783 694 l 783 139 z "},"Λ":{"ha":1150,"x_min":0,"x_max":0,"o":"m 1061 694 l 922 694 l 922 833 l 783 833 l 783 972 l 367 972 l 367 833 l 228 833 l 228 694 l 89 694 l 89 0 l 367 0 l 367 694 l 506 694 l 506 833 l 644 833 l 644 694 l 783 694 l 783 0 l 1061 0 z "},"λ":{"ha":1150,"x_min":0,"x_max":0,"o":"m 1061 694 l 922 694 l 922 833 l 783 833 l 783 972 l 367 972 l 367 833 l 228 833 l 228 694 l 89 694 l 89 0 l 367 0 l 367 694 l 506 694 l 506 833 l 644 833 l 644 694 l 783 694 l 783 0 l 1061 0 z "},"Ξ":{"ha":1150,"x_min":0,"x_max":0,"o":"m 783 694 l 1061 694 l 1061 972 l 89 972 l 89 694 l 367 694 l 367 833 l 783 833 z m 1061 278 l 783 278 l 783 139 l 367 139 l 367 278 l 89 278 l 89 0 l 1061 0 z m 922 417 l 922 556 l 228 556 l 228 417 z "},"ξ":{"ha":1150,"x_min":0,"x_max":0,"o":"m 783 694 l 1061 694 l 1061 972 l 89 972 l 89 694 l 367 694 l 367 833 l 783 833 z m 1061 278 l 783 278 l 783 139 l 367 139 l 367 278 l 89 278 l 89 0 l 1061 0 z m 922 417 l 922 556 l 228 556 l 228 417 z "},"Π":{"ha":1150,"x_min":0,"x_max":0,"o":"m 1061 972 l 89 972 l 89 0 l 367 0 l 367 833 l 783 833 l 783 0 l 1061 0 z "},"П":{"ha":1150,"x_min":0,"x_max":0,"o":"m 1061 972 l 89 972 l 89 0 l 367 0 l 367 833 l 783 833 l 783 0 l 1061 0 z "},"п":{"ha":1150,"x_min":0,"x_max":0,"o":"m 1061 972 l 89 972 l 89 0 l 367 0 l 367 833 l 783 833 l 783 0 l 1061 0 z "},"Σ":{"ha":1150,"x_min":0,"x_max":0,"o":"m 89 0 l 1061 0 l 1061 139 l 506 139 l 506 278 l 644 278 l 644 417 l 783 417 l 783 556 l 644 556 l 644 694 l 506 694 l 506 833 l 1061 833 l 1061 972 l 89 972 l 89 833 l 228 833 l 228 694 l 367 694 l 367 556 l 506 556 l 506 417 l 367 417 l 367 278 l 228 278 l 228 139 l 89 139 z "},"ς":{"ha":1150,"x_min":0,"x_max":0,"o":"m 89 0 l 1061 0 l 1061 139 l 506 139 l 506 278 l 644 278 l 644 417 l 783 417 l 783 556 l 644 556 l 644 694 l 506 694 l 506 833 l 1061 833 l 1061 972 l 89 972 l 89 833 l 228 833 l 228 694 l 367 694 l 367 556 l 506 556 l 506 417 l 367 417 l 367 278 l 228 278 l 228 139 l 89 139 z "},"σ":{"ha":1150,"x_min":0,"x_max":0,"o":"m 89 0 l 1061 0 l 1061 139 l 506 139 l 506 278 l 644 278 l 644 417 l 783 417 l 783 556 l 644 556 l 644 694 l 506 694 l 506 833 l 1061 833 l 1061 972 l 89 972 l 89 833 l 228 833 l 228 694 l 367 694 l 367 556 l 506 556 l 506 417 l 367 417 l 367 278 l 228 278 l 228 139 l 89 139 z "},"Φ":{"ha":1150,"x_min":0,"x_max":0,"o":"m 228 139 l 506 139 l 506 0 l 644 0 l 644 139 l 922 139 l 922 278 l 1061 278 l 1061 694 l 922 694 l 922 833 l 644 833 l 644 972 l 506 972 l 506 833 l 228 833 l 228 694 l 89 694 l 89 278 l 228 278 z m 783 278 l 644 278 l 644 694 l 783 694 z m 367 694 l 506 694 l 506 278 l 367 278 z "},"φ":{"ha":1150,"x_min":0,"x_max":0,"o":"m 228 139 l 506 139 l 506 0 l 644 0 l 644 139 l 922 139 l 922 278 l 1061 278 l 1061 694 l 922 694 l 922 833 l 644 833 l 644 972 l 506 972 l 506 833 l 228 833 l 228 694 l 89 694 l 89 278 l 228 278 z m 783 278 l 644 278 l 644 694 l 783 694 z m 367 694 l 506 694 l 506 278 l 367 278 z "},"Ф":{"ha":1150,"x_min":0,"x_max":0,"o":"m 228 139 l 506 139 l 506 0 l 644 0 l 644 139 l 922 139 l 922 278 l 1061 278 l 1061 694 l 922 694 l 922 833 l 644 833 l 644 972 l 506 972 l 506 833 l 228 833 l 228 694 l 89 694 l 89 278 l 228 278 z m 783 278 l 644 278 l 644 694 l 783 694 z m 367 694 l 506 694 l 506 278 l 367 278 z "},"ф":{"ha":1150,"x_min":0,"x_max":0,"o":"m 228 139 l 506 139 l 506 0 l 644 0 l 644 139 l 922 139 l 922 278 l 1061 278 l 1061 694 l 922 694 l 922 833 l 644 833 l 644 972 l 506 972 l 506 833 l 228 833 l 228 694 l 89 694 l 89 278 l 228 278 z m 783 278 l 644 278 l 644 694 l 783 694 z m 367 694 l 506 694 l 506 278 l 367 278 z "},"Ψ":{"ha":1150,"x_min":0,"x_max":0,"o":"m 506 0 l 644 0 l 644 278 l 922 278 l 922 417 l 1061 417 l 1061 972 l 783 972 l 783 417 l 644 417 l 644 972 l 506 972 l 506 417 l 367 417 l 367 972 l 89 972 l 89 417 l 228 417 l 228 278 l 506 278 z "},"ψ":{"ha":1150,"x_min":0,"x_max":0,"o":"m 506 0 l 644 0 l 644 278 l 922 278 l 922 417 l 1061 417 l 1061 972 l 783 972 l 783 417 l 644 417 l 644 972 l 506 972 l 506 417 l 367 417 l 367 972 l 89 972 l 89 417 l 228 417 l 228 278 l 506 278 z "},"Ω":{"ha":1150,"x_min":0,"x_max":0,"o":"m 783 833 l 783 278 l 644 278 l 644 0 l 1061 0 l 1061 139 l 922 139 l 922 278 l 1061 278 l 1061 833 l 922 833 l 922 972 l 228 972 l 228 833 l 89 833 l 89 278 l 228 278 l 228 139 l 89 139 l 89 0 l 506 0 l 506 278 l 367 278 l 367 833 z "},"ω":{"ha":1150,"x_min":0,"x_max":0,"o":"m 783 833 l 783 278 l 644 278 l 644 0 l 1061 0 l 1061 139 l 922 139 l 922 278 l 1061 278 l 1061 833 l 922 833 l 922 972 l 228 972 l 228 833 l 89 833 l 89 278 l 228 278 l 228 139 l 89 139 l 89 0 l 506 0 l 506 278 l 367 278 l 367 833 z "},"Ω":{"ha":1150,"x_min":0,"x_max":0,"o":"m 783 833 l 783 278 l 644 278 l 644 0 l 1061 0 l 1061 139 l 922 139 l 922 278 l 1061 278 l 1061 833 l 922 833 l 922 972 l 228 972 l 228 833 l 89 833 l 89 278 l 228 278 l 228 139 l 89 139 l 89 0 l 506 0 l 506 278 l 367 278 l 367 833 z "},"ΰ":{"ha":1150,"x_min":0,"x_max":0,"o":"m 783 1389 l 783 1111 l 1061 1111 l 1061 1389 z m 367 1111 l 644 1111 l 644 1389 l 367 1389 z m 228 694 l 228 1111 l 89 1111 l 89 694 z m 1061 972 l 783 972 l 783 556 l 644 556 l 644 972 l 367 972 l 367 556 l 504 556 l 504 417 l 644 417 l 644 0 l 783 0 l 783 417 l 922 417 l 922 556 l 1061 556 z "},"π":{"ha":1150,"x_min":0,"x_max":0,"o":"m 922 556 l 1061 556 l 1061 694 l 89 694 l 89 556 l 228 556 l 228 0 l 506 0 l 506 556 l 644 556 l 644 139 l 783 139 l 783 0 l 1061 0 l 1061 139 l 922 139 z "},"Ђ":{"ha":1150,"x_min":0,"x_max":0,"o":"m 506 -278 l 922 -278 l 922 -139 l 1061 -139 l 1061 417 l 922 417 l 922 556 l 506 556 l 506 833 l 783 833 l 783 972 l 89 972 l 89 833 l 228 833 l 228 0 l 506 0 l 506 417 l 783 417 l 783 -139 l 506 -139 z "},"ђ":{"ha":1150,"x_min":0,"x_max":0,"o":"m 506 -278 l 922 -278 l 922 -139 l 1061 -139 l 1061 417 l 922 417 l 922 556 l 506 556 l 506 833 l 783 833 l 783 972 l 89 972 l 89 833 l 228 833 l 228 0 l 506 0 l 506 417 l 783 417 l 783 -139 l 506 -139 z "},"Ѓ":{"ha":1150,"x_min":0,"x_max":0,"o":"m 1061 972 l 89 972 l 89 0 l 367 0 l 367 833 l 1061 833 z m 783 1111 l 783 1250 l 922 1250 l 922 1389 l 644 1389 l 644 1250 l 506 1250 l 506 1111 z "},"ѓ":{"ha":1150,"x_min":0,"x_max":0,"o":"m 1061 972 l 89 972 l 89 0 l 367 0 l 367 833 l 1061 833 z m 783 1111 l 783 1250 l 922 1250 l 922 1389 l 644 1389 l 644 1250 l 506 1250 l 506 1111 z "},"Є":{"ha":1150,"x_min":0,"x_max":0,"o":"m 1061 278 l 783 278 l 783 139 l 506 139 l 506 278 l 367 278 l 367 417 l 783 417 l 783 556 l 367 556 l 367 694 l 506 694 l 506 833 l 783 833 l 783 694 l 1061 694 l 1061 833 l 922 833 l 922 972 l 367 972 l 367 833 l 228 833 l 228 694 l 89 694 l 89 278 l 228 278 l 228 139 l 367 139 l 367 0 l 922 0 l 922 139 l 1061 139 z "},"є":{"ha":1150,"x_min":0,"x_max":0,"o":"m 1061 278 l 783 278 l 783 139 l 506 139 l 506 278 l 367 278 l 367 417 l 783 417 l 783 556 l 367 556 l 367 694 l 506 694 l 506 833 l 783 833 l 783 694 l 1061 694 l 1061 833 l 922 833 l 922 972 l 367 972 l 367 833 l 228 833 l 228 694 l 89 694 l 89 278 l 228 278 l 228 139 l 367 139 l 367 0 l 922 0 l 922 139 l 1061 139 z "},"Љ":{"ha":1150,"x_min":0,"x_max":0,"o":"m 1061 417 l 922 417 l 922 556 l 644 556 l 644 972 l 228 972 l 228 139 l 89 139 l 89 0 l 367 0 l 367 833 l 506 833 l 506 0 l 922 0 l 922 139 l 1061 139 z m 783 417 l 783 139 l 644 139 l 644 417 z "},"љ":{"ha":1150,"x_min":0,"x_max":0,"o":"m 1061 417 l 922 417 l 922 556 l 644 556 l 644 972 l 228 972 l 228 139 l 89 139 l 89 0 l 367 0 l 367 833 l 506 833 l 506 0 l 922 0 l 922 139 l 1061 139 z m 783 417 l 783 139 l 644 139 l 644 417 z "},"Њ":{"ha":1150,"x_min":0,"x_max":0,"o":"m 506 0 l 922 0 l 922 139 l 1061 139 l 1061 417 l 922 417 l 922 556 l 644 556 l 644 972 l 506 972 l 506 556 l 367 556 l 367 972 l 89 972 l 89 11 l 367 11 l 367 417 l 506 417 z m 644 417 l 783 417 l 783 139 l 644 139 z "},"њ":{"ha":1150,"x_min":0,"x_max":0,"o":"m 506 0 l 922 0 l 922 139 l 1061 139 l 1061 417 l 922 417 l 922 556 l 644 556 l 644 972 l 506 972 l 506 556 l 367 556 l 367 972 l 89 972 l 89 11 l 367 11 l 367 417 l 506 417 z m 644 417 l 783 417 l 783 139 l 644 139 z "},"Ћ":{"ha":1150,"x_min":0,"x_max":0,"o":"m 1061 417 l 922 417 l 922 556 l 506 556 l 506 833 l 783 833 l 783 972 l 89 972 l 89 833 l 228 833 l 228 0 l 506 0 l 506 417 l 783 417 l 783 0 l 1061 0 z "},"ћ":{"ha":1150,"x_min":0,"x_max":0,"o":"m 1061 417 l 922 417 l 922 556 l 506 556 l 506 833 l 783 833 l 783 972 l 89 972 l 89 833 l 228 833 l 228 0 l 506 0 l 506 417 l 783 417 l 783 0 l 1061 0 z "},"Ќ":{"ha":1150,"x_min":0,"x_max":0,"o":"m 1061 139 l 922 139 l 922 278 l 783 278 l 783 417 l 644 417 l 644 556 l 783 556 l 783 694 l 922 694 l 922 833 l 1061 833 l 1061 972 l 783 972 l 783 833 l 644 833 l 644 694 l 506 694 l 506 556 l 367 556 l 367 972 l 89 972 l 89 0 l 367 0 l 367 278 l 506 278 l 506 139 l 644 139 l 644 0 l 1061 0 z m 644 1111 l 644 1250 l 783 1250 l 783 1389 l 506 1389 l 506 1250 l 367 1250 l 367 1111 z "},"ќ":{"ha":1150,"x_min":0,"x_max":0,"o":"m 1061 139 l 922 139 l 922 278 l 783 278 l 783 417 l 644 417 l 644 556 l 783 556 l 783 694 l 922 694 l 922 833 l 1061 833 l 1061 972 l 783 972 l 783 833 l 644 833 l 644 694 l 506 694 l 506 556 l 367 556 l 367 972 l 89 972 l 89 0 l 367 0 l 367 278 l 506 278 l 506 139 l 644 139 l 644 0 l 1061 0 z m 644 1111 l 644 1250 l 783 1250 l 783 1389 l 506 1389 l 506 1250 l 367 1250 l 367 1111 z "},"Ѝ":{"ha":1150,"x_min":0,"x_max":0,"o":"m 89 0 l 367 0 l 367 139 l 506 139 l 506 278 l 644 278 l 644 417 l 783 417 l 783 0 l 1061 0 l 1061 972 l 783 972 l 783 833 l 644 833 l 644 694 l 506 694 l 506 556 l 367 556 l 367 972 l 89 972 z m 644 1111 l 644 1250 l 506 1250 l 506 1389 l 228 1389 l 228 1250 l 367 1250 l 367 1111 z "},"ѝ":{"ha":1150,"x_min":0,"x_max":0,"o":"m 89 0 l 367 0 l 367 139 l 506 139 l 506 278 l 644 278 l 644 417 l 783 417 l 783 0 l 1061 0 l 1061 972 l 783 972 l 783 833 l 644 833 l 644 694 l 506 694 l 506 556 l 367 556 l 367 972 l 89 972 z m 644 1111 l 644 1250 l 506 1250 l 506 1389 l 228 1389 l 228 1250 l 367 1250 l 367 1111 z "},"Ў":{"ha":1150,"x_min":0,"x_max":0,"o":"m 89 139 l 228 139 l 228 0 l 922 0 l 922 139 l 1061 139 l 1061 972 l 783 972 l 783 556 l 367 556 l 367 972 l 89 972 l 89 556 l 228 556 l 228 417 l 783 417 l 783 139 l 367 139 l 367 278 l 89 278 z m 714 1389 l 714 1250 l 436 1250 l 436 1389 l 297 1389 l 297 1111 l 853 1111 l 853 1389 z "},"ў":{"ha":1150,"x_min":0,"x_max":0,"o":"m 89 139 l 228 139 l 228 0 l 922 0 l 922 139 l 1061 139 l 1061 972 l 783 972 l 783 556 l 367 556 l 367 972 l 89 972 l 89 556 l 228 556 l 228 417 l 783 417 l 783 139 l 367 139 l 367 278 l 89 278 z m 714 1389 l 714 1250 l 436 1250 l 436 1389 l 297 1389 l 297 1111 l 853 1111 l 853 1389 z "},"Џ":{"ha":1150,"x_min":0,"x_max":0,"o":"m 506 -278 l 644 -278 l 644 0 l 1061 0 l 1061 972 l 783 972 l 783 139 l 367 139 l 367 972 l 89 972 l 89 0 l 506 0 z "},"џ":{"ha":1150,"x_min":0,"x_max":0,"o":"m 506 -278 l 644 -278 l 644 0 l 1061 0 l 1061 972 l 783 972 l 783 139 l 367 139 l 367 972 l 89 972 l 89 0 l 506 0 z "},"Б":{"ha":1150,"x_min":0,"x_max":0,"o":"m 1061 417 l 922 417 l 922 556 l 367 556 l 367 833 l 783 833 l 783 972 l 89 972 l 89 0 l 922 0 l 922 139 l 1061 139 z m 783 417 l 783 139 l 367 139 l 367 417 z "},"б":{"ha":1150,"x_min":0,"x_max":0,"o":"m 1061 417 l 922 417 l 922 556 l 367 556 l 367 833 l 783 833 l 783 972 l 89 972 l 89 0 l 922 0 l 922 139 l 1061 139 z m 783 417 l 783 139 l 367 139 l 367 417 z "},"Д":{"ha":1150,"x_min":0,"x_max":0,"o":"m 228 0 l 922 0 l 922 -278 l 1061 -278 l 1061 139 l 922 139 l 922 972 l 367 972 l 367 278 l 228 278 l 228 139 l 89 139 l 89 -278 l 228 -278 z m 506 833 l 644 833 l 644 139 l 506 139 z "},"д":{"ha":1150,"x_min":0,"x_max":0,"o":"m 228 0 l 922 0 l 922 -278 l 1061 -278 l 1061 139 l 922 139 l 922 972 l 367 972 l 367 278 l 228 278 l 228 139 l 89 139 l 89 -278 l 228 -278 z m 506 833 l 644 833 l 644 139 l 506 139 z "},"Ж":{"ha":1150,"x_min":0,"x_max":0,"o":"m 922 556 l 922 694 l 1061 694 l 1061 972 l 922 972 l 922 833 l 783 833 l 783 694 l 644 694 l 644 972 l 506 972 l 506 694 l 367 694 l 367 833 l 228 833 l 228 972 l 89 972 l 89 694 l 228 694 l 228 556 l 367 556 l 367 417 l 228 417 l 228 278 l 89 278 l 89 0 l 228 0 l 228 139 l 367 139 l 367 278 l 506 278 l 506 0 l 644 0 l 644 278 l 783 278 l 783 139 l 922 139 l 922 0 l 1061 0 l 1061 278 l 922 278 l 922 417 l 783 417 l 783 556 z "},"ж":{"ha":1150,"x_min":0,"x_max":0,"o":"m 922 556 l 922 694 l 1061 694 l 1061 972 l 922 972 l 922 833 l 783 833 l 783 694 l 644 694 l 644 972 l 506 972 l 506 694 l 367 694 l 367 833 l 228 833 l 228 972 l 89 972 l 89 694 l 228 694 l 228 556 l 367 556 l 367 417 l 228 417 l 228 278 l 89 278 l 89 0 l 228 0 l 228 139 l 367 139 l 367 278 l 506 278 l 506 0 l 644 0 l 644 278 l 783 278 l 783 139 l 922 139 l 922 0 l 1061 0 l 1061 278 l 922 278 l 922 417 l 783 417 l 783 556 z "},"З":{"ha":1150,"x_min":0,"x_max":0,"o":"m 783 556 l 367 556 l 367 417 l 783 417 l 783 139 l 367 139 l 367 278 l 89 278 l 89 139 l 228 139 l 228 0 l 922 0 l 922 139 l 1061 139 l 1061 417 l 922 417 l 922 556 l 1061 556 l 1061 833 l 922 833 l 922 972 l 228 972 l 228 833 l 89 833 l 89 694 l 367 694 l 367 833 l 783 833 z "},"з":{"ha":1150,"x_min":0,"x_max":0,"o":"m 783 556 l 367 556 l 367 417 l 783 417 l 783 139 l 367 139 l 367 278 l 89 278 l 89 139 l 228 139 l 228 0 l 922 0 l 922 139 l 1061 139 l 1061 417 l 922 417 l 922 556 l 1061 556 l 1061 833 l 922 833 l 922 972 l 228 972 l 228 833 l 89 833 l 89 694 l 367 694 l 367 833 l 783 833 z "},"И":{"ha":1150,"x_min":0,"x_max":0,"o":"m 89 0 l 367 0 l 367 139 l 506 139 l 506 278 l 644 278 l 644 417 l 783 417 l 783 0 l 1061 0 l 1061 972 l 783 972 l 783 833 l 644 833 l 644 694 l 506 694 l 506 556 l 367 556 l 367 972 l 89 972 z "},"и":{"ha":1150,"x_min":0,"x_max":0,"o":"m 89 0 l 367 0 l 367 139 l 506 139 l 506 278 l 644 278 l 644 417 l 783 417 l 783 0 l 1061 0 l 1061 972 l 783 972 l 783 833 l 644 833 l 644 694 l 506 694 l 506 556 l 367 556 l 367 972 l 89 972 z "},"Й":{"ha":1150,"x_min":0,"x_max":0,"o":"m 89 0 l 367 0 l 367 139 l 506 139 l 506 278 l 644 278 l 644 417 l 783 417 l 783 0 l 1061 0 l 1061 972 l 783 972 l 783 833 l 644 833 l 644 694 l 506 694 l 506 556 l 367 556 l 367 972 l 89 972 z m 714 1389 l 714 1250 l 436 1250 l 436 1389 l 297 1389 l 297 1111 l 853 1111 l 853 1389 z "},"й":{"ha":1150,"x_min":0,"x_max":0,"o":"m 89 0 l 367 0 l 367 139 l 506 139 l 506 278 l 644 278 l 644 417 l 783 417 l 783 0 l 1061 0 l 1061 972 l 783 972 l 783 833 l 644 833 l 644 694 l 506 694 l 506 556 l 367 556 l 367 972 l 89 972 z m 714 1389 l 714 1250 l 436 1250 l 436 1389 l 297 1389 l 297 1111 l 853 1111 l 853 1389 z "},"Л":{"ha":1150,"x_min":0,"x_max":0,"o":"m 506 833 l 783 833 l 783 0 l 1061 0 l 1061 972 l 367 972 l 367 278 l 228 278 l 228 139 l 89 139 l 89 0 l 367 0 l 367 139 l 506 139 z "},"л":{"ha":1150,"x_min":0,"x_max":0,"o":"m 506 833 l 783 833 l 783 0 l 1061 0 l 1061 972 l 367 972 l 367 278 l 228 278 l 228 139 l 89 139 l 89 0 l 367 0 l 367 139 l 506 139 z "},"У":{"ha":1150,"x_min":0,"x_max":0,"o":"m 89 139 l 228 139 l 228 0 l 922 0 l 922 139 l 1061 139 l 1061 972 l 783 972 l 783 556 l 367 556 l 367 972 l 89 972 l 89 556 l 228 556 l 228 417 l 783 417 l 783 139 l 367 139 l 367 278 l 89 278 z "},"у":{"ha":1150,"x_min":0,"x_max":0,"o":"m 89 139 l 228 139 l 228 0 l 922 0 l 922 139 l 1061 139 l 1061 972 l 783 972 l 783 556 l 367 556 l 367 972 l 89 972 l 89 556 l 228 556 l 228 417 l 783 417 l 783 139 l 367 139 l 367 278 l 89 278 z "},"Ц":{"ha":1150,"x_min":0,"x_max":0,"o":"m 922 -278 l 1061 -278 l 1061 139 l 922 139 l 922 972 l 644 972 l 644 139 l 367 139 l 367 972 l 89 972 l 89 0 l 922 0 z "},"ц":{"ha":1150,"x_min":0,"x_max":0,"o":"m 922 -278 l 1061 -278 l 1061 139 l 922 139 l 922 972 l 644 972 l 644 139 l 367 139 l 367 972 l 89 972 l 89 0 l 922 0 z "},"Ч":{"ha":1150,"x_min":0,"x_max":0,"o":"m 89 556 l 228 556 l 228 417 l 783 417 l 783 0 l 1061 0 l 1061 972 l 783 972 l 783 556 l 367 556 l 367 972 l 89 972 z "},"ч":{"ha":1150,"x_min":0,"x_max":0,"o":"m 89 556 l 228 556 l 228 417 l 783 417 l 783 0 l 1061 0 l 1061 972 l 783 972 l 783 556 l 367 556 l 367 972 l 89 972 z "},"Ш":{"ha":1150,"x_min":0,"x_max":0,"o":"m 644 972 l 506 972 l 506 139 l 367 139 l 367 972 l 89 972 l 89 0 l 1061 0 l 1061 972 l 783 972 l 783 139 l 644 139 z "},"ш":{"ha":1150,"x_min":0,"x_max":0,"o":"m 644 972 l 506 972 l 506 139 l 367 139 l 367 972 l 89 972 l 89 0 l 1061 0 l 1061 972 l 783 972 l 783 139 l 644 139 z "},"Щ":{"ha":1150,"x_min":0,"x_max":0,"o":"m 922 -278 l 1061 -278 l 1061 139 l 922 139 l 922 972 l 783 972 l 783 139 l 644 139 l 644 972 l 506 972 l 506 139 l 367 139 l 367 972 l 89 972 l 89 0 l 922 0 z "},"щ":{"ha":1150,"x_min":0,"x_max":0,"o":"m 922 -278 l 1061 -278 l 1061 139 l 922 139 l 922 972 l 783 972 l 783 139 l 644 139 l 644 972 l 506 972 l 506 139 l 367 139 l 367 972 l 89 972 l 89 0 l 922 0 z "},"Ъ":{"ha":1150,"x_min":0,"x_max":0,"o":"m 1061 417 l 922 417 l 922 556 l 506 556 l 506 972 l 89 972 l 89 833 l 228 833 l 228 0 l 922 0 l 922 139 l 1061 139 z m 783 417 l 783 139 l 506 139 l 506 417 z "},"ъ":{"ha":1150,"x_min":0,"x_max":0,"o":"m 1061 417 l 922 417 l 922 556 l 506 556 l 506 972 l 89 972 l 89 833 l 228 833 l 228 0 l 922 0 l 922 139 l 1061 139 z m 783 417 l 783 139 l 506 139 l 506 417 z "},"Ы":{"ha":1150,"x_min":0,"x_max":0,"o":"m 467 417 l 467 139 l 328 139 l 328 417 z m 744 417 l 606 417 l 606 556 l 328 556 l 328 972 l 50 972 l 50 0 l 606 0 l 606 139 l 744 139 z m 814 972 l 814 0 l 1092 0 l 1092 972 z "},"ы":{"ha":1150,"x_min":0,"x_max":0,"o":"m 467 417 l 467 139 l 328 139 l 328 417 z m 744 417 l 606 417 l 606 556 l 328 556 l 328 972 l 50 972 l 50 0 l 606 0 l 606 139 l 744 139 z m 814 972 l 814 0 l 1092 0 l 1092 972 z "},"Ь":{"ha":1150,"x_min":0,"x_max":0,"o":"m 783 417 l 783 139 l 367 139 l 367 417 z m 1061 417 l 922 417 l 922 556 l 367 556 l 367 972 l 89 972 l 89 0 l 922 0 l 922 139 l 1061 139 z "},"ь":{"ha":1150,"x_min":0,"x_max":0,"o":"m 783 417 l 783 139 l 367 139 l 367 417 z m 1061 417 l 922 417 l 922 556 l 367 556 l 367 972 l 89 972 l 89 0 l 922 0 l 922 139 l 1061 139 z "},"Э":{"ha":1150,"x_min":0,"x_max":0,"o":"m 89 139 l 228 139 l 228 0 l 783 0 l 783 139 l 922 139 l 922 278 l 1061 278 l 1061 694 l 922 694 l 922 833 l 783 833 l 783 972 l 228 972 l 228 833 l 89 833 l 89 694 l 367 694 l 367 833 l 644 833 l 644 694 l 783 694 l 783 556 l 367 556 l 367 417 l 783 417 l 783 278 l 644 278 l 644 139 l 367 139 l 367 278 l 89 278 z "},"э":{"ha":1150,"x_min":0,"x_max":0,"o":"m 89 139 l 228 139 l 228 0 l 783 0 l 783 139 l 922 139 l 922 278 l 1061 278 l 1061 694 l 922 694 l 922 833 l 783 833 l 783 972 l 228 972 l 228 833 l 89 833 l 89 694 l 367 694 l 367 833 l 644 833 l 644 694 l 783 694 l 783 556 l 367 556 l 367 417 l 783 417 l 783 278 l 644 278 l 644 139 l 367 139 l 367 278 l 89 278 z "},"Ю":{"ha":1150,"x_min":0,"x_max":0,"o":"m 506 833 l 367 833 l 367 556 l 228 556 l 228 972 l 89 972 l 89 0 l 228 0 l 228 417 l 367 417 l 367 139 l 506 139 l 506 0 l 922 0 l 922 139 l 1061 139 l 1061 833 l 922 833 l 922 972 l 506 972 z m 783 139 l 644 139 l 644 833 l 783 833 z "},"ю":{"ha":1150,"x_min":0,"x_max":0,"o":"m 506 833 l 367 833 l 367 556 l 228 556 l 228 972 l 89 972 l 89 0 l 228 0 l 228 417 l 367 417 l 367 139 l 506 139 l 506 0 l 922 0 l 922 139 l 1061 139 l 1061 833 l 922 833 l 922 972 l 506 972 z m 783 139 l 644 139 l 644 833 l 783 833 z "},"Я":{"ha":1150,"x_min":0,"x_max":0,"o":"m 89 0 l 506 0 l 506 139 l 644 139 l 644 278 l 783 278 l 783 0 l 1061 0 l 1061 972 l 228 972 l 228 833 l 89 833 l 89 417 l 367 417 l 367 278 l 228 278 l 228 139 l 89 139 z m 367 556 l 367 833 l 783 833 l 783 417 l 506 417 l 506 556 z "},"я":{"ha":1150,"x_min":0,"x_max":0,"o":"m 89 0 l 506 0 l 506 139 l 644 139 l 644 278 l 783 278 l 783 0 l 1061 0 l 1061 972 l 228 972 l 228 833 l 89 833 l 89 417 l 367 417 l 367 278 l 228 278 l 228 139 l 89 139 z m 367 556 l 367 833 l 783 833 l 783 417 l 506 417 l 506 556 z "},"Ѵ":{"ha":1150,"x_min":0,"x_max":0,"o":"m 89 278 l 228 278 l 228 139 l 367 139 l 367 0 l 506 0 l 506 139 l 644 139 l 644 278 l 783 278 l 783 833 l 1061 833 l 1061 972 l 506 972 l 506 278 l 367 278 l 367 972 l 89 972 z "},"ѵ":{"ha":1150,"x_min":0,"x_max":0,"o":"m 89 278 l 228 278 l 228 139 l 367 139 l 367 0 l 506 0 l 506 139 l 644 139 l 644 278 l 783 278 l 783 833 l 1061 833 l 1061 972 l 506 972 l 506 278 l 367 278 l 367 972 l 89 972 z "},"Ҋ":{"ha":1150,"x_min":0,"x_max":0,"o":"m 922 -139 l 1061 -139 l 1061 972 l 783 972 l 783 833 l 644 833 l 644 694 l 506 694 l 506 556 l 367 556 l 367 972 l 89 972 l 89 0 l 367 0 l 367 139 l 506 139 l 506 278 l 644 278 l 644 417 l 783 417 l 783 0 l 922 0 z m 714 1389 l 714 1250 l 436 1250 l 436 1389 l 297 1389 l 297 1111 l 853 1111 l 853 1389 z m 783 -278 l 922 -278 l 922 -139 l 783 -139 z "},"ҋ":{"ha":1150,"x_min":0,"x_max":0,"o":"m 922 -139 l 1061 -139 l 1061 972 l 783 972 l 783 833 l 644 833 l 644 694 l 506 694 l 506 556 l 367 556 l 367 972 l 89 972 l 89 0 l 367 0 l 367 139 l 506 139 l 506 278 l 644 278 l 644 417 l 783 417 l 783 0 l 922 0 z m 714 1389 l 714 1250 l 436 1250 l 436 1389 l 297 1389 l 297 1111 l 853 1111 l 853 1389 z m 783 -278 l 922 -278 l 922 -139 l 783 -139 z "},"Ҍ":{"ha":1150,"x_min":0,"x_max":0,"o":"m 89 694 l 228 694 l 228 0 l 922 0 l 922 139 l 1061 139 l 1061 417 l 922 417 l 922 556 l 506 556 l 506 694 l 783 694 l 783 833 l 506 833 l 506 972 l 228 972 l 228 833 l 89 833 z m 783 417 l 783 139 l 506 139 l 506 417 z "},"ҍ":{"ha":1150,"x_min":0,"x_max":0,"o":"m 89 694 l 228 694 l 228 0 l 922 0 l 922 139 l 1061 139 l 1061 417 l 922 417 l 922 556 l 506 556 l 506 694 l 783 694 l 783 833 l 506 833 l 506 972 l 228 972 l 228 833 l 89 833 z m 783 417 l 783 139 l 506 139 l 506 417 z "},"Ҏ":{"ha":1150,"x_min":0,"x_max":0,"o":"m 783 139 l 922 139 l 922 417 l 1061 417 l 1061 833 l 922 833 l 922 972 l 89 972 l 89 0 l 367 0 l 367 278 l 783 278 z m 367 833 l 783 833 l 783 417 l 644 417 l 644 556 l 506 556 l 506 694 l 367 694 z m 367 556 l 506 556 l 506 417 l 367 417 z "},"ҏ":{"ha":1150,"x_min":0,"x_max":0,"o":"m 783 139 l 922 139 l 922 417 l 1061 417 l 1061 833 l 922 833 l 922 972 l 89 972 l 89 0 l 367 0 l 367 278 l 783 278 z m 367 833 l 783 833 l 783 417 l 644 417 l 644 556 l 506 556 l 506 694 l 367 694 z m 367 556 l 506 556 l 506 417 l 367 417 z "},"Ґ":{"ha":1150,"x_min":0,"x_max":0,"o":"m 367 833 l 1061 833 l 1061 1250 l 922 1250 l 922 972 l 89 972 l 89 0 l 367 0 z "},"ґ":{"ha":1150,"x_min":0,"x_max":0,"o":"m 367 833 l 1061 833 l 1061 1250 l 922 1250 l 922 972 l 89 972 l 89 0 l 367 0 z "},"Ғ":{"ha":1150,"x_min":0,"x_max":0,"o":"m 506 417 l 783 417 l 783 556 l 506 556 l 506 833 l 1061 833 l 1061 972 l 228 972 l 228 556 l 89 556 l 89 417 l 228 417 l 228 0 l 506 0 z "},"ғ":{"ha":1150,"x_min":0,"x_max":0,"o":"m 506 417 l 783 417 l 783 556 l 506 556 l 506 833 l 1061 833 l 1061 972 l 228 972 l 228 556 l 89 556 l 89 417 l 228 417 l 228 0 l 506 0 z "},"Ҕ":{"ha":1150,"x_min":0,"x_max":0,"o":"m 367 -278 l 922 -278 l 922 -139 l 1061 -139 l 1061 417 l 922 417 l 922 556 l 367 556 l 367 833 l 783 833 l 783 972 l 89 972 l 89 0 l 367 0 l 367 417 l 783 417 l 783 -139 l 367 -139 z "},"ҕ":{"ha":1150,"x_min":0,"x_max":0,"o":"m 367 -278 l 922 -278 l 922 -139 l 1061 -139 l 1061 417 l 922 417 l 922 556 l 367 556 l 367 833 l 783 833 l 783 972 l 89 972 l 89 0 l 367 0 l 367 417 l 783 417 l 783 -139 l 367 -139 z "},"Җ":{"ha":1150,"x_min":0,"x_max":0,"o":"m 922 556 l 922 694 l 1061 694 l 1061 972 l 922 972 l 922 833 l 783 833 l 783 694 l 644 694 l 644 972 l 506 972 l 506 694 l 367 694 l 367 833 l 228 833 l 228 972 l 89 972 l 89 694 l 228 694 l 228 556 l 367 556 l 367 417 l 228 417 l 228 278 l 89 278 l 89 0 l 228 0 l 228 139 l 367 139 l 367 278 l 506 278 l 506 0 l 644 0 l 644 278 l 783 278 l 783 139 l 922 139 l 922 -278 l 1061 -278 l 1061 278 l 922 278 l 922 417 l 783 417 l 783 556 z "},"җ":{"ha":1150,"x_min":0,"x_max":0,"o":"m 922 556 l 922 694 l 1061 694 l 1061 972 l 922 972 l 922 833 l 783 833 l 783 694 l 644 694 l 644 972 l 506 972 l 506 694 l 367 694 l 367 833 l 228 833 l 228 972 l 89 972 l 89 694 l 228 694 l 228 556 l 367 556 l 367 417 l 228 417 l 228 278 l 89 278 l 89 0 l 228 0 l 228 139 l 367 139 l 367 278 l 506 278 l 506 0 l 644 0 l 644 278 l 783 278 l 783 139 l 922 139 l 922 -278 l 1061 -278 l 1061 278 l 922 278 l 922 417 l 783 417 l 783 556 z "},"Ҙ":{"ha":1150,"x_min":0,"x_max":0,"o":"m 783 -278 l 783 -139 l 506 -139 l 506 0 l 922 0 l 922 139 l 1061 139 l 1061 417 l 922 417 l 922 556 l 1061 556 l 1061 833 l 922 833 l 922 972 l 228 972 l 228 833 l 89 833 l 89 694 l 367 694 l 367 833 l 783 833 l 783 556 l 367 556 l 367 417 l 783 417 l 783 139 l 367 139 l 367 278 l 89 278 l 89 139 l 228 139 l 228 0 l 367 0 l 367 -278 z "},"ҙ":{"ha":1150,"x_min":0,"x_max":0,"o":"m 783 -278 l 783 -139 l 506 -139 l 506 0 l 922 0 l 922 139 l 1061 139 l 1061 417 l 922 417 l 922 556 l 1061 556 l 1061 833 l 922 833 l 922 972 l 228 972 l 228 833 l 89 833 l 89 694 l 367 694 l 367 833 l 783 833 l 783 556 l 367 556 l 367 417 l 783 417 l 783 139 l 367 139 l 367 278 l 89 278 l 89 139 l 228 139 l 228 0 l 367 0 l 367 -278 z "},"Қ":{"ha":1150,"x_min":0,"x_max":0,"o":"m 922 -278 l 1061 -278 l 1061 139 l 922 139 l 922 278 l 783 278 l 783 417 l 644 417 l 644 556 l 783 556 l 783 694 l 922 694 l 922 833 l 1061 833 l 1061 972 l 783 972 l 783 833 l 644 833 l 644 694 l 506 694 l 506 556 l 367 556 l 367 972 l 89 972 l 89 0 l 367 0 l 367 278 l 506 278 l 506 139 l 644 139 l 644 0 l 922 0 z "},"қ":{"ha":1150,"x_min":0,"x_max":0,"o":"m 922 -278 l 1061 -278 l 1061 139 l 922 139 l 922 278 l 783 278 l 783 417 l 644 417 l 644 556 l 783 556 l 783 694 l 922 694 l 922 833 l 1061 833 l 1061 972 l 783 972 l 783 833 l 644 833 l 644 694 l 506 694 l 506 556 l 367 556 l 367 972 l 89 972 l 89 0 l 367 0 l 367 278 l 506 278 l 506 139 l 644 139 l 644 0 l 922 0 z "},"Ҝ":{"ha":1150,"x_min":0,"x_max":0,"o":"m 367 139 l 506 139 l 506 417 l 644 417 l 644 278 l 783 278 l 783 139 l 922 139 l 922 0 l 1061 0 l 1061 139 l 922 139 l 922 278 l 783 278 l 783 417 l 644 417 l 644 556 l 506 556 l 506 833 l 367 833 l 367 556 l 228 556 l 228 972 l 89 972 l 89 0 l 228 0 l 228 417 l 367 417 z m 783 556 l 783 694 l 644 694 l 644 556 z m 922 694 l 922 833 l 783 833 l 783 694 z m 1061 833 l 1061 972 l 922 972 l 922 833 z "},"ҝ":{"ha":1150,"x_min":0,"x_max":0,"o":"m 367 139 l 506 139 l 506 417 l 644 417 l 644 278 l 783 278 l 783 139 l 922 139 l 922 0 l 1061 0 l 1061 139 l 922 139 l 922 278 l 783 278 l 783 417 l 644 417 l 644 556 l 506 556 l 506 833 l 367 833 l 367 556 l 228 556 l 228 972 l 89 972 l 89 0 l 228 0 l 228 417 l 367 417 z m 783 556 l 783 694 l 644 694 l 644 556 z m 922 694 l 922 833 l 783 833 l 783 694 z m 1061 833 l 1061 972 l 922 972 l 922 833 z "},"Ҟ":{"ha":1150,"x_min":0,"x_max":0,"o":"m 89 694 l 228 694 l 228 0 l 367 0 l 367 278 l 506 278 l 506 139 l 644 139 l 644 0 l 1061 0 l 1061 139 l 922 139 l 922 278 l 783 278 l 783 417 l 644 417 l 644 556 l 783 556 l 783 694 l 922 694 l 922 833 l 1061 833 l 1061 972 l 783 972 l 783 833 l 644 833 l 644 694 l 506 694 l 506 833 l 367 833 l 367 972 l 228 972 l 228 833 l 89 833 z m 506 556 l 367 556 l 367 694 l 506 694 z "},"ҟ":{"ha":1150,"x_min":0,"x_max":0,"o":"m 89 694 l 228 694 l 228 0 l 367 0 l 367 278 l 506 278 l 506 139 l 644 139 l 644 0 l 1061 0 l 1061 139 l 922 139 l 922 278 l 783 278 l 783 417 l 644 417 l 644 556 l 783 556 l 783 694 l 922 694 l 922 833 l 1061 833 l 1061 972 l 783 972 l 783 833 l 644 833 l 644 694 l 506 694 l 506 833 l 367 833 l 367 972 l 228 972 l 228 833 l 89 833 z m 506 556 l 367 556 l 367 694 l 506 694 z "},"Ҡ":{"ha":1150,"x_min":0,"x_max":0,"o":"m 1061 139 l 922 139 l 922 278 l 783 278 l 783 417 l 644 417 l 644 556 l 783 556 l 783 694 l 922 694 l 922 833 l 1061 833 l 1061 972 l 783 972 l 783 833 l 644 833 l 644 694 l 506 694 l 506 556 l 367 556 l 367 972 l 89 972 l 89 833 l 228 833 l 228 0 l 367 0 l 367 278 l 506 278 l 506 139 l 644 139 l 644 0 l 1061 0 z "},"ҡ":{"ha":1150,"x_min":0,"x_max":0,"o":"m 1061 139 l 922 139 l 922 278 l 783 278 l 783 417 l 644 417 l 644 556 l 783 556 l 783 694 l 922 694 l 922 833 l 1061 833 l 1061 972 l 783 972 l 783 833 l 644 833 l 644 694 l 506 694 l 506 556 l 367 556 l 367 972 l 89 972 l 89 833 l 228 833 l 228 0 l 367 0 l 367 278 l 506 278 l 506 139 l 644 139 l 644 0 l 1061 0 z "},"Ң":{"ha":1150,"x_min":0,"x_max":0,"o":"m 922 -278 l 1061 -278 l 1061 139 l 922 139 l 922 972 l 644 972 l 644 556 l 367 556 l 367 972 l 89 972 l 89 0 l 367 0 l 367 417 l 644 417 l 644 0 l 922 0 z "},"ң":{"ha":1150,"x_min":0,"x_max":0,"o":"m 922 -278 l 1061 -278 l 1061 139 l 922 139 l 922 972 l 644 972 l 644 556 l 367 556 l 367 972 l 89 972 l 89 0 l 367 0 l 367 417 l 644 417 l 644 0 l 922 0 z "},"Ҥ":{"ha":1150,"x_min":0,"x_max":0,"o":"m 89 833 l 228 833 l 228 0 l 506 0 l 506 417 l 783 417 l 783 0 l 1061 0 l 1061 972 l 783 972 l 783 556 l 506 556 l 506 972 l 89 972 z "},"ҥ":{"ha":1150,"x_min":0,"x_max":0,"o":"m 89 833 l 228 833 l 228 0 l 506 0 l 506 417 l 783 417 l 783 0 l 1061 0 l 1061 972 l 783 972 l 783 556 l 506 556 l 506 972 l 89 972 z "},"Ҧ":{"ha":1150,"x_min":0,"x_max":0,"o":"m 506 -278 l 922 -278 l 922 -139 l 1061 -139 l 1061 417 l 922 417 l 922 556 l 644 556 l 644 972 l 89 972 l 89 0 l 367 0 l 367 833 l 506 833 l 506 0 l 644 0 l 644 417 l 783 417 l 783 -139 l 506 -139 z "},"ҧ":{"ha":1150,"x_min":0,"x_max":0,"o":"m 506 -278 l 922 -278 l 922 -139 l 1061 -139 l 1061 417 l 922 417 l 922 556 l 644 556 l 644 972 l 89 972 l 89 0 l 367 0 l 367 833 l 506 833 l 506 0 l 644 0 l 644 417 l 783 417 l 783 -139 l 506 -139 z "},"Ҩ":{"ha":1150,"x_min":0,"x_max":0,"o":"m 228 0 l 644 0 l 644 139 l 367 139 l 367 833 l 783 833 l 783 972 l 228 972 l 228 833 l 89 833 l 89 139 l 228 139 z m 922 139 l 922 0 l 1061 0 l 1061 139 l 922 139 l 922 278 l 644 278 l 644 556 l 506 556 l 506 278 l 644 278 l 644 139 z m 922 556 l 922 694 l 644 694 l 644 556 z m 922 556 l 922 278 l 1061 278 l 1061 556 z "},"ҩ":{"ha":1150,"x_min":0,"x_max":0,"o":"m 228 0 l 644 0 l 644 139 l 367 139 l 367 833 l 783 833 l 783 972 l 228 972 l 228 833 l 89 833 l 89 139 l 228 139 z m 922 139 l 922 0 l 1061 0 l 1061 139 l 922 139 l 922 278 l 644 278 l 644 556 l 506 556 l 506 278 l 644 278 l 644 139 z m 922 556 l 922 694 l 644 694 l 644 556 z m 922 556 l 922 278 l 1061 278 l 1061 556 z "},"Ҫ":{"ha":1150,"x_min":0,"x_max":0,"o":"m 922 -278 l 922 -139 l 644 -139 l 644 0 l 922 0 l 922 139 l 1061 139 l 1061 278 l 783 278 l 783 139 l 506 139 l 506 278 l 367 278 l 367 694 l 506 694 l 506 833 l 783 833 l 783 694 l 1061 694 l 1061 833 l 922 833 l 922 972 l 367 972 l 367 833 l 228 833 l 228 694 l 89 694 l 89 278 l 228 278 l 228 139 l 367 139 l 367 0 l 506 0 l 506 -278 z "},"ҫ":{"ha":1150,"x_min":0,"x_max":0,"o":"m 922 -278 l 922 -139 l 644 -139 l 644 0 l 922 0 l 922 139 l 1061 139 l 1061 278 l 783 278 l 783 139 l 506 139 l 506 278 l 367 278 l 367 694 l 506 694 l 506 833 l 783 833 l 783 694 l 1061 694 l 1061 833 l 922 833 l 922 972 l 367 972 l 367 833 l 228 833 l 228 694 l 89 694 l 89 278 l 228 278 l 228 139 l 367 139 l 367 0 l 506 0 l 506 -278 z "},"Ҭ":{"ha":1150,"x_min":0,"x_max":0,"o":"m 714 -278 l 853 -278 l 853 139 l 714 139 l 714 833 l 992 833 l 992 972 l 158 972 l 158 833 l 436 833 l 436 0 l 714 0 z "},"ҭ":{"ha":1150,"x_min":0,"x_max":0,"o":"m 714 -278 l 853 -278 l 853 139 l 714 139 l 714 833 l 992 833 l 992 972 l 158 972 l 158 833 l 436 833 l 436 0 l 714 0 z "},"Ұ":{"ha":1150,"x_min":0,"x_max":0,"o":"m 992 139 l 992 278 l 714 278 l 714 417 l 853 417 l 853 556 l 992 556 l 992 972 l 714 972 l 714 556 l 436 556 l 436 972 l 158 972 l 158 556 l 296 556 l 296 417 l 436 417 l 436 278 l 158 278 l 158 139 l 436 139 l 436 0 l 714 0 l 714 139 z "},"ұ":{"ha":1150,"x_min":0,"x_max":0,"o":"m 992 139 l 992 278 l 714 278 l 714 417 l 853 417 l 853 556 l 992 556 l 992 972 l 714 972 l 714 556 l 436 556 l 436 972 l 158 972 l 158 556 l 296 556 l 296 417 l 436 417 l 436 278 l 158 278 l 158 139 l 436 139 l 436 0 l 714 0 l 714 139 z "},"Ҳ":{"ha":1150,"x_min":0,"x_max":0,"o":"m 922 -278 l 1061 -278 l 1061 278 l 922 278 l 922 417 l 783 417 l 783 556 l 922 556 l 922 694 l 1061 694 l 1061 972 l 783 972 l 783 833 l 644 833 l 644 694 l 506 694 l 506 833 l 367 833 l 367 972 l 89 972 l 89 694 l 228 694 l 228 556 l 367 556 l 367 417 l 228 417 l 228 278 l 89 278 l 89 0 l 367 0 l 367 139 l 506 139 l 506 278 l 644 278 l 644 139 l 783 139 l 783 0 l 922 0 z "},"ҳ":{"ha":1150,"x_min":0,"x_max":0,"o":"m 922 -278 l 1061 -278 l 1061 278 l 922 278 l 922 417 l 783 417 l 783 556 l 922 556 l 922 694 l 1061 694 l 1061 972 l 783 972 l 783 833 l 644 833 l 644 694 l 506 694 l 506 833 l 367 833 l 367 972 l 89 972 l 89 694 l 228 694 l 228 556 l 367 556 l 367 417 l 228 417 l 228 278 l 89 278 l 89 0 l 367 0 l 367 139 l 506 139 l 506 278 l 644 278 l 644 139 l 783 139 l 783 0 l 922 0 z "},"Ҵ":{"ha":1150,"x_min":0,"x_max":0,"o":"m 922 -278 l 1061 -278 l 1061 139 l 922 139 l 922 972 l 783 972 l 783 139 l 506 139 l 506 833 l 644 833 l 644 972 l 89 972 l 89 833 l 228 833 l 228 0 l 922 0 z "},"ҵ":{"ha":1150,"x_min":0,"x_max":0,"o":"m 922 -278 l 1061 -278 l 1061 139 l 922 139 l 922 972 l 783 972 l 783 139 l 506 139 l 506 833 l 644 833 l 644 972 l 89 972 l 89 833 l 228 833 l 228 0 l 922 0 z "},"Ҷ":{"ha":1150,"x_min":0,"x_max":0,"o":"m 922 -278 l 1061 -278 l 1061 139 l 922 139 l 922 972 l 644 972 l 644 556 l 367 556 l 367 972 l 89 972 l 89 556 l 228 556 l 228 417 l 644 417 l 644 0 l 922 0 z "},"ҷ":{"ha":1150,"x_min":0,"x_max":0,"o":"m 922 -278 l 1061 -278 l 1061 139 l 922 139 l 922 972 l 644 972 l 644 556 l 367 556 l 367 972 l 89 972 l 89 556 l 228 556 l 228 417 l 644 417 l 644 0 l 922 0 z "},"Ҹ":{"ha":1150,"x_min":0,"x_max":0,"o":"m 506 139 l 644 139 l 644 417 l 783 417 l 783 0 l 1061 0 l 1061 972 l 783 972 l 783 556 l 644 556 l 644 833 l 506 833 l 506 556 l 367 556 l 367 972 l 89 972 l 89 556 l 228 556 l 228 417 l 506 417 z "},"ҹ":{"ha":1150,"x_min":0,"x_max":0,"o":"m 506 139 l 644 139 l 644 417 l 783 417 l 783 0 l 1061 0 l 1061 972 l 783 972 l 783 556 l 644 556 l 644 833 l 506 833 l 506 556 l 367 556 l 367 972 l 89 972 l 89 556 l 228 556 l 228 417 l 506 417 z "},"Һ":{"ha":1150,"x_min":0,"x_max":0,"o":"m 1061 417 l 922 417 l 922 556 l 367 556 l 367 972 l 89 972 l 89 0 l 367 0 l 367 417 l 783 417 l 783 0 l 1061 0 z "},"һ":{"ha":1150,"x_min":0,"x_max":0,"o":"m 1061 417 l 922 417 l 922 556 l 367 556 l 367 972 l 89 972 l 89 0 l 367 0 l 367 417 l 783 417 l 783 0 l 1061 0 z "},"Ҽ":{"ha":1150,"x_min":0,"x_max":0,"o":"m 89 417 l 367 417 l 367 139 l 506 139 l 506 0 l 922 0 l 922 139 l 1061 139 l 1061 278 l 783 278 l 783 139 l 644 139 l 644 417 l 1061 417 l 1061 833 l 922 833 l 922 972 l 506 972 l 506 833 l 367 833 l 367 556 l 228 556 l 228 694 l 89 694 z m 644 556 l 644 833 l 783 833 l 783 556 z "},"ҽ":{"ha":1150,"x_min":0,"x_max":0,"o":"m 89 417 l 367 417 l 367 139 l 506 139 l 506 0 l 922 0 l 922 139 l 1061 139 l 1061 278 l 783 278 l 783 139 l 644 139 l 644 417 l 1061 417 l 1061 833 l 922 833 l 922 972 l 506 972 l 506 833 l 367 833 l 367 556 l 228 556 l 228 694 l 89 694 z m 644 556 l 644 833 l 783 833 l 783 556 z "},"Ҿ":{"ha":1150,"x_min":0,"x_max":0,"o":"m 89 417 l 367 417 l 367 139 l 506 139 l 506 0 l 644 0 l 644 -278 l 783 -278 l 783 0 l 922 0 l 922 139 l 1061 139 l 1061 278 l 783 278 l 783 139 l 644 139 l 644 417 l 1061 417 l 1061 833 l 922 833 l 922 972 l 506 972 l 506 833 l 367 833 l 367 556 l 228 556 l 228 694 l 89 694 z m 644 556 l 644 833 l 783 833 l 783 556 z "},"ҿ":{"ha":1150,"x_min":0,"x_max":0,"o":"m 89 417 l 367 417 l 367 139 l 506 139 l 506 0 l 644 0 l 644 -278 l 783 -278 l 783 0 l 922 0 l 922 139 l 1061 139 l 1061 278 l 783 278 l 783 139 l 644 139 l 644 417 l 1061 417 l 1061 833 l 922 833 l 922 972 l 506 972 l 506 833 l 367 833 l 367 556 l 228 556 l 228 694 l 89 694 z m 644 556 l 644 833 l 783 833 l 783 556 z "},"Ӂ":{"ha":1150,"x_min":0,"x_max":0,"o":"m 922 556 l 922 694 l 1061 694 l 1061 972 l 922 972 l 922 833 l 783 833 l 783 694 l 644 694 l 644 972 l 506 972 l 506 694 l 367 694 l 367 833 l 228 833 l 228 972 l 89 972 l 89 694 l 228 694 l 228 556 l 367 556 l 367 417 l 228 417 l 228 278 l 89 278 l 89 0 l 228 0 l 228 139 l 367 139 l 367 278 l 506 278 l 506 0 l 644 0 l 644 278 l 783 278 l 783 139 l 922 139 l 922 0 l 1061 0 l 1061 278 l 922 278 l 922 417 l 783 417 l 783 556 z m 714 1389 l 714 1250 l 436 1250 l 436 1389 l 297 1389 l 297 1111 l 853 1111 l 853 1389 z "},"ӂ":{"ha":1150,"x_min":0,"x_max":0,"o":"m 922 556 l 922 694 l 1061 694 l 1061 972 l 922 972 l 922 833 l 783 833 l 783 694 l 644 694 l 644 972 l 506 972 l 506 694 l 367 694 l 367 833 l 228 833 l 228 972 l 89 972 l 89 694 l 228 694 l 228 556 l 367 556 l 367 417 l 228 417 l 228 278 l 89 278 l 89 0 l 228 0 l 228 139 l 367 139 l 367 278 l 506 278 l 506 0 l 644 0 l 644 278 l 783 278 l 783 139 l 922 139 l 922 0 l 1061 0 l 1061 278 l 922 278 l 922 417 l 783 417 l 783 556 z m 714 1389 l 714 1250 l 436 1250 l 436 1389 l 297 1389 l 297 1111 l 853 1111 l 853 1389 z "},"ϗ":{"ha":1150,"x_min":0,"x_max":0,"o":"m 506 -278 l 922 -278 l 922 -139 l 1061 -139 l 1061 139 l 922 139 l 922 278 l 783 278 l 783 417 l 644 417 l 644 556 l 783 556 l 783 694 l 922 694 l 922 833 l 1061 833 l 1061 972 l 783 972 l 783 833 l 644 833 l 644 694 l 506 694 l 506 556 l 367 556 l 367 972 l 89 972 l 89 0 l 367 0 l 367 278 l 506 278 l 506 139 l 644 139 l 644 0 l 783 0 l 783 -139 l 506 -139 z "},"Ӄ":{"ha":1150,"x_min":0,"x_max":0,"o":"m 506 -278 l 922 -278 l 922 -139 l 1061 -139 l 1061 139 l 922 139 l 922 278 l 783 278 l 783 417 l 644 417 l 644 556 l 783 556 l 783 694 l 922 694 l 922 833 l 1061 833 l 1061 972 l 783 972 l 783 833 l 644 833 l 644 694 l 506 694 l 506 556 l 367 556 l 367 972 l 89 972 l 89 0 l 367 0 l 367 278 l 506 278 l 506 139 l 644 139 l 644 0 l 783 0 l 783 -139 l 506 -139 z "},"ӄ":{"ha":1150,"x_min":0,"x_max":0,"o":"m 506 -278 l 922 -278 l 922 -139 l 1061 -139 l 1061 139 l 922 139 l 922 278 l 783 278 l 783 417 l 644 417 l 644 556 l 783 556 l 783 694 l 922 694 l 922 833 l 1061 833 l 1061 972 l 783 972 l 783 833 l 644 833 l 644 694 l 506 694 l 506 556 l 367 556 l 367 972 l 89 972 l 89 0 l 367 0 l 367 278 l 506 278 l 506 139 l 644 139 l 644 0 l 783 0 l 783 -139 l 506 -139 z "},"Ӆ":{"ha":1150,"x_min":0,"x_max":0,"o":"m 922 -139 l 1061 -139 l 1061 139 l 922 139 l 922 972 l 367 972 l 367 278 l 228 278 l 228 139 l 89 139 l 89 0 l 367 0 l 367 139 l 506 139 l 506 833 l 644 833 l 644 0 l 922 0 z m 783 -278 l 922 -278 l 922 -139 l 783 -139 z "},"ӆ":{"ha":1150,"x_min":0,"x_max":0,"o":"m 922 -139 l 1061 -139 l 1061 139 l 922 139 l 922 972 l 367 972 l 367 278 l 228 278 l 228 139 l 89 139 l 89 0 l 367 0 l 367 139 l 506 139 l 506 833 l 644 833 l 644 0 l 922 0 z m 783 -278 l 922 -278 l 922 -139 l 783 -139 z "},"Ӈ":{"ha":1150,"x_min":0,"x_max":0,"o":"m 506 -278 l 922 -278 l 922 -139 l 1061 -139 l 1061 972 l 783 972 l 783 556 l 367 556 l 367 972 l 89 972 l 89 0 l 367 0 l 367 417 l 783 417 l 783 -139 l 506 -139 z "},"ӈ":{"ha":1150,"x_min":0,"x_max":0,"o":"m 506 -278 l 922 -278 l 922 -139 l 1061 -139 l 1061 972 l 783 972 l 783 556 l 367 556 l 367 972 l 89 972 l 89 0 l 367 0 l 367 417 l 783 417 l 783 -139 l 506 -139 z "},"Ӊ":{"ha":1150,"x_min":0,"x_max":0,"o":"m 922 -139 l 1061 -139 l 1061 139 l 922 139 l 922 972 l 644 972 l 644 556 l 367 556 l 367 972 l 89 972 l 89 0 l 367 0 l 367 417 l 644 417 l 644 0 l 922 0 z m 783 -278 l 922 -278 l 922 -139 l 783 -139 z "},"ӊ":{"ha":1150,"x_min":0,"x_max":0,"o":"m 922 -139 l 1061 -139 l 1061 139 l 922 139 l 922 972 l 644 972 l 644 556 l 367 556 l 367 972 l 89 972 l 89 0 l 367 0 l 367 417 l 644 417 l 644 0 l 922 0 z m 783 -278 l 922 -278 l 922 -139 l 783 -139 z "},"Ӌ":{"ha":1150,"x_min":0,"x_max":0,"o":"m 922 -139 l 1061 -139 l 1061 139 l 922 139 l 922 972 l 644 972 l 644 556 l 367 556 l 367 972 l 89 972 l 89 556 l 228 556 l 228 417 l 644 417 l 644 0 l 922 0 z m 783 -278 l 922 -278 l 922 -139 l 783 -139 z "},"ӌ":{"ha":1150,"x_min":0,"x_max":0,"o":"m 922 -139 l 1061 -139 l 1061 139 l 922 139 l 922 972 l 644 972 l 644 556 l 367 556 l 367 972 l 89 972 l 89 556 l 228 556 l 228 417 l 644 417 l 644 0 l 922 0 z m 783 -278 l 922 -278 l 922 -139 l 783 -139 z "},"Ӎ":{"ha":1150,"x_min":0,"x_max":0,"o":"m 922 -139 l 1061 -139 l 1061 139 l 922 139 l 922 972 l 783 972 l 783 833 l 644 833 l 644 694 l 367 694 l 367 833 l 228 833 l 228 972 l 89 972 l 89 0 l 228 0 l 228 417 l 367 417 l 367 278 l 644 278 l 644 417 l 783 417 l 783 0 l 922 0 z m 783 -278 l 922 -278 l 922 -139 l 783 -139 z "},"ӎ":{"ha":1150,"x_min":0,"x_max":0,"o":"m 922 -139 l 1061 -139 l 1061 139 l 922 139 l 922 972 l 783 972 l 783 833 l 644 833 l 644 694 l 367 694 l 367 833 l 228 833 l 228 972 l 89 972 l 89 0 l 228 0 l 228 417 l 367 417 l 367 278 l 644 278 l 644 417 l 783 417 l 783 0 l 922 0 z m 783 -278 l 922 -278 l 922 -139 l 783 -139 z "},"Ӛ":{"ha":1150,"x_min":0,"x_max":0,"o":"m 89 694 l 367 694 l 367 833 l 783 833 l 783 556 l 89 556 l 89 139 l 228 139 l 228 0 l 922 0 l 922 139 l 1061 139 l 1061 833 l 922 833 l 922 972 l 228 972 l 228 833 l 89 833 z m 783 417 l 783 139 l 367 139 l 367 417 z m 644 1389 l 644 1111 l 922 1111 l 922 1389 z m 228 1111 l 506 1111 l 506 1389 l 228 1389 z "},"ӛ":{"ha":1150,"x_min":0,"x_max":0,"o":"m 89 694 l 367 694 l 367 833 l 783 833 l 783 556 l 89 556 l 89 139 l 228 139 l 228 0 l 922 0 l 922 139 l 1061 139 l 1061 833 l 922 833 l 922 972 l 228 972 l 228 833 l 89 833 z m 783 417 l 783 139 l 367 139 l 367 417 z m 644 1389 l 644 1111 l 922 1111 l 922 1389 z m 228 1111 l 506 1111 l 506 1389 l 228 1389 z "},"Ӝ":{"ha":1150,"x_min":0,"x_max":0,"o":"m 922 556 l 922 694 l 1061 694 l 1061 972 l 922 972 l 922 833 l 783 833 l 783 694 l 644 694 l 644 972 l 506 972 l 506 694 l 367 694 l 367 833 l 228 833 l 228 972 l 89 972 l 89 694 l 228 694 l 228 556 l 367 556 l 367 417 l 228 417 l 228 278 l 89 278 l 89 0 l 228 0 l 228 139 l 367 139 l 367 278 l 506 278 l 506 0 l 644 0 l 644 278 l 783 278 l 783 139 l 922 139 l 922 0 l 1061 0 l 1061 278 l 922 278 l 922 417 l 783 417 l 783 556 z m 644 1389 l 644 1111 l 922 1111 l 922 1389 z m 228 1111 l 506 1111 l 506 1389 l 228 1389 z "},"ӝ":{"ha":1150,"x_min":0,"x_max":0,"o":"m 922 556 l 922 694 l 1061 694 l 1061 972 l 922 972 l 922 833 l 783 833 l 783 694 l 644 694 l 644 972 l 506 972 l 506 694 l 367 694 l 367 833 l 228 833 l 228 972 l 89 972 l 89 694 l 228 694 l 228 556 l 367 556 l 367 417 l 228 417 l 228 278 l 89 278 l 89 0 l 228 0 l 228 139 l 367 139 l 367 278 l 506 278 l 506 0 l 644 0 l 644 278 l 783 278 l 783 139 l 922 139 l 922 0 l 1061 0 l 1061 278 l 922 278 l 922 417 l 783 417 l 783 556 z m 644 1389 l 644 1111 l 922 1111 l 922 1389 z m 228 1111 l 506 1111 l 506 1389 l 228 1389 z "},"Ӟ":{"ha":1150,"x_min":0,"x_max":0,"o":"m 783 556 l 367 556 l 367 417 l 783 417 l 783 139 l 367 139 l 367 278 l 89 278 l 89 139 l 228 139 l 228 0 l 922 0 l 922 139 l 1061 139 l 1061 417 l 922 417 l 922 556 l 1061 556 l 1061 833 l 922 833 l 922 972 l 228 972 l 228 833 l 89 833 l 89 694 l 367 694 l 367 833 l 783 833 z m 644 1389 l 644 1111 l 922 1111 l 922 1389 z m 228 1111 l 506 1111 l 506 1389 l 228 1389 z "},"ӟ":{"ha":1150,"x_min":0,"x_max":0,"o":"m 783 556 l 367 556 l 367 417 l 783 417 l 783 139 l 367 139 l 367 278 l 89 278 l 89 139 l 228 139 l 228 0 l 922 0 l 922 139 l 1061 139 l 1061 417 l 922 417 l 922 556 l 1061 556 l 1061 833 l 922 833 l 922 972 l 228 972 l 228 833 l 89 833 l 89 694 l 367 694 l 367 833 l 783 833 z m 644 1389 l 644 1111 l 922 1111 l 922 1389 z m 228 1111 l 506 1111 l 506 1389 l 228 1389 z "},"Ӣ":{"ha":1150,"x_min":0,"x_max":0,"o":"m 89 0 l 367 0 l 367 139 l 506 139 l 506 278 l 644 278 l 644 417 l 783 417 l 783 0 l 1061 0 l 1061 972 l 783 972 l 783 833 l 644 833 l 644 694 l 506 694 l 506 556 l 367 556 l 367 972 l 89 972 z m 783 1111 l 783 1250 l 367 1250 l 367 1111 z "},"ӣ":{"ha":1150,"x_min":0,"x_max":0,"o":"m 89 0 l 367 0 l 367 139 l 506 139 l 506 278 l 644 278 l 644 417 l 783 417 l 783 0 l 1061 0 l 1061 972 l 783 972 l 783 833 l 644 833 l 644 694 l 506 694 l 506 556 l 367 556 l 367 972 l 89 972 z m 783 1111 l 783 1250 l 367 1250 l 367 1111 z "},"Ӥ":{"ha":1150,"x_min":0,"x_max":0,"o":"m 89 0 l 367 0 l 367 139 l 506 139 l 506 278 l 644 278 l 644 417 l 783 417 l 783 0 l 1061 0 l 1061 972 l 783 972 l 783 833 l 644 833 l 644 694 l 506 694 l 506 556 l 367 556 l 367 972 l 89 972 z m 644 1389 l 644 1111 l 922 1111 l 922 1389 z m 228 1111 l 506 1111 l 506 1389 l 228 1389 z "},"ӥ":{"ha":1150,"x_min":0,"x_max":0,"o":"m 89 0 l 367 0 l 367 139 l 506 139 l 506 278 l 644 278 l 644 417 l 783 417 l 783 0 l 1061 0 l 1061 972 l 783 972 l 783 833 l 644 833 l 644 694 l 506 694 l 506 556 l 367 556 l 367 972 l 89 972 z m 644 1389 l 644 1111 l 922 1111 l 922 1389 z m 228 1111 l 506 1111 l 506 1389 l 228 1389 z "},"Θ":{"ha":1150,"x_min":0,"x_max":0,"o":"m 1061 833 l 922 833 l 922 972 l 228 972 l 228 833 l 89 833 l 89 139 l 228 139 l 228 0 l 922 0 l 922 139 l 1061 139 z m 367 833 l 783 833 l 783 556 l 367 556 z m 367 139 l 367 417 l 783 417 l 783 139 z "},"θ":{"ha":1150,"x_min":0,"x_max":0,"o":"m 1061 833 l 922 833 l 922 972 l 228 972 l 228 833 l 89 833 l 89 139 l 228 139 l 228 0 l 922 0 l 922 139 l 1061 139 z m 367 833 l 783 833 l 783 556 l 367 556 z m 367 139 l 367 417 l 783 417 l 783 139 z "},"Ѳ":{"ha":1150,"x_min":0,"x_max":0,"o":"m 1061 833 l 922 833 l 922 972 l 228 972 l 228 833 l 89 833 l 89 139 l 228 139 l 228 0 l 922 0 l 922 139 l 1061 139 z m 367 833 l 783 833 l 783 556 l 367 556 z m 367 139 l 367 417 l 783 417 l 783 139 z "},"ѳ":{"ha":1150,"x_min":0,"x_max":0,"o":"m 1061 833 l 922 833 l 922 972 l 228 972 l 228 833 l 89 833 l 89 139 l 228 139 l 228 0 l 922 0 l 922 139 l 1061 139 z m 367 833 l 783 833 l 783 556 l 367 556 z m 367 139 l 367 417 l 783 417 l 783 139 z "},"Ө":{"ha":1150,"x_min":0,"x_max":0,"o":"m 1061 833 l 922 833 l 922 972 l 228 972 l 228 833 l 89 833 l 89 139 l 228 139 l 228 0 l 922 0 l 922 139 l 1061 139 z m 367 833 l 783 833 l 783 556 l 367 556 z m 367 139 l 367 417 l 783 417 l 783 139 z "},"ө":{"ha":1150,"x_min":0,"x_max":0,"o":"m 1061 833 l 922 833 l 922 972 l 228 972 l 228 833 l 89 833 l 89 139 l 228 139 l 228 0 l 922 0 l 922 139 l 1061 139 z m 367 833 l 783 833 l 783 556 l 367 556 z m 367 139 l 367 417 l 783 417 l 783 139 z "},"Ӫ":{"ha":1150,"x_min":0,"x_max":0,"o":"m 1061 833 l 922 833 l 922 972 l 228 972 l 228 833 l 89 833 l 89 139 l 228 139 l 228 0 l 922 0 l 922 139 l 1061 139 z m 367 833 l 783 833 l 783 556 l 367 556 z m 367 139 l 367 417 l 783 417 l 783 139 z m 644 1389 l 644 1111 l 922 1111 l 922 1389 z m 228 1111 l 506 1111 l 506 1389 l 228 1389 z "},"ӫ":{"ha":1150,"x_min":0,"x_max":0,"o":"m 1061 833 l 922 833 l 922 972 l 228 972 l 228 833 l 89 833 l 89 139 l 228 139 l 228 0 l 922 0 l 922 139 l 1061 139 z m 367 833 l 783 833 l 783 556 l 367 556 z m 367 139 l 367 417 l 783 417 l 783 139 z m 644 1389 l 644 1111 l 922 1111 l 922 1389 z m 228 1111 l 506 1111 l 506 1389 l 228 1389 z "},"Ӭ":{"ha":1150,"x_min":0,"x_max":0,"o":"m 89 139 l 228 139 l 228 0 l 783 0 l 783 139 l 922 139 l 922 278 l 1061 278 l 1061 694 l 922 694 l 922 833 l 783 833 l 783 972 l 228 972 l 228 833 l 89 833 l 89 694 l 367 694 l 367 833 l 644 833 l 644 694 l 783 694 l 783 556 l 367 556 l 367 417 l 783 417 l 783 278 l 644 278 l 644 139 l 367 139 l 367 278 l 89 278 z m 644 1389 l 644 1111 l 922 1111 l 922 1389 z m 228 1111 l 506 1111 l 506 1389 l 228 1389 z "},"ӭ":{"ha":1150,"x_min":0,"x_max":0,"o":"m 89 139 l 228 139 l 228 0 l 783 0 l 783 139 l 922 139 l 922 278 l 1061 278 l 1061 694 l 922 694 l 922 833 l 783 833 l 783 972 l 228 972 l 228 833 l 89 833 l 89 694 l 367 694 l 367 833 l 644 833 l 644 694 l 783 694 l 783 556 l 367 556 l 367 417 l 783 417 l 783 278 l 644 278 l 644 139 l 367 139 l 367 278 l 89 278 z m 644 1389 l 644 1111 l 922 1111 l 922 1389 z m 228 1111 l 506 1111 l 506 1389 l 228 1389 z "},"Ӯ":{"ha":1150,"x_min":0,"x_max":0,"o":"m 89 139 l 228 139 l 228 0 l 922 0 l 922 139 l 1061 139 l 1061 972 l 783 972 l 783 556 l 367 556 l 367 972 l 89 972 l 89 556 l 228 556 l 228 417 l 783 417 l 783 139 l 367 139 l 367 278 l 89 278 z m 783 1111 l 783 1250 l 367 1250 l 367 1111 z "},"ӯ":{"ha":1150,"x_min":0,"x_max":0,"o":"m 89 139 l 228 139 l 228 0 l 922 0 l 922 139 l 1061 139 l 1061 972 l 783 972 l 783 556 l 367 556 l 367 972 l 89 972 l 89 556 l 228 556 l 228 417 l 783 417 l 783 139 l 367 139 l 367 278 l 89 278 z m 783 1111 l 783 1250 l 367 1250 l 367 1111 z "},"Ӱ":{"ha":1150,"x_min":0,"x_max":0,"o":"m 89 139 l 228 139 l 228 0 l 922 0 l 922 139 l 1061 139 l 1061 972 l 783 972 l 783 556 l 367 556 l 367 972 l 89 972 l 89 556 l 228 556 l 228 417 l 783 417 l 783 139 l 367 139 l 367 278 l 89 278 z m 644 1389 l 644 1111 l 922 1111 l 922 1389 z m 228 1111 l 506 1111 l 506 1389 l 228 1389 z "},"ӱ":{"ha":1150,"x_min":0,"x_max":0,"o":"m 89 139 l 228 139 l 228 0 l 922 0 l 922 139 l 1061 139 l 1061 972 l 783 972 l 783 556 l 367 556 l 367 972 l 89 972 l 89 556 l 228 556 l 228 417 l 783 417 l 783 139 l 367 139 l 367 278 l 89 278 z m 644 1389 l 644 1111 l 922 1111 l 922 1389 z m 228 1111 l 506 1111 l 506 1389 l 228 1389 z "},"Ӳ":{"ha":1150,"x_min":0,"x_max":0,"o":"m 89 139 l 228 139 l 228 0 l 922 0 l 922 139 l 1061 139 l 1061 972 l 783 972 l 783 556 l 367 556 l 367 972 l 89 972 l 89 556 l 228 556 l 228 417 l 783 417 l 783 139 l 367 139 l 367 278 l 89 278 z m 506 1111 l 506 1250 l 644 1250 l 644 1389 l 367 1389 l 367 1250 l 228 1250 l 228 1111 z m 922 1111 l 922 1250 l 1061 1250 l 1061 1389 l 783 1389 l 783 1250 l 644 1250 l 644 1111 z "},"ӳ":{"ha":1150,"x_min":0,"x_max":0,"o":"m 89 139 l 228 139 l 228 0 l 922 0 l 922 139 l 1061 139 l 1061 972 l 783 972 l 783 556 l 367 556 l 367 972 l 89 972 l 89 556 l 228 556 l 228 417 l 783 417 l 783 139 l 367 139 l 367 278 l 89 278 z m 506 1111 l 506 1250 l 644 1250 l 644 1389 l 367 1389 l 367 1250 l 228 1250 l 228 1111 z m 922 1111 l 922 1250 l 1061 1250 l 1061 1389 l 783 1389 l 783 1250 l 644 1250 l 644 1111 z "},"Ӵ":{"ha":1150,"x_min":0,"x_max":0,"o":"m 89 556 l 228 556 l 228 417 l 783 417 l 783 0 l 1061 0 l 1061 972 l 783 972 l 783 556 l 367 556 l 367 972 l 89 972 z m 644 1389 l 644 1111 l 922 1111 l 922 1389 z m 228 1111 l 506 1111 l 506 1389 l 228 1389 z "},"ӵ":{"ha":1150,"x_min":0,"x_max":0,"o":"m 89 556 l 228 556 l 228 417 l 783 417 l 783 0 l 1061 0 l 1061 972 l 783 972 l 783 556 l 367 556 l 367 972 l 89 972 z m 644 1389 l 644 1111 l 922 1111 l 922 1389 z m 228 1111 l 506 1111 l 506 1389 l 228 1389 z "},"Ӷ":{"ha":1150,"x_min":0,"x_max":0,"o":"m 367 -278 l 506 -278 l 506 139 l 367 139 l 367 833 l 1061 833 l 1061 972 l 89 972 l 89 0 l 367 0 z "},"ӷ":{"ha":1150,"x_min":0,"x_max":0,"o":"m 367 -278 l 506 -278 l 506 139 l 367 139 l 367 833 l 1061 833 l 1061 972 l 89 972 l 89 0 l 367 0 z "},"Ӹ":{"ha":1150,"x_min":0,"x_max":0,"o":"m 467 417 l 467 139 l 328 139 l 328 417 z m 744 417 l 606 417 l 606 556 l 328 556 l 328 972 l 50 972 l 50 0 l 606 0 l 606 139 l 744 139 z m 814 972 l 814 0 l 1092 0 l 1092 972 z m 644 1389 l 644 1111 l 922 1111 l 922 1389 z m 228 1111 l 506 1111 l 506 1389 l 228 1389 z "},"ӹ":{"ha":1150,"x_min":0,"x_max":0,"o":"m 467 417 l 467 139 l 328 139 l 328 417 z m 744 417 l 606 417 l 606 556 l 328 556 l 328 972 l 50 972 l 50 0 l 606 0 l 606 139 l 744 139 z m 814 972 l 814 0 l 1092 0 l 1092 972 z m 644 1389 l 644 1111 l 922 1111 l 922 1389 z m 228 1111 l 506 1111 l 506 1389 l 228 1389 z "},"Ӻ":{"ha":1150,"x_min":0,"x_max":0,"o":"m 89 -278 l 367 -278 l 367 -139 l 506 -139 l 506 417 l 783 417 l 783 556 l 506 556 l 506 833 l 1061 833 l 1061 972 l 228 972 l 228 556 l 89 556 l 89 417 l 228 417 l 228 -139 l 89 -139 z "},"ӻ":{"ha":1150,"x_min":0,"x_max":0,"o":"m 89 -278 l 367 -278 l 367 -139 l 506 -139 l 506 417 l 783 417 l 783 556 l 506 556 l 506 833 l 1061 833 l 1061 972 l 228 972 l 228 556 l 89 556 l 89 417 l 228 417 l 228 -139 l 89 -139 z "},"Ӽ":{"ha":1150,"x_min":0,"x_max":0,"o":"m 1061 278 l 922 278 l 922 417 l 783 417 l 783 556 l 922 556 l 922 694 l 1061 694 l 1061 972 l 783 972 l 783 833 l 644 833 l 644 694 l 506 694 l 506 833 l 367 833 l 367 972 l 89 972 l 89 694 l 228 694 l 228 556 l 367 556 l 367 417 l 228 417 l 228 278 l 89 278 l 89 0 l 367 0 l 367 139 l 506 139 l 506 278 l 644 278 l 644 139 l 783 139 l 783 -139 l 506 -139 l 506 -278 l 922 -278 l 922 -139 l 1061 -139 z "},"ӽ":{"ha":1150,"x_min":0,"x_max":0,"o":"m 1061 278 l 922 278 l 922 417 l 783 417 l 783 556 l 922 556 l 922 694 l 1061 694 l 1061 972 l 783 972 l 783 833 l 644 833 l 644 694 l 506 694 l 506 833 l 367 833 l 367 972 l 89 972 l 89 694 l 228 694 l 228 556 l 367 556 l 367 417 l 228 417 l 228 278 l 89 278 l 89 0 l 367 0 l 367 139 l 506 139 l 506 278 l 644 278 l 644 139 l 783 139 l 783 -139 l 506 -139 l 506 -278 l 922 -278 l 922 -139 l 1061 -139 z "},"Ӿ":{"ha":1150,"x_min":0,"x_max":0,"o":"m 89 417 l 228 417 l 228 278 l 89 278 l 89 0 l 367 0 l 367 139 l 506 139 l 506 278 l 644 278 l 644 139 l 783 139 l 783 0 l 1061 0 l 1061 278 l 922 278 l 922 417 l 1061 417 l 1061 556 l 922 556 l 922 694 l 1061 694 l 1061 972 l 783 972 l 783 833 l 644 833 l 644 694 l 506 694 l 506 833 l 367 833 l 367 972 l 89 972 l 89 694 l 228 694 l 228 556 l 89 556 z "},"ӿ":{"ha":1150,"x_min":0,"x_max":0,"o":"m 89 417 l 228 417 l 228 278 l 89 278 l 89 0 l 367 0 l 367 139 l 506 139 l 506 278 l 644 278 l 644 139 l 783 139 l 783 0 l 1061 0 l 1061 278 l 922 278 l 922 417 l 1061 417 l 1061 556 l 922 556 l 922 694 l 1061 694 l 1061 972 l 783 972 l 783 833 l 644 833 l 644 694 l 506 694 l 506 833 l 367 833 l 367 972 l 89 972 l 89 694 l 228 694 l 228 556 l 89 556 z "},"Ԑ":{"ha":1150,"x_min":0,"x_max":0,"o":"m 367 833 l 783 833 l 783 694 l 1061 694 l 1061 833 l 922 833 l 922 972 l 228 972 l 228 833 l 89 833 l 89 556 l 228 556 l 228 417 l 89 417 l 89 139 l 228 139 l 228 0 l 922 0 l 922 139 l 1061 139 l 1061 278 l 783 278 l 783 139 l 367 139 l 367 417 l 783 417 l 783 556 l 367 556 z "},"ԑ":{"ha":1150,"x_min":0,"x_max":0,"o":"m 367 833 l 783 833 l 783 694 l 1061 694 l 1061 833 l 922 833 l 922 972 l 228 972 l 228 833 l 89 833 l 89 556 l 228 556 l 228 417 l 89 417 l 89 139 l 228 139 l 228 0 l 922 0 l 922 139 l 1061 139 l 1061 278 l 783 278 l 783 139 l 367 139 l 367 417 l 783 417 l 783 556 l 367 556 z "},"Ԓ":{"ha":1150,"x_min":0,"x_max":0,"o":"m 506 -278 l 922 -278 l 922 -139 l 1061 -139 l 1061 972 l 367 972 l 367 278 l 228 278 l 228 139 l 89 139 l 89 0 l 367 0 l 367 139 l 506 139 l 506 833 l 783 833 l 783 -139 l 506 -139 z "},"ԓ":{"ha":1150,"x_min":0,"x_max":0,"o":"m 506 -278 l 922 -278 l 922 -139 l 1061 -139 l 1061 972 l 367 972 l 367 278 l 228 278 l 228 139 l 89 139 l 89 0 l 367 0 l 367 139 l 506 139 l 506 833 l 783 833 l 783 -139 l 506 -139 z "},"Ԥ":{"ha":1150,"x_min":0,"x_max":0,"o":"m 922 -278 l 1061 -278 l 1061 139 l 922 139 l 922 972 l 89 972 l 89 0 l 367 0 l 367 833 l 644 833 l 644 0 l 922 0 z "},"ԥ":{"ha":1150,"x_min":0,"x_max":0,"o":"m 922 -278 l 1061 -278 l 1061 139 l 922 139 l 922 972 l 89 972 l 89 0 l 367 0 l 367 833 l 644 833 l 644 0 l 922 0 z "},"Ԧ":{"ha":1150,"x_min":0,"x_max":0,"o":"m 922 417 l 783 417 l 783 556 l 367 556 l 367 972 l 89 972 l 89 0 l 367 0 l 367 417 l 644 417 l 644 0 l 922 0 l 922 -278 l 1061 -278 l 1061 139 l 922 139 z "},"ԧ":{"ha":1150,"x_min":0,"x_max":0,"o":"m 922 417 l 783 417 l 783 556 l 367 556 l 367 972 l 89 972 l 89 0 l 367 0 l 367 417 l 644 417 l 644 0 l 922 0 l 922 -278 l 1061 -278 l 1061 139 l 922 139 z "},"Ԯ":{"ha":1150,"x_min":0,"x_max":0,"o":"m 922 -278 l 1061 -278 l 1061 139 l 922 139 l 922 972 l 367 972 l 367 278 l 228 278 l 228 139 l 89 139 l 89 0 l 367 0 l 367 139 l 506 139 l 506 833 l 644 833 l 644 0 l 922 0 z "},"ԯ":{"ha":1150,"x_min":0,"x_max":0,"o":"m 922 -278 l 1061 -278 l 1061 139 l 922 139 l 922 972 l 367 972 l 367 278 l 228 278 l 228 139 l 89 139 l 89 0 l 367 0 l 367 139 l 506 139 l 506 833 l 644 833 l 644 0 l 922 0 z "},"":{"ha":1150,"x_min":0,"x_max":0,"o":"m 922 -278 l 1061 -278 l 1061 139 l 922 139 l 922 972 l 367 972 l 367 278 l 228 278 l 228 139 l 89 139 l 89 0 l 367 0 l 367 139 l 506 139 l 506 833 l 644 833 l 644 0 l 922 0 z "},"":{"ha":1150,"x_min":0,"x_max":0,"o":"m 922 -278 l 1061 -278 l 1061 139 l 922 139 l 922 972 l 367 972 l 367 278 l 228 278 l 228 139 l 89 139 l 89 0 l 367 0 l 367 139 l 506 139 l 506 833 l 644 833 l 644 0 l 922 0 z "},"֏":{"ha":1150,"x_min":0,"x_max":0,"o":"m 89 556 l 228 556 l 228 694 l 367 694 l 367 833 l 644 833 l 644 694 l 506 694 l 506 556 l 644 556 l 644 417 l 506 417 l 506 278 l 644 278 l 644 0 l 922 0 l 922 278 l 1061 278 l 1061 417 l 922 417 l 922 556 l 1061 556 l 1061 694 l 922 694 l 922 833 l 783 833 l 783 972 l 228 972 l 228 833 l 89 833 z "},"Ḃ":{"ha":1150,"x_min":0,"x_max":0,"o":"m 1061 417 l 922 417 l 922 556 l 1061 556 l 1061 833 l 922 833 l 922 972 l 89 972 l 89 0 l 922 0 l 922 139 l 1061 139 z m 367 556 l 367 833 l 783 833 l 783 556 z m 367 139 l 367 417 l 783 417 l 783 139 z m 367 1111 l 644 1111 l 644 1389 l 367 1389 z "},"ḃ":{"ha":1150,"x_min":0,"x_max":0,"o":"m 1061 417 l 922 417 l 922 556 l 1061 556 l 1061 833 l 922 833 l 922 972 l 89 972 l 89 0 l 922 0 l 922 139 l 1061 139 z m 367 556 l 367 833 l 783 833 l 783 556 z m 367 139 l 367 417 l 783 417 l 783 139 z m 367 1111 l 644 1111 l 644 1389 l 367 1389 z "},"Ḋ":{"ha":1150,"x_min":0,"x_max":0,"o":"m 1061 694 l 922 694 l 922 833 l 783 833 l 783 972 l 89 972 l 89 0 l 783 0 l 783 139 l 922 139 l 922 278 l 1061 278 z m 644 278 l 644 139 l 367 139 l 367 833 l 644 833 l 644 694 l 783 694 l 783 278 z m 367 1111 l 644 1111 l 644 1389 l 367 1389 z "},"ḋ":{"ha":1150,"x_min":0,"x_max":0,"o":"m 1061 694 l 922 694 l 922 833 l 783 833 l 783 972 l 89 972 l 89 0 l 783 0 l 783 139 l 922 139 l 922 278 l 1061 278 z m 644 278 l 644 139 l 367 139 l 367 833 l 644 833 l 644 694 l 783 694 l 783 278 z m 367 1111 l 644 1111 l 644 1389 l 367 1389 z "},"Ḍ":{"ha":1150,"x_min":0,"x_max":0,"o":"m 367 -278 l 644 -278 l 644 0 l 783 0 l 783 139 l 922 139 l 922 278 l 1061 278 l 1061 694 l 922 694 l 922 833 l 783 833 l 783 972 l 89 972 l 89 0 l 367 0 z m 644 278 l 644 139 l 367 139 l 367 833 l 644 833 l 644 694 l 783 694 l 783 278 z "},"ḍ":{"ha":1150,"x_min":0,"x_max":0,"o":"m 367 -278 l 644 -278 l 644 0 l 783 0 l 783 139 l 922 139 l 922 278 l 1061 278 l 1061 694 l 922 694 l 922 833 l 783 833 l 783 972 l 89 972 l 89 0 l 367 0 z m 644 278 l 644 139 l 367 139 l 367 833 l 644 833 l 644 694 l 783 694 l 783 278 z "},"Ḓ":{"ha":1150,"x_min":0,"x_max":0,"o":"m 367 -278 l 367 -139 l 506 -139 l 506 -278 l 783 -278 l 783 -139 l 644 -139 l 644 0 l 783 0 l 783 139 l 922 139 l 922 278 l 1061 278 l 1061 694 l 922 694 l 922 833 l 783 833 l 783 972 l 89 972 l 89 0 l 228 0 l 228 -139 l 89 -139 l 89 -278 z m 644 278 l 644 139 l 367 139 l 367 833 l 644 833 l 644 694 l 783 694 l 783 278 z "},"ḓ":{"ha":1150,"x_min":0,"x_max":0,"o":"m 367 -278 l 367 -139 l 506 -139 l 506 -278 l 783 -278 l 783 -139 l 644 -139 l 644 0 l 783 0 l 783 139 l 922 139 l 922 278 l 1061 278 l 1061 694 l 922 694 l 922 833 l 783 833 l 783 972 l 89 972 l 89 0 l 228 0 l 228 -139 l 89 -139 l 89 -278 z m 644 278 l 644 139 l 367 139 l 367 833 l 644 833 l 644 694 l 783 694 l 783 278 z "},"Ḟ":{"ha":1150,"x_min":0,"x_max":0,"o":"m 1061 972 l 89 972 l 89 0 l 367 0 l 367 417 l 922 417 l 922 556 l 367 556 l 367 833 l 1061 833 z m 436 1111 l 714 1111 l 714 1389 l 436 1389 z "},"ḟ":{"ha":1150,"x_min":0,"x_max":0,"o":"m 1061 972 l 89 972 l 89 0 l 367 0 l 367 417 l 922 417 l 922 556 l 367 556 l 367 833 l 1061 833 z m 436 1111 l 714 1111 l 714 1389 l 436 1389 z "},"Ḣ":{"ha":1150,"x_min":0,"x_max":0,"o":"m 1061 972 l 783 972 l 783 556 l 367 556 l 367 972 l 89 972 l 89 0 l 367 0 l 367 417 l 783 417 l 783 0 l 1061 0 z m 436 1111 l 714 1111 l 714 1389 l 436 1389 z "},"ḣ":{"ha":1150,"x_min":0,"x_max":0,"o":"m 1061 972 l 783 972 l 783 556 l 367 556 l 367 972 l 89 972 l 89 0 l 367 0 l 367 417 l 783 417 l 783 0 l 1061 0 z m 436 1111 l 714 1111 l 714 1389 l 436 1389 z "},"Ḥ":{"ha":1150,"x_min":0,"x_max":0,"o":"m 1061 972 l 783 972 l 783 556 l 367 556 l 367 972 l 89 972 l 89 0 l 367 0 l 367 417 l 783 417 l 783 0 l 1061 0 z m 436 -278 l 714 -278 l 714 0 l 436 0 z "},"ḥ":{"ha":1150,"x_min":0,"x_max":0,"o":"m 1061 972 l 783 972 l 783 556 l 367 556 l 367 972 l 89 972 l 89 0 l 367 0 l 367 417 l 783 417 l 783 0 l 1061 0 z m 436 -278 l 714 -278 l 714 0 l 436 0 z "},"Ḽ":{"ha":1150,"x_min":0,"x_max":0,"o":"m 506 -278 l 506 -139 l 644 -139 l 644 -278 l 922 -278 l 922 -139 l 783 -139 l 783 0 l 1061 0 l 1061 139 l 367 139 l 367 972 l 89 972 l 89 0 l 367 0 l 367 -139 l 228 -139 l 228 -278 z "},"ḽ":{"ha":1150,"x_min":0,"x_max":0,"o":"m 506 -278 l 506 -139 l 644 -139 l 644 -278 l 922 -278 l 922 -139 l 783 -139 l 783 0 l 1061 0 l 1061 139 l 367 139 l 367 972 l 89 972 l 89 0 l 367 0 l 367 -139 l 228 -139 l 228 -278 z "},"Ṅ":{"ha":1150,"x_min":0,"x_max":0,"o":"m 1061 972 l 783 972 l 783 556 l 644 556 l 644 694 l 506 694 l 506 833 l 367 833 l 367 972 l 89 972 l 89 0 l 367 0 l 367 417 l 506 417 l 506 278 l 644 278 l 644 139 l 783 139 l 783 0 l 1061 0 z m 436 1111 l 714 1111 l 714 1389 l 436 1389 z "},"ṅ":{"ha":1150,"x_min":0,"x_max":0,"o":"m 1061 972 l 783 972 l 783 556 l 644 556 l 644 694 l 506 694 l 506 833 l 367 833 l 367 972 l 89 972 l 89 0 l 367 0 l 367 417 l 506 417 l 506 278 l 644 278 l 644 139 l 783 139 l 783 0 l 1061 0 z m 436 1111 l 714 1111 l 714 1389 l 436 1389 z "},"Ṋ":{"ha":1150,"x_min":0,"x_max":0,"o":"m 1061 972 l 783 972 l 783 556 l 644 556 l 644 694 l 506 694 l 506 833 l 367 833 l 367 972 l 89 972 l 89 0 l 367 0 l 367 417 l 506 417 l 506 278 l 644 278 l 644 139 l 783 139 l 783 0 l 1061 0 z m 506 -278 l 506 -139 l 644 -139 l 644 -278 l 922 -278 l 922 -139 l 783 -139 l 783 0 l 367 0 l 367 -139 l 228 -139 l 228 -278 z "},"ṋ":{"ha":1150,"x_min":0,"x_max":0,"o":"m 1061 972 l 783 972 l 783 556 l 644 556 l 644 694 l 506 694 l 506 833 l 367 833 l 367 972 l 89 972 l 89 0 l 367 0 l 367 417 l 506 417 l 506 278 l 644 278 l 644 139 l 783 139 l 783 0 l 1061 0 z m 506 -278 l 506 -139 l 644 -139 l 644 -278 l 922 -278 l 922 -139 l 783 -139 l 783 0 l 367 0 l 367 -139 l 228 -139 l 228 -278 z "},"Ṗ":{"ha":1150,"x_min":0,"x_max":0,"o":"m 1061 833 l 922 833 l 922 972 l 89 972 l 89 0 l 367 0 l 367 278 l 922 278 l 922 417 l 1061 417 z m 367 417 l 367 833 l 783 833 l 783 417 z m 436 1111 l 714 1111 l 714 1389 l 436 1389 z "},"ṗ":{"ha":1150,"x_min":0,"x_max":0,"o":"m 1061 833 l 922 833 l 922 972 l 89 972 l 89 0 l 367 0 l 367 278 l 922 278 l 922 417 l 1061 417 z m 367 417 l 367 833 l 783 833 l 783 417 z m 436 1111 l 714 1111 l 714 1389 l 436 1389 z "},"Ṛ":{"ha":1150,"x_min":0,"x_max":0,"o":"m 1061 139 l 922 139 l 922 278 l 783 278 l 783 417 l 1061 417 l 1061 833 l 922 833 l 922 972 l 89 972 l 89 0 l 367 0 l 367 278 l 506 278 l 506 139 l 644 139 l 644 0 l 1061 0 z m 644 556 l 644 417 l 367 417 l 367 833 l 783 833 l 783 556 z m 367 -278 l 644 -278 l 644 0 l 367 0 z "},"ṛ":{"ha":1150,"x_min":0,"x_max":0,"o":"m 1061 139 l 922 139 l 922 278 l 783 278 l 783 417 l 1061 417 l 1061 833 l 922 833 l 922 972 l 89 972 l 89 0 l 367 0 l 367 278 l 506 278 l 506 139 l 644 139 l 644 0 l 1061 0 z m 644 556 l 644 417 l 367 417 l 367 833 l 783 833 l 783 556 z m 367 -278 l 644 -278 l 644 0 l 367 0 z "},"Ṡ":{"ha":1150,"x_min":0,"x_max":0,"o":"m 1061 417 l 922 417 l 922 556 l 367 556 l 367 833 l 644 833 l 644 694 l 922 694 l 922 833 l 783 833 l 783 972 l 228 972 l 228 833 l 89 833 l 89 556 l 228 556 l 228 417 l 783 417 l 783 139 l 367 139 l 367 278 l 89 278 l 89 139 l 228 139 l 228 0 l 922 0 l 922 139 l 1061 139 z m 367 1111 l 644 1111 l 644 1389 l 367 1389 z "},"ṡ":{"ha":1150,"x_min":0,"x_max":0,"o":"m 1061 417 l 922 417 l 922 556 l 367 556 l 367 833 l 644 833 l 644 694 l 922 694 l 922 833 l 783 833 l 783 972 l 228 972 l 228 833 l 89 833 l 89 556 l 228 556 l 228 417 l 783 417 l 783 139 l 367 139 l 367 278 l 89 278 l 89 139 l 228 139 l 228 0 l 922 0 l 922 139 l 1061 139 z m 367 1111 l 644 1111 l 644 1389 l 367 1389 z "},"Ṣ":{"ha":1150,"x_min":0,"x_max":0,"o":"m 436 -278 l 714 -278 l 714 0 l 922 0 l 922 139 l 1061 139 l 1061 417 l 922 417 l 922 556 l 367 556 l 367 833 l 644 833 l 644 694 l 922 694 l 922 833 l 783 833 l 783 972 l 228 972 l 228 833 l 89 833 l 89 556 l 228 556 l 228 417 l 783 417 l 783 139 l 367 139 l 367 278 l 89 278 l 89 139 l 228 139 l 228 0 l 436 0 z "},"ṣ":{"ha":1150,"x_min":0,"x_max":0,"o":"m 436 -278 l 714 -278 l 714 0 l 922 0 l 922 139 l 1061 139 l 1061 417 l 922 417 l 922 556 l 367 556 l 367 833 l 644 833 l 644 694 l 922 694 l 922 833 l 783 833 l 783 972 l 228 972 l 228 833 l 89 833 l 89 556 l 228 556 l 228 417 l 783 417 l 783 139 l 367 139 l 367 278 l 89 278 l 89 139 l 228 139 l 228 0 l 436 0 z "},"Ṫ":{"ha":1150,"x_min":0,"x_max":0,"o":"m 992 972 l 158 972 l 158 833 l 436 833 l 436 0 l 714 0 l 714 833 l 992 833 z m 436 1111 l 714 1111 l 714 1389 l 436 1389 z "},"ṫ":{"ha":1150,"x_min":0,"x_max":0,"o":"m 992 972 l 158 972 l 158 833 l 436 833 l 436 0 l 714 0 l 714 833 l 992 833 z m 436 1111 l 714 1111 l 714 1389 l 436 1389 z "},"Ṭ":{"ha":1150,"x_min":0,"x_max":0,"o":"m 436 -278 l 714 -278 l 714 833 l 992 833 l 992 972 l 158 972 l 158 833 l 436 833 z "},"ṭ":{"ha":1150,"x_min":0,"x_max":0,"o":"m 436 -278 l 714 -278 l 714 833 l 992 833 l 992 972 l 158 972 l 158 833 l 436 833 z "},"Ẁ":{"ha":1150,"x_min":0,"x_max":0,"o":"m 1061 972 l 783 972 l 783 556 l 644 556 l 644 694 l 506 694 l 506 556 l 367 556 l 367 972 l 89 972 l 89 0 l 367 0 l 367 139 l 506 139 l 506 278 l 644 278 l 644 139 l 783 139 l 783 0 l 1061 0 z m 728 1111 l 728 1250 l 589 1250 l 589 1389 l 311 1389 l 311 1250 l 450 1250 l 450 1111 z "},"ẁ":{"ha":1150,"x_min":0,"x_max":0,"o":"m 1061 972 l 783 972 l 783 556 l 644 556 l 644 694 l 506 694 l 506 556 l 367 556 l 367 972 l 89 972 l 89 0 l 367 0 l 367 139 l 506 139 l 506 278 l 644 278 l 644 139 l 783 139 l 783 0 l 1061 0 z m 728 1111 l 728 1250 l 589 1250 l 589 1389 l 311 1389 l 311 1250 l 450 1250 l 450 1111 z "},"Ẃ":{"ha":1150,"x_min":0,"x_max":0,"o":"m 1061 972 l 783 972 l 783 556 l 644 556 l 644 694 l 506 694 l 506 556 l 367 556 l 367 972 l 89 972 l 89 0 l 367 0 l 367 139 l 506 139 l 506 278 l 644 278 l 644 139 l 783 139 l 783 0 l 1061 0 z m 700 1111 l 700 1250 l 839 1250 l 839 1389 l 561 1389 l 561 1250 l 422 1250 l 422 1111 z "},"ẃ":{"ha":1150,"x_min":0,"x_max":0,"o":"m 1061 972 l 783 972 l 783 556 l 644 556 l 644 694 l 506 694 l 506 556 l 367 556 l 367 972 l 89 972 l 89 0 l 367 0 l 367 139 l 506 139 l 506 278 l 644 278 l 644 139 l 783 139 l 783 0 l 1061 0 z m 700 1111 l 700 1250 l 839 1250 l 839 1389 l 561 1389 l 561 1250 l 422 1250 l 422 1111 z "},"Ẅ":{"ha":1150,"x_min":0,"x_max":0,"o":"m 1061 972 l 783 972 l 783 556 l 644 556 l 644 694 l 506 694 l 506 556 l 367 556 l 367 972 l 89 972 l 89 0 l 367 0 l 367 139 l 506 139 l 506 278 l 644 278 l 644 139 l 783 139 l 783 0 l 1061 0 z m 644 1389 l 644 1111 l 922 1111 l 922 1389 z m 228 1111 l 506 1111 l 506 1389 l 228 1389 z "},"ẅ":{"ha":1150,"x_min":0,"x_max":0,"o":"m 1061 972 l 783 972 l 783 556 l 644 556 l 644 694 l 506 694 l 506 556 l 367 556 l 367 972 l 89 972 l 89 0 l 367 0 l 367 139 l 506 139 l 506 278 l 644 278 l 644 139 l 783 139 l 783 0 l 1061 0 z m 644 1389 l 644 1111 l 922 1111 l 922 1389 z m 228 1111 l 506 1111 l 506 1389 l 228 1389 z "},"Ẓ":{"ha":1150,"x_min":0,"x_max":0,"o":"m 506 -278 l 783 -278 l 783 0 l 1061 0 l 1061 139 l 506 139 l 506 278 l 644 278 l 644 417 l 783 417 l 783 556 l 922 556 l 922 694 l 1061 694 l 1061 972 l 89 972 l 89 833 l 644 833 l 644 694 l 506 694 l 506 556 l 367 556 l 367 417 l 228 417 l 228 278 l 89 278 l 89 0 l 506 0 z "}}}
